{"glyphs":{"0":{"ha":760,"x_min":115,"x_max":644,"o":"m 264 854 q 243 802 264 823 q 190 780 221 780 q 137 802 159 780 q 115 854 115 823 q 137 907 115 885 q 190 929 159 929 q 243 907 221 929 q 264 854 264 885 m 454 854 q 433 802 454 823 q 380 780 411 780 q 327 802 349 780 q 305 854 305 823 q 327 907 305 885 q 380 929 349 929 q 433 907 411 929 q 454 854 454 885 m 644 854 q 623 802 644 823 q 570 780 601 780 q 517 802 539 780 q 495 854 495 823 q 517 907 495 885 q 570 929 539 929 q 623 907 601 929 q 644 854 644 885 m 264 665 q 243 612 264 633 q 190 590 221 590 q 137 612 159 590 q 115 665 115 633 q 137 717 115 695 q 190 739 159 739 q 243 717 221 739 q 264 665 264 695 m 644 665 q 623 612 644 633 q 570 590 601 590 q 517 612 539 590 q 495 665 495 633 q 517 717 495 695 q 570 739 539 739 q 623 717 601 739 q 644 665 644 695 m 264 475 q 243 422 264 444 q 190 400 221 400 q 137 422 159 400 q 115 475 115 444 q 137 527 115 505 q 190 549 159 549 q 243 527 221 549 q 264 475 264 505 m 644 475 q 623 422 644 444 q 570 400 601 400 q 517 422 539 400 q 495 475 495 444 q 517 527 495 505 q 570 549 539 549 q 623 527 601 549 q 644 475 644 505 m 264 285 q 243 232 264 254 q 190 210 221 210 q 137 232 159 210 q 115 285 115 254 q 137 337 115 315 q 190 359 159 359 q 243 337 221 359 q 264 285 264 315 m 644 285 q 623 232 644 254 q 570 210 601 210 q 517 232 539 210 q 495 285 495 254 q 517 337 495 315 q 570 359 539 359 q 623 337 601 359 q 644 285 644 315 m 264 95 q 243 42 264 64 q 190 20 221 20 q 137 42 159 20 q 115 95 115 64 q 137 148 115 125 q 190 170 159 170 q 243 148 221 170 q 264 95 264 125 m 454 95 q 433 42 454 64 q 380 20 411 20 q 327 42 349 20 q 305 95 305 64 q 327 148 305 125 q 380 170 349 170 q 433 148 411 170 q 454 95 454 125 m 644 95 q 623 42 644 64 q 570 20 601 20 q 517 42 539 20 q 495 95 495 64 q 517 148 495 125 q 570 170 539 170 q 623 148 601 170 q 644 95 644 125 z "},"1":{"ha":760,"x_min":115,"x_max":644,"o":"m 454 854 q 433 802 454 823 q 380 780 411 780 q 327 802 349 780 q 305 854 305 823 q 327 907 305 885 q 380 929 349 929 q 433 907 411 929 q 454 854 454 885 m 264 665 q 243 612 264 633 q 190 590 221 590 q 137 612 159 590 q 115 665 115 633 q 137 717 115 695 q 190 739 159 739 q 243 717 221 739 q 264 665 264 695 m 454 665 q 433 612 454 633 q 380 590 411 590 q 327 612 349 590 q 305 665 305 633 q 327 717 305 695 q 380 739 349 739 q 433 717 411 739 q 454 665 454 695 m 454 475 q 433 422 454 444 q 380 400 411 400 q 327 422 349 400 q 305 475 305 444 q 327 527 305 505 q 380 549 349 549 q 433 527 411 549 q 454 475 454 505 m 454 285 q 433 232 454 254 q 380 210 411 210 q 327 232 349 210 q 305 285 305 254 q 327 337 305 315 q 380 359 349 359 q 433 337 411 359 q 454 285 454 315 m 264 95 q 243 42 264 64 q 190 20 221 20 q 137 42 159 20 q 115 95 115 64 q 137 148 115 125 q 190 170 159 170 q 243 148 221 170 q 264 95 264 125 m 454 95 q 433 42 454 64 q 380 20 411 20 q 327 42 349 20 q 305 95 305 64 q 327 148 305 125 q 380 170 349 170 q 433 148 411 170 q 454 95 454 125 m 644 95 q 623 42 644 64 q 570 20 601 20 q 517 42 539 20 q 495 95 495 64 q 517 148 495 125 q 570 170 539 170 q 623 148 601 170 q 644 95 644 125 z "},"2":{"ha":760,"x_min":115,"x_max":644,"o":"m 454 854 q 433 802 454 823 q 380 780 411 780 q 327 802 349 780 q 305 854 305 823 q 327 907 305 885 q 380 929 349 929 q 433 907 411 929 q 454 854 454 885 m 644 854 q 623 802 644 823 q 570 780 601 780 q 517 802 539 780 q 495 854 495 823 q 517 907 495 885 q 570 929 539 929 q 623 907 601 929 q 644 854 644 885 m 264 665 q 243 612 264 633 q 190 590 221 590 q 137 612 159 590 q 115 665 115 633 q 137 717 115 695 q 190 739 159 739 q 243 717 221 739 q 264 665 264 695 m 644 665 q 623 612 644 633 q 570 590 601 590 q 517 612 539 590 q 495 665 495 633 q 517 717 495 695 q 570 739 539 739 q 623 717 601 739 q 644 665 644 695 m 454 475 q 433 422 454 444 q 380 400 411 400 q 327 422 349 400 q 305 475 305 444 q 327 527 305 505 q 380 549 349 549 q 433 527 411 549 q 454 475 454 505 m 264 285 q 243 232 264 254 q 190 210 221 210 q 137 232 159 210 q 115 285 115 254 q 137 337 115 315 q 190 359 159 359 q 243 337 221 359 q 264 285 264 315 m 264 95 q 243 42 264 64 q 190 20 221 20 q 137 42 159 20 q 115 95 115 64 q 137 148 115 125 q 190 170 159 170 q 243 148 221 170 q 264 95 264 125 m 454 95 q 433 42 454 64 q 380 20 411 20 q 327 42 349 20 q 305 95 305 64 q 327 148 305 125 q 380 170 349 170 q 433 148 411 170 q 454 95 454 125 m 644 95 q 623 42 644 64 q 570 20 601 20 q 517 42 539 20 q 495 95 495 64 q 517 148 495 125 q 570 170 539 170 q 623 148 601 170 q 644 95 644 125 z "},"3":{"ha":760,"x_min":115,"x_max":644,"o":"m 264 854 q 243 802 264 823 q 190 780 221 780 q 137 802 159 780 q 115 854 115 823 q 137 907 115 885 q 190 929 159 929 q 243 907 221 929 q 264 854 264 885 m 454 854 q 433 802 454 823 q 380 780 411 780 q 327 802 349 780 q 305 854 305 823 q 327 907 305 885 q 380 929 349 929 q 433 907 411 929 q 454 854 454 885 m 644 665 q 623 612 644 633 q 570 590 601 590 q 517 612 539 590 q 495 665 495 633 q 517 717 495 695 q 570 739 539 739 q 623 717 601 739 q 644 665 644 695 m 264 475 q 243 422 264 444 q 190 400 221 400 q 137 422 159 400 q 115 475 115 444 q 137 527 115 505 q 190 549 159 549 q 243 527 221 549 q 264 475 264 505 m 454 475 q 433 422 454 444 q 380 400 411 400 q 327 422 349 400 q 305 475 305 444 q 327 527 305 505 q 380 549 349 549 q 433 527 411 549 q 454 475 454 505 m 644 475 q 623 422 644 444 q 570 400 601 400 q 517 422 539 400 q 495 475 495 444 q 517 527 495 505 q 570 549 539 549 q 623 527 601 549 q 644 475 644 505 m 644 285 q 623 232 644 254 q 570 210 601 210 q 517 232 539 210 q 495 285 495 254 q 517 337 495 315 q 570 359 539 359 q 623 337 601 359 q 644 285 644 315 m 264 95 q 243 42 264 64 q 190 20 221 20 q 137 42 159 20 q 115 95 115 64 q 137 148 115 125 q 190 170 159 170 q 243 148 221 170 q 264 95 264 125 m 454 95 q 433 42 454 64 q 380 20 411 20 q 327 42 349 20 q 305 95 305 64 q 327 148 305 125 q 380 170 349 170 q 433 148 411 170 q 454 95 454 125 z "},"4":{"ha":760,"x_min":115,"x_max":644,"o":"m 264 854 q 243 802 264 823 q 190 780 221 780 q 137 802 159 780 q 115 854 115 823 q 137 907 115 885 q 190 929 159 929 q 243 907 221 929 q 264 854 264 885 m 644 854 q 623 802 644 823 q 570 780 601 780 q 517 802 539 780 q 495 854 495 823 q 517 907 495 885 q 570 929 539 929 q 623 907 601 929 q 644 854 644 885 m 264 665 q 243 612 264 633 q 190 590 221 590 q 137 612 159 590 q 115 665 115 633 q 137 717 115 695 q 190 739 159 739 q 243 717 221 739 q 264 665 264 695 m 644 665 q 623 612 644 633 q 570 590 601 590 q 517 612 539 590 q 495 665 495 633 q 517 717 495 695 q 570 739 539 739 q 623 717 601 739 q 644 665 644 695 m 264 475 q 243 422 264 444 q 190 400 221 400 q 137 422 159 400 q 115 475 115 444 q 137 527 115 505 q 190 549 159 549 q 243 527 221 549 q 264 475 264 505 m 454 475 q 433 422 454 444 q 380 400 411 400 q 327 422 349 400 q 305 475 305 444 q 327 527 305 505 q 380 549 349 549 q 433 527 411 549 q 454 475 454 505 m 644 475 q 623 422 644 444 q 570 400 601 400 q 517 422 539 400 q 495 475 495 444 q 517 527 495 505 q 570 549 539 549 q 623 527 601 549 q 644 475 644 505 m 644 285 q 623 232 644 254 q 570 210 601 210 q 517 232 539 210 q 495 285 495 254 q 517 337 495 315 q 570 359 539 359 q 623 337 601 359 q 644 285 644 315 m 644 95 q 623 42 644 64 q 570 20 601 20 q 517 42 539 20 q 495 95 495 64 q 517 148 495 125 q 570 170 539 170 q 623 148 601 170 q 644 95 644 125 z "},"5":{"ha":760,"x_min":115,"x_max":644,"o":"m 264 854 q 243 802 264 823 q 190 780 221 780 q 137 802 159 780 q 115 854 115 823 q 137 907 115 885 q 190 929 159 929 q 243 907 221 929 q 264 854 264 885 m 454 854 q 433 802 454 823 q 380 780 411 780 q 327 802 349 780 q 305 854 305 823 q 327 907 305 885 q 380 929 349 929 q 433 907 411 929 q 454 854 454 885 m 644 854 q 623 802 644 823 q 570 780 601 780 q 517 802 539 780 q 495 854 495 823 q 517 907 495 885 q 570 929 539 929 q 623 907 601 929 q 644 854 644 885 m 264 665 q 243 612 264 633 q 190 590 221 590 q 137 612 159 590 q 115 665 115 633 q 137 717 115 695 q 190 739 159 739 q 243 717 221 739 q 264 665 264 695 m 264 475 q 243 422 264 444 q 190 400 221 400 q 137 422 159 400 q 115 475 115 444 q 137 527 115 505 q 190 549 159 549 q 243 527 221 549 q 264 475 264 505 m 454 475 q 433 422 454 444 q 380 400 411 400 q 327 422 349 400 q 305 475 305 444 q 327 527 305 505 q 380 549 349 549 q 433 527 411 549 q 454 475 454 505 m 644 475 q 623 422 644 444 q 570 400 601 400 q 517 422 539 400 q 495 475 495 444 q 517 527 495 505 q 570 549 539 549 q 623 527 601 549 q 644 475 644 505 m 644 285 q 623 232 644 254 q 570 210 601 210 q 517 232 539 210 q 495 285 495 254 q 517 337 495 315 q 570 359 539 359 q 623 337 601 359 q 644 285 644 315 m 264 95 q 243 42 264 64 q 190 20 221 20 q 137 42 159 20 q 115 95 115 64 q 137 148 115 125 q 190 170 159 170 q 243 148 221 170 q 264 95 264 125 m 454 95 q 433 42 454 64 q 380 20 411 20 q 327 42 349 20 q 305 95 305 64 q 327 148 305 125 q 380 170 349 170 q 433 148 411 170 q 454 95 454 125 z "},"6":{"ha":760,"x_min":115,"x_max":644,"o":"m 454 854 q 433 802 454 823 q 380 780 411 780 q 327 802 349 780 q 305 854 305 823 q 327 907 305 885 q 380 929 349 929 q 433 907 411 929 q 454 854 454 885 m 644 854 q 623 802 644 823 q 570 780 601 780 q 517 802 539 780 q 495 854 495 823 q 517 907 495 885 q 570 929 539 929 q 623 907 601 929 q 644 854 644 885 m 264 665 q 243 612 264 633 q 190 590 221 590 q 137 612 159 590 q 115 665 115 633 q 137 717 115 695 q 190 739 159 739 q 243 717 221 739 q 264 665 264 695 m 264 475 q 243 422 264 444 q 190 400 221 400 q 137 422 159 400 q 115 475 115 444 q 137 527 115 505 q 190 549 159 549 q 243 527 221 549 q 264 475 264 505 m 454 475 q 433 422 454 444 q 380 400 411 400 q 327 422 349 400 q 305 475 305 444 q 327 527 305 505 q 380 549 349 549 q 433 527 411 549 q 454 475 454 505 m 644 475 q 623 422 644 444 q 570 400 601 400 q 517 422 539 400 q 495 475 495 444 q 517 527 495 505 q 570 549 539 549 q 623 527 601 549 q 644 475 644 505 m 264 285 q 243 232 264 254 q 190 210 221 210 q 137 232 159 210 q 115 285 115 254 q 137 337 115 315 q 190 359 159 359 q 243 337 221 359 q 264 285 264 315 m 644 285 q 623 232 644 254 q 570 210 601 210 q 517 232 539 210 q 495 285 495 254 q 517 337 495 315 q 570 359 539 359 q 623 337 601 359 q 644 285 644 315 m 264 95 q 243 42 264 64 q 190 20 221 20 q 137 42 159 20 q 115 95 115 64 q 137 148 115 125 q 190 170 159 170 q 243 148 221 170 q 264 95 264 125 m 454 95 q 433 42 454 64 q 380 20 411 20 q 327 42 349 20 q 305 95 305 64 q 327 148 305 125 q 380 170 349 170 q 433 148 411 170 q 454 95 454 125 m 644 95 q 623 42 644 64 q 570 20 601 20 q 517 42 539 20 q 495 95 495 64 q 517 148 495 125 q 570 170 539 170 q 623 148 601 170 q 644 95 644 125 z "},"7":{"ha":760,"x_min":115,"x_max":644,"o":"m 264 854 q 243 802 264 823 q 190 780 221 780 q 137 802 159 780 q 115 854 115 823 q 137 907 115 885 q 190 929 159 929 q 243 907 221 929 q 264 854 264 885 m 454 854 q 433 802 454 823 q 380 780 411 780 q 327 802 349 780 q 305 854 305 823 q 327 907 305 885 q 380 929 349 929 q 433 907 411 929 q 454 854 454 885 m 644 854 q 623 802 644 823 q 570 780 601 780 q 517 802 539 780 q 495 854 495 823 q 517 907 495 885 q 570 929 539 929 q 623 907 601 929 q 644 854 644 885 m 644 665 q 623 612 644 633 q 570 590 601 590 q 517 612 539 590 q 495 665 495 633 q 517 717 495 695 q 570 739 539 739 q 623 717 601 739 q 644 665 644 695 m 454 475 q 433 422 454 444 q 380 400 411 400 q 327 422 349 400 q 305 475 305 444 q 327 527 305 505 q 380 549 349 549 q 433 527 411 549 q 454 475 454 505 m 454 285 q 433 232 454 254 q 380 210 411 210 q 327 232 349 210 q 305 285 305 254 q 327 337 305 315 q 380 359 349 359 q 433 337 411 359 q 454 285 454 315 m 454 95 q 433 42 454 64 q 380 20 411 20 q 327 42 349 20 q 305 95 305 64 q 327 148 305 125 q 380 170 349 170 q 433 148 411 170 q 454 95 454 125 z "},"8":{"ha":760,"x_min":115,"x_max":644,"o":"m 264 854 q 243 802 264 823 q 190 780 221 780 q 137 802 159 780 q 115 854 115 823 q 137 907 115 885 q 190 929 159 929 q 243 907 221 929 q 264 854 264 885 m 454 854 q 433 802 454 823 q 380 780 411 780 q 327 802 349 780 q 305 854 305 823 q 327 907 305 885 q 380 929 349 929 q 433 907 411 929 q 454 854 454 885 m 644 854 q 623 802 644 823 q 570 780 601 780 q 517 802 539 780 q 495 854 495 823 q 517 907 495 885 q 570 929 539 929 q 623 907 601 929 q 644 854 644 885 m 264 665 q 243 612 264 633 q 190 590 221 590 q 137 612 159 590 q 115 665 115 633 q 137 717 115 695 q 190 739 159 739 q 243 717 221 739 q 264 665 264 695 m 644 665 q 623 612 644 633 q 570 590 601 590 q 517 612 539 590 q 495 665 495 633 q 517 717 495 695 q 570 739 539 739 q 623 717 601 739 q 644 665 644 695 m 454 475 q 433 422 454 444 q 380 400 411 400 q 327 422 349 400 q 305 475 305 444 q 327 527 305 505 q 380 549 349 549 q 433 527 411 549 q 454 475 454 505 m 264 285 q 243 232 264 254 q 190 210 221 210 q 137 232 159 210 q 115 285 115 254 q 137 337 115 315 q 190 359 159 359 q 243 337 221 359 q 264 285 264 315 m 644 285 q 623 232 644 254 q 570 210 601 210 q 517 232 539 210 q 495 285 495 254 q 517 337 495 315 q 570 359 539 359 q 623 337 601 359 q 644 285 644 315 m 264 95 q 243 42 264 64 q 190 20 221 20 q 137 42 159 20 q 115 95 115 64 q 137 148 115 125 q 190 170 159 170 q 243 148 221 170 q 264 95 264 125 m 454 95 q 433 42 454 64 q 380 20 411 20 q 327 42 349 20 q 305 95 305 64 q 327 148 305 125 q 380 170 349 170 q 433 148 411 170 q 454 95 454 125 m 644 95 q 623 42 644 64 q 570 20 601 20 q 517 42 539 20 q 495 95 495 64 q 517 148 495 125 q 570 170 539 170 q 623 148 601 170 q 644 95 644 125 z "},"9":{"ha":760,"x_min":115,"x_max":644,"o":"m 264 854 q 243 802 264 823 q 190 780 221 780 q 137 802 159 780 q 115 854 115 823 q 137 907 115 885 q 190 929 159 929 q 243 907 221 929 q 264 854 264 885 m 454 854 q 433 802 454 823 q 380 780 411 780 q 327 802 349 780 q 305 854 305 823 q 327 907 305 885 q 380 929 349 929 q 433 907 411 929 q 454 854 454 885 m 644 854 q 623 802 644 823 q 570 780 601 780 q 517 802 539 780 q 495 854 495 823 q 517 907 495 885 q 570 929 539 929 q 623 907 601 929 q 644 854 644 885 m 264 665 q 243 612 264 633 q 190 590 221 590 q 137 612 159 590 q 115 665 115 633 q 137 717 115 695 q 190 739 159 739 q 243 717 221 739 q 264 665 264 695 m 644 665 q 623 612 644 633 q 570 590 601 590 q 517 612 539 590 q 495 665 495 633 q 517 717 495 695 q 570 739 539 739 q 623 717 601 739 q 644 665 644 695 m 264 475 q 243 422 264 444 q 190 400 221 400 q 137 422 159 400 q 115 475 115 444 q 137 527 115 505 q 190 549 159 549 q 243 527 221 549 q 264 475 264 505 m 454 475 q 433 422 454 444 q 380 400 411 400 q 327 422 349 400 q 305 475 305 444 q 327 527 305 505 q 380 549 349 549 q 433 527 411 549 q 454 475 454 505 m 644 475 q 623 422 644 444 q 570 400 601 400 q 517 422 539 400 q 495 475 495 444 q 517 527 495 505 q 570 549 539 549 q 623 527 601 549 q 644 475 644 505 m 644 285 q 623 232 644 254 q 570 210 601 210 q 517 232 539 210 q 495 285 495 254 q 517 337 495 315 q 570 359 539 359 q 623 337 601 359 q 644 285 644 315 m 264 95 q 243 42 264 64 q 190 20 221 20 q 137 42 159 20 q 115 95 115 64 q 137 148 115 125 q 190 170 159 170 q 243 148 221 170 q 264 95 264 125 m 454 95 q 433 42 454 64 q 380 20 411 20 q 327 42 349 20 q 305 95 305 64 q 327 148 305 125 q 380 170 349 170 q 433 148 411 170 q 454 95 454 125 z "},"\u0000":{"ha":760,"x_min":115,"x_max":644,"o":"m 190 780 q 137 802 159 780 q 115 854 115 823 q 137 907 115 885 q 190 929 159 929 q 243 907 221 929 q 264 854 264 885 q 243 802 264 823 q 190 780 221 780 m 380 780 q 327 802 349 780 q 305 854 305 823 q 327 907 305 885 q 380 929 349 929 q 433 907 411 929 q 454 854 454 885 q 433 802 454 823 q 380 780 411 780 m 570 780 q 517 802 539 780 q 495 854 495 823 q 517 907 495 885 q 570 929 539 929 q 623 907 601 929 q 644 854 644 885 q 623 802 644 823 q 570 780 601 780 m 190 590 q 137 612 159 590 q 115 665 115 633 q 137 717 115 695 q 190 739 159 739 q 243 717 221 739 q 264 665 264 695 q 243 612 264 633 q 190 590 221 590 m 380 590 q 327 612 349 590 q 305 665 305 633 q 327 717 305 695 q 380 739 349 739 q 433 717 411 739 q 454 665 454 695 q 433 612 454 633 q 380 590 411 590 m 570 590 q 517 612 539 590 q 495 665 495 633 q 517 717 495 695 q 570 739 539 739 q 623 717 601 739 q 644 665 644 695 q 623 612 644 633 q 570 590 601 590 m 190 400 q 137 422 159 400 q 115 475 115 444 q 137 527 115 505 q 190 549 159 549 q 243 527 221 549 q 264 475 264 505 q 243 422 264 444 q 190 400 221 400 m 380 400 q 327 422 349 400 q 305 475 305 444 q 327 527 305 505 q 380 549 349 549 q 433 527 411 549 q 454 475 454 505 q 433 422 454 444 q 380 400 411 400 m 570 400 q 517 422 539 400 q 495 475 495 444 q 517 527 495 505 q 570 549 539 549 q 623 527 601 549 q 644 475 644 505 q 623 422 644 444 q 570 400 601 400 m 190 210 q 137 232 159 210 q 115 285 115 254 q 137 337 115 315 q 190 359 159 359 q 243 337 221 359 q 264 285 264 315 q 243 232 264 254 q 190 210 221 210 m 380 210 q 327 232 349 210 q 305 285 305 254 q 327 337 305 315 q 380 359 349 359 q 433 337 411 359 q 454 285 454 315 q 433 232 454 254 q 380 210 411 210 m 570 210 q 517 232 539 210 q 495 285 495 254 q 517 337 495 315 q 570 359 539 359 q 623 337 601 359 q 644 285 644 315 q 623 232 644 254 q 570 210 601 210 m 190 20 q 137 42 159 20 q 115 95 115 64 q 137 148 115 125 q 190 170 159 170 q 243 148 221 170 q 264 95 264 125 q 243 42 264 64 q 190 20 221 20 m 380 20 q 327 42 349 20 q 305 95 305 64 q 327 148 305 125 q 380 170 349 170 q 433 148 411 170 q 454 95 454 125 q 433 42 454 64 q 380 20 411 20 m 570 20 q 517 42 539 20 q 495 95 495 64 q 517 148 495 125 q 570 170 539 170 q 623 148 601 170 q 644 95 644 125 q 623 42 644 64 q 570 20 601 20 z "},"\u001d":{"ha":760,"x_min":115,"x_max":644,"o":"m 190 780 q 137 802 159 780 q 115 854 115 823 q 137 907 115 885 q 190 929 159 929 q 243 907 221 929 q 264 854 264 885 q 243 802 264 823 q 190 780 221 780 m 380 780 q 327 802 349 780 q 305 854 305 823 q 327 907 305 885 q 380 929 349 929 q 433 907 411 929 q 454 854 454 885 q 433 802 454 823 q 380 780 411 780 m 570 780 q 517 802 539 780 q 495 854 495 823 q 517 907 495 885 q 570 929 539 929 q 623 907 601 929 q 644 854 644 885 q 623 802 644 823 q 570 780 601 780 m 190 590 q 137 612 159 590 q 115 665 115 633 q 137 717 115 695 q 190 739 159 739 q 243 717 221 739 q 264 665 264 695 q 243 612 264 633 q 190 590 221 590 m 380 590 q 327 612 349 590 q 305 665 305 633 q 327 717 305 695 q 380 739 349 739 q 433 717 411 739 q 454 665 454 695 q 433 612 454 633 q 380 590 411 590 m 570 590 q 517 612 539 590 q 495 665 495 633 q 517 717 495 695 q 570 739 539 739 q 623 717 601 739 q 644 665 644 695 q 623 612 644 633 q 570 590 601 590 m 190 400 q 137 422 159 400 q 115 475 115 444 q 137 527 115 505 q 190 549 159 549 q 243 527 221 549 q 264 475 264 505 q 243 422 264 444 q 190 400 221 400 m 380 400 q 327 422 349 400 q 305 475 305 444 q 327 527 305 505 q 380 549 349 549 q 433 527 411 549 q 454 475 454 505 q 433 422 454 444 q 380 400 411 400 m 570 400 q 517 422 539 400 q 495 475 495 444 q 517 527 495 505 q 570 549 539 549 q 623 527 601 549 q 644 475 644 505 q 623 422 644 444 q 570 400 601 400 m 190 210 q 137 232 159 210 q 115 285 115 254 q 137 337 115 315 q 190 359 159 359 q 243 337 221 359 q 264 285 264 315 q 243 232 264 254 q 190 210 221 210 m 380 210 q 327 232 349 210 q 305 285 305 254 q 327 337 305 315 q 380 359 349 359 q 433 337 411 359 q 454 285 454 315 q 433 232 454 254 q 380 210 411 210 m 570 210 q 517 232 539 210 q 495 285 495 254 q 517 337 495 315 q 570 359 539 359 q 623 337 601 359 q 644 285 644 315 q 623 232 644 254 q 570 210 601 210 m 190 20 q 137 42 159 20 q 115 95 115 64 q 137 148 115 125 q 190 170 159 170 q 243 148 221 170 q 264 95 264 125 q 243 42 264 64 q 190 20 221 20 m 380 20 q 327 42 349 20 q 305 95 305 64 q 327 148 305 125 q 380 170 349 170 q 433 148 411 170 q 454 95 454 125 q 433 42 454 64 q 380 20 411 20 m 570 20 q 517 42 539 20 q 495 95 495 64 q 517 148 495 125 q 570 170 539 170 q 623 148 601 170 q 644 95 644 125 q 623 42 644 64 q 570 20 601 20 z "}," ":{"ha":760,"x_min":0,"x_max":0,"o":""}," ":{"ha":760,"x_min":0,"x_max":0,"o":""},"!":{"ha":760,"x_min":305,"x_max":454,"o":"m 380 780 q 327 802 349 780 q 305 854 305 823 q 327 907 305 885 q 380 929 349 929 q 433 907 411 929 q 454 854 454 885 q 433 802 454 823 q 380 780 411 780 m 380 590 q 327 612 349 590 q 305 665 305 633 q 327 717 305 695 q 380 739 349 739 q 433 717 411 739 q 454 665 454 695 q 433 612 454 633 q 380 590 411 590 m 380 400 q 327 422 349 400 q 305 475 305 444 q 327 527 305 505 q 380 549 349 549 q 433 527 411 549 q 454 475 454 505 q 433 422 454 444 q 380 400 411 400 m 380 20 q 327 42 349 20 q 305 95 305 64 q 327 148 305 125 q 380 170 349 170 q 433 148 411 170 q 454 95 454 125 q 433 42 454 64 q 380 20 411 20 z "},"\"":{"ha":760,"x_min":115,"x_max":644,"o":"m 190 780 q 137 802 159 780 q 115 854 115 823 q 137 907 115 885 q 190 929 159 929 q 243 907 221 929 q 264 854 264 885 q 243 802 264 823 q 190 780 221 780 m 570 780 q 517 802 539 780 q 495 854 495 823 q 517 907 495 885 q 570 929 539 929 q 623 907 601 929 q 644 854 644 885 q 623 802 644 823 q 570 780 601 780 m 190 590 q 137 612 159 590 q 115 665 115 633 q 137 717 115 695 q 190 739 159 739 q 243 717 221 739 q 264 665 264 695 q 243 612 264 633 q 190 590 221 590 m 570 590 q 517 612 539 590 q 495 665 495 633 q 517 717 495 695 q 570 739 539 739 q 623 717 601 739 q 644 665 644 695 q 623 612 644 633 q 570 590 601 590 z "},"#":{"ha":760,"x_min":115,"x_max":644,"o":"m 264 854 q 243 802 264 823 q 190 780 221 780 q 137 802 159 780 q 115 854 115 823 q 137 907 115 885 q 190 929 159 929 q 243 907 221 929 q 264 854 264 885 m 644 854 q 623 802 644 823 q 570 780 601 780 q 517 802 539 780 q 495 854 495 823 q 517 907 495 885 q 570 929 539 929 q 623 907 601 929 q 644 854 644 885 m 264 665 q 243 612 264 633 q 190 590 221 590 q 137 612 159 590 q 115 665 115 633 q 137 717 115 695 q 190 739 159 739 q 243 717 221 739 q 264 665 264 695 m 454 665 q 433 612 454 633 q 380 590 411 590 q 327 612 349 590 q 305 665 305 633 q 327 717 305 695 q 380 739 349 739 q 433 717 411 739 q 454 665 454 695 m 644 665 q 623 612 644 633 q 570 590 601 590 q 517 612 539 590 q 495 665 495 633 q 517 717 495 695 q 570 739 539 739 q 623 717 601 739 q 644 665 644 695 m 264 475 q 243 422 264 444 q 190 400 221 400 q 137 422 159 400 q 115 475 115 444 q 137 527 115 505 q 190 549 159 549 q 243 527 221 549 q 264 475 264 505 m 644 475 q 623 422 644 444 q 570 400 601 400 q 517 422 539 400 q 495 475 495 444 q 517 527 495 505 q 570 549 539 549 q 623 527 601 549 q 644 475 644 505 m 264 285 q 243 232 264 254 q 190 210 221 210 q 137 232 159 210 q 115 285 115 254 q 137 337 115 315 q 190 359 159 359 q 243 337 221 359 q 264 285 264 315 m 454 285 q 433 232 454 254 q 380 210 411 210 q 327 232 349 210 q 305 285 305 254 q 327 337 305 315 q 380 359 349 359 q 433 337 411 359 q 454 285 454 315 m 644 285 q 623 232 644 254 q 570 210 601 210 q 517 232 539 210 q 495 285 495 254 q 517 337 495 315 q 570 359 539 359 q 623 337 601 359 q 644 285 644 315 m 264 95 q 243 42 264 64 q 190 20 221 20 q 137 42 159 20 q 115 95 115 64 q 137 148 115 125 q 190 170 159 170 q 243 148 221 170 q 264 95 264 125 m 644 95 q 623 42 644 64 q 570 20 601 20 q 517 42 539 20 q 495 95 495 64 q 517 148 495 125 q 570 170 539 170 q 623 148 601 170 q 644 95 644 125 z "},"%":{"ha":760,"x_min":115,"x_max":644,"o":"m 264 854 q 243 802 264 823 q 190 780 221 780 q 137 802 159 780 q 115 854 115 823 q 137 907 115 885 q 190 929 159 929 q 243 907 221 929 q 264 854 264 885 m 644 854 q 623 802 644 823 q 570 780 601 780 q 517 802 539 780 q 495 854 495 823 q 517 907 495 885 q 570 929 539 929 q 623 907 601 929 q 644 854 644 885 m 644 665 q 623 612 644 633 q 570 590 601 590 q 517 612 539 590 q 495 665 495 633 q 517 717 495 695 q 570 739 539 739 q 623 717 601 739 q 644 665 644 695 m 454 475 q 433 422 454 444 q 380 400 411 400 q 327 422 349 400 q 305 475 305 444 q 327 527 305 505 q 380 549 349 549 q 433 527 411 549 q 454 475 454 505 m 264 285 q 243 232 264 254 q 190 210 221 210 q 137 232 159 210 q 115 285 115 254 q 137 337 115 315 q 190 359 159 359 q 243 337 221 359 q 264 285 264 315 m 264 95 q 243 42 264 64 q 190 20 221 20 q 137 42 159 20 q 115 95 115 64 q 137 148 115 125 q 190 170 159 170 q 243 148 221 170 q 264 95 264 125 m 644 95 q 623 42 644 64 q 570 20 601 20 q 517 42 539 20 q 495 95 495 64 q 517 148 495 125 q 570 170 539 170 q 623 148 601 170 q 644 95 644 125 z "},"'":{"ha":760,"x_min":305,"x_max":454,"o":"m 454 854 q 433 802 454 823 q 380 780 411 780 q 327 802 349 780 q 305 854 305 823 q 327 907 305 885 q 380 929 349 929 q 433 907 411 929 q 454 854 454 885 m 454 665 q 433 612 454 633 q 380 590 411 590 q 327 612 349 590 q 305 665 305 633 q 327 717 305 695 q 380 739 349 739 q 433 717 411 739 q 454 665 454 695 z "},"(":{"ha":760,"x_min":115,"x_max":454,"o":"m 454 854 q 433 802 454 823 q 380 780 411 780 q 327 802 349 780 q 305 854 305 823 q 327 907 305 885 q 380 929 349 929 q 433 907 411 929 q 454 854 454 885 m 264 665 q 243 612 264 633 q 190 590 221 590 q 137 612 159 590 q 115 665 115 633 q 137 717 115 695 q 190 739 159 739 q 243 717 221 739 q 264 665 264 695 m 264 475 q 243 422 264 444 q 190 400 221 400 q 137 422 159 400 q 115 475 115 444 q 137 527 115 505 q 190 549 159 549 q 243 527 221 549 q 264 475 264 505 m 264 285 q 243 232 264 254 q 190 210 221 210 q 137 232 159 210 q 115 285 115 254 q 137 337 115 315 q 190 359 159 359 q 243 337 221 359 q 264 285 264 315 m 454 95 q 433 42 454 64 q 380 20 411 20 q 327 42 349 20 q 305 95 305 64 q 327 148 305 125 q 380 170 349 170 q 433 148 411 170 q 454 95 454 125 z "},")":{"ha":760,"x_min":305,"x_max":644,"o":"m 454 854 q 433 802 454 823 q 380 780 411 780 q 327 802 349 780 q 305 854 305 823 q 327 907 305 885 q 380 929 349 929 q 433 907 411 929 q 454 854 454 885 m 644 665 q 623 612 644 633 q 570 590 601 590 q 517 612 539 590 q 495 665 495 633 q 517 717 495 695 q 570 739 539 739 q 623 717 601 739 q 644 665 644 695 m 644 475 q 623 422 644 444 q 570 400 601 400 q 517 422 539 400 q 495 475 495 444 q 517 527 495 505 q 570 549 539 549 q 623 527 601 549 q 644 475 644 505 m 644 285 q 623 232 644 254 q 570 210 601 210 q 517 232 539 210 q 495 285 495 254 q 517 337 495 315 q 570 359 539 359 q 623 337 601 359 q 644 285 644 315 m 454 95 q 433 42 454 64 q 380 20 411 20 q 327 42 349 20 q 305 95 305 64 q 327 148 305 125 q 380 170 349 170 q 433 148 411 170 q 454 95 454 125 z "},"*":{"ha":760,"x_min":115,"x_max":644,"o":"m 454 854 q 433 802 454 823 q 380 780 411 780 q 327 802 349 780 q 305 854 305 823 q 327 907 305 885 q 380 929 349 929 q 433 907 411 929 q 454 854 454 885 m 264 665 q 243 612 264 633 q 190 590 221 590 q 137 612 159 590 q 115 665 115 633 q 137 717 115 695 q 190 739 159 739 q 243 717 221 739 q 264 665 264 695 m 644 665 q 623 612 644 633 q 570 590 601 590 q 517 612 539 590 q 495 665 495 633 q 517 717 495 695 q 570 739 539 739 q 623 717 601 739 q 644 665 644 695 m 454 475 q 433 422 454 444 q 380 400 411 400 q 327 422 349 400 q 305 475 305 444 q 327 527 305 505 q 380 549 349 549 q 433 527 411 549 q 454 475 454 505 z "},"+":{"ha":760,"x_min":115,"x_max":644,"o":"m 454 665 q 433 612 454 633 q 380 590 411 590 q 327 612 349 590 q 305 665 305 633 q 327 717 305 695 q 380 739 349 739 q 433 717 411 739 q 454 665 454 695 m 264 475 q 243 422 264 444 q 190 400 221 400 q 137 422 159 400 q 115 475 115 444 q 137 527 115 505 q 190 549 159 549 q 243 527 221 549 q 264 475 264 505 m 454 475 q 433 422 454 444 q 380 400 411 400 q 327 422 349 400 q 305 475 305 444 q 327 527 305 505 q 380 549 349 549 q 433 527 411 549 q 454 475 454 505 m 644 475 q 623 422 644 444 q 570 400 601 400 q 517 422 539 400 q 495 475 495 444 q 517 527 495 505 q 570 549 539 549 q 623 527 601 549 q 644 475 644 505 m 454 285 q 433 232 454 254 q 380 210 411 210 q 327 232 349 210 q 305 285 305 254 q 327 337 305 315 q 380 359 349 359 q 433 337 411 359 q 454 285 454 315 z "},",":{"ha":760,"x_min":305,"x_max":454,"o":"m 454 285 q 433 232 454 254 q 380 210 411 210 q 327 232 349 210 q 305 285 305 254 q 327 337 305 315 q 380 359 349 359 q 433 337 411 359 q 454 285 454 315 m 454 95 q 433 42 454 64 q 380 20 411 20 q 327 42 349 20 q 305 95 305 64 q 327 148 305 125 q 380 170 349 170 q 433 148 411 170 q 454 95 454 125 z "},"-":{"ha":760,"x_min":115,"x_max":644,"o":"m 264 475 q 243 422 264 444 q 190 400 221 400 q 137 422 159 400 q 115 475 115 444 q 137 527 115 505 q 190 549 159 549 q 243 527 221 549 q 264 475 264 505 m 454 475 q 433 422 454 444 q 380 400 411 400 q 327 422 349 400 q 305 475 305 444 q 327 527 305 505 q 380 549 349 549 q 433 527 411 549 q 454 475 454 505 m 644 475 q 623 422 644 444 q 570 400 601 400 q 517 422 539 400 q 495 475 495 444 q 517 527 495 505 q 570 549 539 549 q 623 527 601 549 q 644 475 644 505 z "},"­":{"ha":760,"x_min":115,"x_max":644,"o":"m 264 475 q 243 422 264 444 q 190 400 221 400 q 137 422 159 400 q 115 475 115 444 q 137 527 115 505 q 190 549 159 549 q 243 527 221 549 q 264 475 264 505 m 454 475 q 433 422 454 444 q 380 400 411 400 q 327 422 349 400 q 305 475 305 444 q 327 527 305 505 q 380 549 349 549 q 433 527 411 549 q 454 475 454 505 m 644 475 q 623 422 644 444 q 570 400 601 400 q 517 422 539 400 q 495 475 495 444 q 517 527 495 505 q 570 549 539 549 q 623 527 601 549 q 644 475 644 505 z "},".":{"ha":760,"x_min":305,"x_max":454,"o":"m 454 95 q 433 42 454 64 q 380 20 411 20 q 327 42 349 20 q 305 95 305 64 q 327 148 305 125 q 380 170 349 170 q 433 148 411 170 q 454 95 454 125 z "},"/":{"ha":760,"x_min":115,"x_max":644,"o":"m 644 854 q 623 802 644 823 q 570 780 601 780 q 517 802 539 780 q 495 854 495 823 q 517 907 495 885 q 570 929 539 929 q 623 907 601 929 q 644 854 644 885 m 644 665 q 623 612 644 633 q 570 590 601 590 q 517 612 539 590 q 495 665 495 633 q 517 717 495 695 q 570 739 539 739 q 623 717 601 739 q 644 665 644 695 m 454 475 q 433 422 454 444 q 380 400 411 400 q 327 422 349 400 q 305 475 305 444 q 327 527 305 505 q 380 549 349 549 q 433 527 411 549 q 454 475 454 505 m 264 285 q 243 232 264 254 q 190 210 221 210 q 137 232 159 210 q 115 285 115 254 q 137 337 115 315 q 190 359 159 359 q 243 337 221 359 q 264 285 264 315 m 264 95 q 243 42 264 64 q 190 20 221 20 q 137 42 159 20 q 115 95 115 64 q 137 148 115 125 q 190 170 159 170 q 243 148 221 170 q 264 95 264 125 z "},":":{"ha":760,"x_min":305,"x_max":454,"o":"m 454 665 q 433 612 454 633 q 380 590 411 590 q 327 612 349 590 q 305 665 305 633 q 327 717 305 695 q 380 739 349 739 q 433 717 411 739 q 454 665 454 695 m 454 285 q 433 232 454 254 q 380 210 411 210 q 327 232 349 210 q 305 285 305 254 q 327 337 305 315 q 380 359 349 359 q 433 337 411 359 q 454 285 454 315 z "},";":{"ha":760,"x_min":305,"x_max":454,"o":"m 454 665 q 433 612 454 633 q 380 590 411 590 q 327 612 349 590 q 305 665 305 633 q 327 717 305 695 q 380 739 349 739 q 433 717 411 739 q 454 665 454 695 m 454 285 q 433 232 454 254 q 380 210 411 210 q 327 232 349 210 q 305 285 305 254 q 327 337 305 315 q 380 359 349 359 q 433 337 411 359 q 454 285 454 315 m 454 95 q 433 42 454 64 q 380 20 411 20 q 327 42 349 20 q 305 95 305 64 q 327 148 305 125 q 380 170 349 170 q 433 148 411 170 q 454 95 454 125 z "},"<":{"ha":760,"x_min":115,"x_max":644,"o":"m 644 854 q 623 802 644 823 q 570 780 601 780 q 517 802 539 780 q 495 854 495 823 q 517 907 495 885 q 570 929 539 929 q 623 907 601 929 q 644 854 644 885 m 454 665 q 433 612 454 633 q 380 590 411 590 q 327 612 349 590 q 305 665 305 633 q 327 717 305 695 q 380 739 349 739 q 433 717 411 739 q 454 665 454 695 m 264 475 q 243 422 264 444 q 190 400 221 400 q 137 422 159 400 q 115 475 115 444 q 137 527 115 505 q 190 549 159 549 q 243 527 221 549 q 264 475 264 505 m 454 285 q 433 232 454 254 q 380 210 411 210 q 327 232 349 210 q 305 285 305 254 q 327 337 305 315 q 380 359 349 359 q 433 337 411 359 q 454 285 454 315 m 644 95 q 623 42 644 64 q 570 20 601 20 q 517 42 539 20 q 495 95 495 64 q 517 148 495 125 q 570 170 539 170 q 623 148 601 170 q 644 95 644 125 z "},"=":{"ha":760,"x_min":115,"x_max":644,"o":"m 264 665 q 243 612 264 633 q 190 590 221 590 q 137 612 159 590 q 115 665 115 633 q 137 717 115 695 q 190 739 159 739 q 243 717 221 739 q 264 665 264 695 m 454 665 q 433 612 454 633 q 380 590 411 590 q 327 612 349 590 q 305 665 305 633 q 327 717 305 695 q 380 739 349 739 q 433 717 411 739 q 454 665 454 695 m 644 665 q 623 612 644 633 q 570 590 601 590 q 517 612 539 590 q 495 665 495 633 q 517 717 495 695 q 570 739 539 739 q 623 717 601 739 q 644 665 644 695 m 264 285 q 243 232 264 254 q 190 210 221 210 q 137 232 159 210 q 115 285 115 254 q 137 337 115 315 q 190 359 159 359 q 243 337 221 359 q 264 285 264 315 m 454 285 q 433 232 454 254 q 380 210 411 210 q 327 232 349 210 q 305 285 305 254 q 327 337 305 315 q 380 359 349 359 q 433 337 411 359 q 454 285 454 315 m 644 285 q 623 232 644 254 q 570 210 601 210 q 517 232 539 210 q 495 285 495 254 q 517 337 495 315 q 570 359 539 359 q 623 337 601 359 q 644 285 644 315 z "},">":{"ha":760,"x_min":115,"x_max":644,"o":"m 115 854 q 137 907 115 885 q 190 929 159 929 q 243 907 221 929 q 264 854 264 885 q 243 802 264 823 q 190 780 221 780 q 137 802 159 780 q 115 854 115 823 m 305 665 q 327 717 305 695 q 380 739 349 739 q 433 717 411 739 q 454 665 454 695 q 433 612 454 633 q 380 590 411 590 q 327 612 349 590 q 305 665 305 633 m 495 475 q 517 527 495 505 q 570 549 539 549 q 623 527 601 549 q 644 475 644 505 q 623 422 644 444 q 570 400 601 400 q 517 422 539 400 q 495 475 495 444 m 305 285 q 327 337 305 315 q 380 359 349 359 q 433 337 411 359 q 454 285 454 315 q 433 232 454 254 q 380 210 411 210 q 327 232 349 210 q 305 285 305 254 m 115 95 q 137 148 115 125 q 190 170 159 170 q 243 148 221 170 q 264 95 264 125 q 243 42 264 64 q 190 20 221 20 q 137 42 159 20 q 115 95 115 64 z "},"?":{"ha":760,"x_min":115,"x_max":644,"o":"m 264 854 q 243 802 264 823 q 190 780 221 780 q 137 802 159 780 q 115 854 115 823 q 137 907 115 885 q 190 929 159 929 q 243 907 221 929 q 264 854 264 885 m 454 854 q 433 802 454 823 q 380 780 411 780 q 327 802 349 780 q 305 854 305 823 q 327 907 305 885 q 380 929 349 929 q 433 907 411 929 q 454 854 454 885 m 644 854 q 623 802 644 823 q 570 780 601 780 q 517 802 539 780 q 495 854 495 823 q 517 907 495 885 q 570 929 539 929 q 623 907 601 929 q 644 854 644 885 m 644 665 q 623 612 644 633 q 570 590 601 590 q 517 612 539 590 q 495 665 495 633 q 517 717 495 695 q 570 739 539 739 q 623 717 601 739 q 644 665 644 695 m 454 475 q 433 422 454 444 q 380 400 411 400 q 327 422 349 400 q 305 475 305 444 q 327 527 305 505 q 380 549 349 549 q 433 527 411 549 q 454 475 454 505 m 454 95 q 433 42 454 64 q 380 20 411 20 q 327 42 349 20 q 305 95 305 64 q 327 148 305 125 q 380 170 349 170 q 433 148 411 170 q 454 95 454 125 z "},"@":{"ha":760,"x_min":115,"x_max":644,"o":"m 264 854 q 243 802 264 823 q 190 780 221 780 q 137 802 159 780 q 115 854 115 823 q 137 907 115 885 q 190 929 159 929 q 243 907 221 929 q 264 854 264 885 m 454 854 q 433 802 454 823 q 380 780 411 780 q 327 802 349 780 q 305 854 305 823 q 327 907 305 885 q 380 929 349 929 q 433 907 411 929 q 454 854 454 885 m 644 854 q 623 802 644 823 q 570 780 601 780 q 517 802 539 780 q 495 854 495 823 q 517 907 495 885 q 570 929 539 929 q 623 907 601 929 q 644 854 644 885 m 264 665 q 243 612 264 633 q 190 590 221 590 q 137 612 159 590 q 115 665 115 633 q 137 717 115 695 q 190 739 159 739 q 243 717 221 739 q 264 665 264 695 m 644 665 q 623 612 644 633 q 570 590 601 590 q 517 612 539 590 q 495 665 495 633 q 517 717 495 695 q 570 739 539 739 q 623 717 601 739 q 644 665 644 695 m 264 475 q 243 422 264 444 q 190 400 221 400 q 137 422 159 400 q 115 475 115 444 q 137 527 115 505 q 190 549 159 549 q 243 527 221 549 q 264 475 264 505 m 644 475 q 623 422 644 444 q 570 400 601 400 q 517 422 539 400 q 495 475 495 444 q 517 527 495 505 q 570 549 539 549 q 623 527 601 549 q 644 475 644 505 m 264 285 q 243 232 264 254 q 190 210 221 210 q 137 232 159 210 q 115 285 115 254 q 137 337 115 315 q 190 359 159 359 q 243 337 221 359 q 264 285 264 315 m 264 95 q 243 42 264 64 q 190 20 221 20 q 137 42 159 20 q 115 95 115 64 q 137 148 115 125 q 190 170 159 170 q 243 148 221 170 q 264 95 264 125 m 454 95 q 433 42 454 64 q 380 20 411 20 q 327 42 349 20 q 305 95 305 64 q 327 148 305 125 q 380 170 349 170 q 433 148 411 170 q 454 95 454 125 m 644 95 q 623 42 644 64 q 570 20 601 20 q 517 42 539 20 q 495 95 495 64 q 517 148 495 125 q 570 170 539 170 q 623 148 601 170 q 644 95 644 125 z "},"A":{"ha":760,"x_min":115,"x_max":644,"o":"m 454 854 q 433 802 454 823 q 380 780 411 780 q 327 802 349 780 q 305 854 305 823 q 327 907 305 885 q 380 929 349 929 q 433 907 411 929 q 454 854 454 885 m 264 665 q 243 612 264 633 q 190 590 221 590 q 137 612 159 590 q 115 665 115 633 q 137 717 115 695 q 190 739 159 739 q 243 717 221 739 q 264 665 264 695 m 644 665 q 623 612 644 633 q 570 590 601 590 q 517 612 539 590 q 495 665 495 633 q 517 717 495 695 q 570 739 539 739 q 623 717 601 739 q 644 665 644 695 m 264 475 q 243 422 264 444 q 190 400 221 400 q 137 422 159 400 q 115 475 115 444 q 137 527 115 505 q 190 549 159 549 q 243 527 221 549 q 264 475 264 505 m 454 475 q 433 422 454 444 q 380 400 411 400 q 327 422 349 400 q 305 475 305 444 q 327 527 305 505 q 380 549 349 549 q 433 527 411 549 q 454 475 454 505 m 644 475 q 623 422 644 444 q 570 400 601 400 q 517 422 539 400 q 495 475 495 444 q 517 527 495 505 q 570 549 539 549 q 623 527 601 549 q 644 475 644 505 m 264 285 q 243 232 264 254 q 190 210 221 210 q 137 232 159 210 q 115 285 115 254 q 137 337 115 315 q 190 359 159 359 q 243 337 221 359 q 264 285 264 315 m 644 285 q 623 232 644 254 q 570 210 601 210 q 517 232 539 210 q 495 285 495 254 q 517 337 495 315 q 570 359 539 359 q 623 337 601 359 q 644 285 644 315 m 264 95 q 243 42 264 64 q 190 20 221 20 q 137 42 159 20 q 115 95 115 64 q 137 148 115 125 q 190 170 159 170 q 243 148 221 170 q 264 95 264 125 m 644 95 q 623 42 644 64 q 570 20 601 20 q 517 42 539 20 q 495 95 495 64 q 517 148 495 125 q 570 170 539 170 q 623 148 601 170 q 644 95 644 125 z "},"B":{"ha":760,"x_min":115,"x_max":644,"o":"m 264 854 q 243 802 264 823 q 190 780 221 780 q 137 802 159 780 q 115 854 115 823 q 137 907 115 885 q 190 929 159 929 q 243 907 221 929 q 264 854 264 885 m 454 854 q 433 802 454 823 q 380 780 411 780 q 327 802 349 780 q 305 854 305 823 q 327 907 305 885 q 380 929 349 929 q 433 907 411 929 q 454 854 454 885 m 264 665 q 243 612 264 633 q 190 590 221 590 q 137 612 159 590 q 115 665 115 633 q 137 717 115 695 q 190 739 159 739 q 243 717 221 739 q 264 665 264 695 m 644 665 q 623 612 644 633 q 570 590 601 590 q 517 612 539 590 q 495 665 495 633 q 517 717 495 695 q 570 739 539 739 q 623 717 601 739 q 644 665 644 695 m 264 475 q 243 422 264 444 q 190 400 221 400 q 137 422 159 400 q 115 475 115 444 q 137 527 115 505 q 190 549 159 549 q 243 527 221 549 q 264 475 264 505 m 454 475 q 433 422 454 444 q 380 400 411 400 q 327 422 349 400 q 305 475 305 444 q 327 527 305 505 q 380 549 349 549 q 433 527 411 549 q 454 475 454 505 m 264 285 q 243 232 264 254 q 190 210 221 210 q 137 232 159 210 q 115 285 115 254 q 137 337 115 315 q 190 359 159 359 q 243 337 221 359 q 264 285 264 315 m 644 285 q 623 232 644 254 q 570 210 601 210 q 517 232 539 210 q 495 285 495 254 q 517 337 495 315 q 570 359 539 359 q 623 337 601 359 q 644 285 644 315 m 264 95 q 243 42 264 64 q 190 20 221 20 q 137 42 159 20 q 115 95 115 64 q 137 148 115 125 q 190 170 159 170 q 243 148 221 170 q 264 95 264 125 m 454 95 q 433 42 454 64 q 380 20 411 20 q 327 42 349 20 q 305 95 305 64 q 327 148 305 125 q 380 170 349 170 q 433 148 411 170 q 454 95 454 125 z "},"C":{"ha":760,"x_min":115,"x_max":644,"o":"m 454 854 q 433 802 454 823 q 380 780 411 780 q 327 802 349 780 q 305 854 305 823 q 327 907 305 885 q 380 929 349 929 q 433 907 411 929 q 454 854 454 885 m 644 854 q 623 802 644 823 q 570 780 601 780 q 517 802 539 780 q 495 854 495 823 q 517 907 495 885 q 570 929 539 929 q 623 907 601 929 q 644 854 644 885 m 264 665 q 243 612 264 633 q 190 590 221 590 q 137 612 159 590 q 115 665 115 633 q 137 717 115 695 q 190 739 159 739 q 243 717 221 739 q 264 665 264 695 m 264 475 q 243 422 264 444 q 190 400 221 400 q 137 422 159 400 q 115 475 115 444 q 137 527 115 505 q 190 549 159 549 q 243 527 221 549 q 264 475 264 505 m 264 285 q 243 232 264 254 q 190 210 221 210 q 137 232 159 210 q 115 285 115 254 q 137 337 115 315 q 190 359 159 359 q 243 337 221 359 q 264 285 264 315 m 454 95 q 433 42 454 64 q 380 20 411 20 q 327 42 349 20 q 305 95 305 64 q 327 148 305 125 q 380 170 349 170 q 433 148 411 170 q 454 95 454 125 m 644 95 q 623 42 644 64 q 570 20 601 20 q 517 42 539 20 q 495 95 495 64 q 517 148 495 125 q 570 170 539 170 q 623 148 601 170 q 644 95 644 125 z "},"D":{"ha":760,"x_min":115,"x_max":644,"o":"m 264 854 q 243 802 264 823 q 190 780 221 780 q 137 802 159 780 q 115 854 115 823 q 137 907 115 885 q 190 929 159 929 q 243 907 221 929 q 264 854 264 885 m 454 854 q 433 802 454 823 q 380 780 411 780 q 327 802 349 780 q 305 854 305 823 q 327 907 305 885 q 380 929 349 929 q 433 907 411 929 q 454 854 454 885 m 264 665 q 243 612 264 633 q 190 590 221 590 q 137 612 159 590 q 115 665 115 633 q 137 717 115 695 q 190 739 159 739 q 243 717 221 739 q 264 665 264 695 m 644 665 q 623 612 644 633 q 570 590 601 590 q 517 612 539 590 q 495 665 495 633 q 517 717 495 695 q 570 739 539 739 q 623 717 601 739 q 644 665 644 695 m 264 475 q 243 422 264 444 q 190 400 221 400 q 137 422 159 400 q 115 475 115 444 q 137 527 115 505 q 190 549 159 549 q 243 527 221 549 q 264 475 264 505 m 644 475 q 623 422 644 444 q 570 400 601 400 q 517 422 539 400 q 495 475 495 444 q 517 527 495 505 q 570 549 539 549 q 623 527 601 549 q 644 475 644 505 m 264 285 q 243 232 264 254 q 190 210 221 210 q 137 232 159 210 q 115 285 115 254 q 137 337 115 315 q 190 359 159 359 q 243 337 221 359 q 264 285 264 315 m 644 285 q 623 232 644 254 q 570 210 601 210 q 517 232 539 210 q 495 285 495 254 q 517 337 495 315 q 570 359 539 359 q 623 337 601 359 q 644 285 644 315 m 264 95 q 243 42 264 64 q 190 20 221 20 q 137 42 159 20 q 115 95 115 64 q 137 148 115 125 q 190 170 159 170 q 243 148 221 170 q 264 95 264 125 m 454 95 q 433 42 454 64 q 380 20 411 20 q 327 42 349 20 q 305 95 305 64 q 327 148 305 125 q 380 170 349 170 q 433 148 411 170 q 454 95 454 125 z "},"E":{"ha":760,"x_min":115,"x_max":644,"o":"m 264 854 q 243 802 264 823 q 190 780 221 780 q 137 802 159 780 q 115 854 115 823 q 137 907 115 885 q 190 929 159 929 q 243 907 221 929 q 264 854 264 885 m 454 854 q 433 802 454 823 q 380 780 411 780 q 327 802 349 780 q 305 854 305 823 q 327 907 305 885 q 380 929 349 929 q 433 907 411 929 q 454 854 454 885 m 644 854 q 623 802 644 823 q 570 780 601 780 q 517 802 539 780 q 495 854 495 823 q 517 907 495 885 q 570 929 539 929 q 623 907 601 929 q 644 854 644 885 m 264 665 q 243 612 264 633 q 190 590 221 590 q 137 612 159 590 q 115 665 115 633 q 137 717 115 695 q 190 739 159 739 q 243 717 221 739 q 264 665 264 695 m 264 475 q 243 422 264 444 q 190 400 221 400 q 137 422 159 400 q 115 475 115 444 q 137 527 115 505 q 190 549 159 549 q 243 527 221 549 q 264 475 264 505 m 454 475 q 433 422 454 444 q 380 400 411 400 q 327 422 349 400 q 305 475 305 444 q 327 527 305 505 q 380 549 349 549 q 433 527 411 549 q 454 475 454 505 m 644 475 q 623 422 644 444 q 570 400 601 400 q 517 422 539 400 q 495 475 495 444 q 517 527 495 505 q 570 549 539 549 q 623 527 601 549 q 644 475 644 505 m 264 285 q 243 232 264 254 q 190 210 221 210 q 137 232 159 210 q 115 285 115 254 q 137 337 115 315 q 190 359 159 359 q 243 337 221 359 q 264 285 264 315 m 264 95 q 243 42 264 64 q 190 20 221 20 q 137 42 159 20 q 115 95 115 64 q 137 148 115 125 q 190 170 159 170 q 243 148 221 170 q 264 95 264 125 m 454 95 q 433 42 454 64 q 380 20 411 20 q 327 42 349 20 q 305 95 305 64 q 327 148 305 125 q 380 170 349 170 q 433 148 411 170 q 454 95 454 125 m 644 95 q 623 42 644 64 q 570 20 601 20 q 517 42 539 20 q 495 95 495 64 q 517 148 495 125 q 570 170 539 170 q 623 148 601 170 q 644 95 644 125 z "},"F":{"ha":760,"x_min":115,"x_max":644,"o":"m 264 854 q 243 802 264 823 q 190 780 221 780 q 137 802 159 780 q 115 854 115 823 q 137 907 115 885 q 190 929 159 929 q 243 907 221 929 q 264 854 264 885 m 454 854 q 433 802 454 823 q 380 780 411 780 q 327 802 349 780 q 305 854 305 823 q 327 907 305 885 q 380 929 349 929 q 433 907 411 929 q 454 854 454 885 m 644 854 q 623 802 644 823 q 570 780 601 780 q 517 802 539 780 q 495 854 495 823 q 517 907 495 885 q 570 929 539 929 q 623 907 601 929 q 644 854 644 885 m 264 665 q 243 612 264 633 q 190 590 221 590 q 137 612 159 590 q 115 665 115 633 q 137 717 115 695 q 190 739 159 739 q 243 717 221 739 q 264 665 264 695 m 264 475 q 243 422 264 444 q 190 400 221 400 q 137 422 159 400 q 115 475 115 444 q 137 527 115 505 q 190 549 159 549 q 243 527 221 549 q 264 475 264 505 m 454 475 q 433 422 454 444 q 380 400 411 400 q 327 422 349 400 q 305 475 305 444 q 327 527 305 505 q 380 549 349 549 q 433 527 411 549 q 454 475 454 505 m 644 475 q 623 422 644 444 q 570 400 601 400 q 517 422 539 400 q 495 475 495 444 q 517 527 495 505 q 570 549 539 549 q 623 527 601 549 q 644 475 644 505 m 264 285 q 243 232 264 254 q 190 210 221 210 q 137 232 159 210 q 115 285 115 254 q 137 337 115 315 q 190 359 159 359 q 243 337 221 359 q 264 285 264 315 m 264 95 q 243 42 264 64 q 190 20 221 20 q 137 42 159 20 q 115 95 115 64 q 137 148 115 125 q 190 170 159 170 q 243 148 221 170 q 264 95 264 125 z "},"G":{"ha":760,"x_min":115,"x_max":644,"o":"m 454 854 q 433 802 454 823 q 380 780 411 780 q 327 802 349 780 q 305 854 305 823 q 327 907 305 885 q 380 929 349 929 q 433 907 411 929 q 454 854 454 885 m 644 854 q 623 802 644 823 q 570 780 601 780 q 517 802 539 780 q 495 854 495 823 q 517 907 495 885 q 570 929 539 929 q 623 907 601 929 q 644 854 644 885 m 264 665 q 243 612 264 633 q 190 590 221 590 q 137 612 159 590 q 115 665 115 633 q 137 717 115 695 q 190 739 159 739 q 243 717 221 739 q 264 665 264 695 m 264 475 q 243 422 264 444 q 190 400 221 400 q 137 422 159 400 q 115 475 115 444 q 137 527 115 505 q 190 549 159 549 q 243 527 221 549 q 264 475 264 505 m 644 475 q 623 422 644 444 q 570 400 601 400 q 517 422 539 400 q 495 475 495 444 q 517 527 495 505 q 570 549 539 549 q 623 527 601 549 q 644 475 644 505 m 264 285 q 243 232 264 254 q 190 210 221 210 q 137 232 159 210 q 115 285 115 254 q 137 337 115 315 q 190 359 159 359 q 243 337 221 359 q 264 285 264 315 m 644 285 q 623 232 644 254 q 570 210 601 210 q 517 232 539 210 q 495 285 495 254 q 517 337 495 315 q 570 359 539 359 q 623 337 601 359 q 644 285 644 315 m 454 95 q 433 42 454 64 q 380 20 411 20 q 327 42 349 20 q 305 95 305 64 q 327 148 305 125 q 380 170 349 170 q 433 148 411 170 q 454 95 454 125 m 644 95 q 623 42 644 64 q 570 20 601 20 q 517 42 539 20 q 495 95 495 64 q 517 148 495 125 q 570 170 539 170 q 623 148 601 170 q 644 95 644 125 z "},"H":{"ha":760,"x_min":115,"x_max":644,"o":"m 264 854 q 243 802 264 823 q 190 780 221 780 q 137 802 159 780 q 115 854 115 823 q 137 907 115 885 q 190 929 159 929 q 243 907 221 929 q 264 854 264 885 m 644 854 q 623 802 644 823 q 570 780 601 780 q 517 802 539 780 q 495 854 495 823 q 517 907 495 885 q 570 929 539 929 q 623 907 601 929 q 644 854 644 885 m 264 665 q 243 612 264 633 q 190 590 221 590 q 137 612 159 590 q 115 665 115 633 q 137 717 115 695 q 190 739 159 739 q 243 717 221 739 q 264 665 264 695 m 644 665 q 623 612 644 633 q 570 590 601 590 q 517 612 539 590 q 495 665 495 633 q 517 717 495 695 q 570 739 539 739 q 623 717 601 739 q 644 665 644 695 m 264 475 q 243 422 264 444 q 190 400 221 400 q 137 422 159 400 q 115 475 115 444 q 137 527 115 505 q 190 549 159 549 q 243 527 221 549 q 264 475 264 505 m 454 475 q 433 422 454 444 q 380 400 411 400 q 327 422 349 400 q 305 475 305 444 q 327 527 305 505 q 380 549 349 549 q 433 527 411 549 q 454 475 454 505 m 644 475 q 623 422 644 444 q 570 400 601 400 q 517 422 539 400 q 495 475 495 444 q 517 527 495 505 q 570 549 539 549 q 623 527 601 549 q 644 475 644 505 m 264 285 q 243 232 264 254 q 190 210 221 210 q 137 232 159 210 q 115 285 115 254 q 137 337 115 315 q 190 359 159 359 q 243 337 221 359 q 264 285 264 315 m 644 285 q 623 232 644 254 q 570 210 601 210 q 517 232 539 210 q 495 285 495 254 q 517 337 495 315 q 570 359 539 359 q 623 337 601 359 q 644 285 644 315 m 264 95 q 243 42 264 64 q 190 20 221 20 q 137 42 159 20 q 115 95 115 64 q 137 148 115 125 q 190 170 159 170 q 243 148 221 170 q 264 95 264 125 m 644 95 q 623 42 644 64 q 570 20 601 20 q 517 42 539 20 q 495 95 495 64 q 517 148 495 125 q 570 170 539 170 q 623 148 601 170 q 644 95 644 125 z "},"I":{"ha":760,"x_min":115,"x_max":644,"o":"m 264 854 q 243 802 264 823 q 190 780 221 780 q 137 802 159 780 q 115 854 115 823 q 137 907 115 885 q 190 929 159 929 q 243 907 221 929 q 264 854 264 885 m 454 854 q 433 802 454 823 q 380 780 411 780 q 327 802 349 780 q 305 854 305 823 q 327 907 305 885 q 380 929 349 929 q 433 907 411 929 q 454 854 454 885 m 644 854 q 623 802 644 823 q 570 780 601 780 q 517 802 539 780 q 495 854 495 823 q 517 907 495 885 q 570 929 539 929 q 623 907 601 929 q 644 854 644 885 m 454 665 q 433 612 454 633 q 380 590 411 590 q 327 612 349 590 q 305 665 305 633 q 327 717 305 695 q 380 739 349 739 q 433 717 411 739 q 454 665 454 695 m 454 475 q 433 422 454 444 q 380 400 411 400 q 327 422 349 400 q 305 475 305 444 q 327 527 305 505 q 380 549 349 549 q 433 527 411 549 q 454 475 454 505 m 454 285 q 433 232 454 254 q 380 210 411 210 q 327 232 349 210 q 305 285 305 254 q 327 337 305 315 q 380 359 349 359 q 433 337 411 359 q 454 285 454 315 m 264 95 q 243 42 264 64 q 190 20 221 20 q 137 42 159 20 q 115 95 115 64 q 137 148 115 125 q 190 170 159 170 q 243 148 221 170 q 264 95 264 125 m 454 95 q 433 42 454 64 q 380 20 411 20 q 327 42 349 20 q 305 95 305 64 q 327 148 305 125 q 380 170 349 170 q 433 148 411 170 q 454 95 454 125 m 644 95 q 623 42 644 64 q 570 20 601 20 q 517 42 539 20 q 495 95 495 64 q 517 148 495 125 q 570 170 539 170 q 623 148 601 170 q 644 95 644 125 z "},"J":{"ha":760,"x_min":115,"x_max":644,"o":"m 454 854 q 433 802 454 823 q 380 780 411 780 q 327 802 349 780 q 305 854 305 823 q 327 907 305 885 q 380 929 349 929 q 433 907 411 929 q 454 854 454 885 m 644 854 q 623 802 644 823 q 570 780 601 780 q 517 802 539 780 q 495 854 495 823 q 517 907 495 885 q 570 929 539 929 q 623 907 601 929 q 644 854 644 885 m 644 665 q 623 612 644 633 q 570 590 601 590 q 517 612 539 590 q 495 665 495 633 q 517 717 495 695 q 570 739 539 739 q 623 717 601 739 q 644 665 644 695 m 644 475 q 623 422 644 444 q 570 400 601 400 q 517 422 539 400 q 495 475 495 444 q 517 527 495 505 q 570 549 539 549 q 623 527 601 549 q 644 475 644 505 m 264 285 q 243 232 264 254 q 190 210 221 210 q 137 232 159 210 q 115 285 115 254 q 137 337 115 315 q 190 359 159 359 q 243 337 221 359 q 264 285 264 315 m 644 285 q 623 232 644 254 q 570 210 601 210 q 517 232 539 210 q 495 285 495 254 q 517 337 495 315 q 570 359 539 359 q 623 337 601 359 q 644 285 644 315 m 454 95 q 433 42 454 64 q 380 20 411 20 q 327 42 349 20 q 305 95 305 64 q 327 148 305 125 q 380 170 349 170 q 433 148 411 170 q 454 95 454 125 z "},"K":{"ha":760,"x_min":115,"x_max":644,"o":"m 264 854 q 243 802 264 823 q 190 780 221 780 q 137 802 159 780 q 115 854 115 823 q 137 907 115 885 q 190 929 159 929 q 243 907 221 929 q 264 854 264 885 m 644 854 q 623 802 644 823 q 570 780 601 780 q 517 802 539 780 q 495 854 495 823 q 517 907 495 885 q 570 929 539 929 q 623 907 601 929 q 644 854 644 885 m 264 665 q 243 612 264 633 q 190 590 221 590 q 137 612 159 590 q 115 665 115 633 q 137 717 115 695 q 190 739 159 739 q 243 717 221 739 q 264 665 264 695 m 644 665 q 623 612 644 633 q 570 590 601 590 q 517 612 539 590 q 495 665 495 633 q 517 717 495 695 q 570 739 539 739 q 623 717 601 739 q 644 665 644 695 m 264 475 q 243 422 264 444 q 190 400 221 400 q 137 422 159 400 q 115 475 115 444 q 137 527 115 505 q 190 549 159 549 q 243 527 221 549 q 264 475 264 505 m 454 475 q 433 422 454 444 q 380 400 411 400 q 327 422 349 400 q 305 475 305 444 q 327 527 305 505 q 380 549 349 549 q 433 527 411 549 q 454 475 454 505 m 264 285 q 243 232 264 254 q 190 210 221 210 q 137 232 159 210 q 115 285 115 254 q 137 337 115 315 q 190 359 159 359 q 243 337 221 359 q 264 285 264 315 m 644 285 q 623 232 644 254 q 570 210 601 210 q 517 232 539 210 q 495 285 495 254 q 517 337 495 315 q 570 359 539 359 q 623 337 601 359 q 644 285 644 315 m 264 95 q 243 42 264 64 q 190 20 221 20 q 137 42 159 20 q 115 95 115 64 q 137 148 115 125 q 190 170 159 170 q 243 148 221 170 q 264 95 264 125 m 644 95 q 623 42 644 64 q 570 20 601 20 q 517 42 539 20 q 495 95 495 64 q 517 148 495 125 q 570 170 539 170 q 623 148 601 170 q 644 95 644 125 z "},"L":{"ha":760,"x_min":115,"x_max":644,"o":"m 264 854 q 243 802 264 823 q 190 780 221 780 q 137 802 159 780 q 115 854 115 823 q 137 907 115 885 q 190 929 159 929 q 243 907 221 929 q 264 854 264 885 m 264 665 q 243 612 264 633 q 190 590 221 590 q 137 612 159 590 q 115 665 115 633 q 137 717 115 695 q 190 739 159 739 q 243 717 221 739 q 264 665 264 695 m 264 475 q 243 422 264 444 q 190 400 221 400 q 137 422 159 400 q 115 475 115 444 q 137 527 115 505 q 190 549 159 549 q 243 527 221 549 q 264 475 264 505 m 264 285 q 243 232 264 254 q 190 210 221 210 q 137 232 159 210 q 115 285 115 254 q 137 337 115 315 q 190 359 159 359 q 243 337 221 359 q 264 285 264 315 m 264 95 q 243 42 264 64 q 190 20 221 20 q 137 42 159 20 q 115 95 115 64 q 137 148 115 125 q 190 170 159 170 q 243 148 221 170 q 264 95 264 125 m 454 95 q 433 42 454 64 q 380 20 411 20 q 327 42 349 20 q 305 95 305 64 q 327 148 305 125 q 380 170 349 170 q 433 148 411 170 q 454 95 454 125 m 644 95 q 623 42 644 64 q 570 20 601 20 q 517 42 539 20 q 495 95 495 64 q 517 148 495 125 q 570 170 539 170 q 623 148 601 170 q 644 95 644 125 z "},"M":{"ha":760,"x_min":115,"x_max":644,"o":"m 264 854 q 243 802 264 823 q 190 780 221 780 q 137 802 159 780 q 115 854 115 823 q 137 907 115 885 q 190 929 159 929 q 243 907 221 929 q 264 854 264 885 m 644 854 q 623 802 644 823 q 570 780 601 780 q 517 802 539 780 q 495 854 495 823 q 517 907 495 885 q 570 929 539 929 q 623 907 601 929 q 644 854 644 885 m 264 665 q 243 612 264 633 q 190 590 221 590 q 137 612 159 590 q 115 665 115 633 q 137 717 115 695 q 190 739 159 739 q 243 717 221 739 q 264 665 264 695 m 454 665 q 433 612 454 633 q 380 590 411 590 q 327 612 349 590 q 305 665 305 633 q 327 717 305 695 q 380 739 349 739 q 433 717 411 739 q 454 665 454 695 m 644 665 q 623 612 644 633 q 570 590 601 590 q 517 612 539 590 q 495 665 495 633 q 517 717 495 695 q 570 739 539 739 q 623 717 601 739 q 644 665 644 695 m 264 475 q 243 422 264 444 q 190 400 221 400 q 137 422 159 400 q 115 475 115 444 q 137 527 115 505 q 190 549 159 549 q 243 527 221 549 q 264 475 264 505 m 644 475 q 623 422 644 444 q 570 400 601 400 q 517 422 539 400 q 495 475 495 444 q 517 527 495 505 q 570 549 539 549 q 623 527 601 549 q 644 475 644 505 m 264 285 q 243 232 264 254 q 190 210 221 210 q 137 232 159 210 q 115 285 115 254 q 137 337 115 315 q 190 359 159 359 q 243 337 221 359 q 264 285 264 315 m 644 285 q 623 232 644 254 q 570 210 601 210 q 517 232 539 210 q 495 285 495 254 q 517 337 495 315 q 570 359 539 359 q 623 337 601 359 q 644 285 644 315 m 264 95 q 243 42 264 64 q 190 20 221 20 q 137 42 159 20 q 115 95 115 64 q 137 148 115 125 q 190 170 159 170 q 243 148 221 170 q 264 95 264 125 m 644 95 q 623 42 644 64 q 570 20 601 20 q 517 42 539 20 q 495 95 495 64 q 517 148 495 125 q 570 170 539 170 q 623 148 601 170 q 644 95 644 125 z "},"N":{"ha":760,"x_min":115,"x_max":644,"o":"m 264 854 q 243 802 264 823 q 190 780 221 780 q 137 802 159 780 q 115 854 115 823 q 137 907 115 885 q 190 929 159 929 q 243 907 221 929 q 264 854 264 885 m 454 854 q 433 802 454 823 q 380 780 411 780 q 327 802 349 780 q 305 854 305 823 q 327 907 305 885 q 380 929 349 929 q 433 907 411 929 q 454 854 454 885 m 264 665 q 243 612 264 633 q 190 590 221 590 q 137 612 159 590 q 115 665 115 633 q 137 717 115 695 q 190 739 159 739 q 243 717 221 739 q 264 665 264 695 m 644 665 q 623 612 644 633 q 570 590 601 590 q 517 612 539 590 q 495 665 495 633 q 517 717 495 695 q 570 739 539 739 q 623 717 601 739 q 644 665 644 695 m 264 475 q 243 422 264 444 q 190 400 221 400 q 137 422 159 400 q 115 475 115 444 q 137 527 115 505 q 190 549 159 549 q 243 527 221 549 q 264 475 264 505 m 644 475 q 623 422 644 444 q 570 400 601 400 q 517 422 539 400 q 495 475 495 444 q 517 527 495 505 q 570 549 539 549 q 623 527 601 549 q 644 475 644 505 m 264 285 q 243 232 264 254 q 190 210 221 210 q 137 232 159 210 q 115 285 115 254 q 137 337 115 315 q 190 359 159 359 q 243 337 221 359 q 264 285 264 315 m 644 285 q 623 232 644 254 q 570 210 601 210 q 517 232 539 210 q 495 285 495 254 q 517 337 495 315 q 570 359 539 359 q 623 337 601 359 q 644 285 644 315 m 264 95 q 243 42 264 64 q 190 20 221 20 q 137 42 159 20 q 115 95 115 64 q 137 148 115 125 q 190 170 159 170 q 243 148 221 170 q 264 95 264 125 m 644 95 q 623 42 644 64 q 570 20 601 20 q 517 42 539 20 q 495 95 495 64 q 517 148 495 125 q 570 170 539 170 q 623 148 601 170 q 644 95 644 125 z "},"O":{"ha":760,"x_min":115,"x_max":644,"o":"m 454 854 q 433 802 454 823 q 380 780 411 780 q 327 802 349 780 q 305 854 305 823 q 327 907 305 885 q 380 929 349 929 q 433 907 411 929 q 454 854 454 885 m 264 665 q 243 612 264 633 q 190 590 221 590 q 137 612 159 590 q 115 665 115 633 q 137 717 115 695 q 190 739 159 739 q 243 717 221 739 q 264 665 264 695 m 644 665 q 623 612 644 633 q 570 590 601 590 q 517 612 539 590 q 495 665 495 633 q 517 717 495 695 q 570 739 539 739 q 623 717 601 739 q 644 665 644 695 m 264 475 q 243 422 264 444 q 190 400 221 400 q 137 422 159 400 q 115 475 115 444 q 137 527 115 505 q 190 549 159 549 q 243 527 221 549 q 264 475 264 505 m 644 475 q 623 422 644 444 q 570 400 601 400 q 517 422 539 400 q 495 475 495 444 q 517 527 495 505 q 570 549 539 549 q 623 527 601 549 q 644 475 644 505 m 264 285 q 243 232 264 254 q 190 210 221 210 q 137 232 159 210 q 115 285 115 254 q 137 337 115 315 q 190 359 159 359 q 243 337 221 359 q 264 285 264 315 m 644 285 q 623 232 644 254 q 570 210 601 210 q 517 232 539 210 q 495 285 495 254 q 517 337 495 315 q 570 359 539 359 q 623 337 601 359 q 644 285 644 315 m 454 95 q 433 42 454 64 q 380 20 411 20 q 327 42 349 20 q 305 95 305 64 q 327 148 305 125 q 380 170 349 170 q 433 148 411 170 q 454 95 454 125 z "},"P":{"ha":760,"x_min":115,"x_max":644,"o":"m 264 854 q 243 802 264 823 q 190 780 221 780 q 137 802 159 780 q 115 854 115 823 q 137 907 115 885 q 190 929 159 929 q 243 907 221 929 q 264 854 264 885 m 454 854 q 433 802 454 823 q 380 780 411 780 q 327 802 349 780 q 305 854 305 823 q 327 907 305 885 q 380 929 349 929 q 433 907 411 929 q 454 854 454 885 m 264 665 q 243 612 264 633 q 190 590 221 590 q 137 612 159 590 q 115 665 115 633 q 137 717 115 695 q 190 739 159 739 q 243 717 221 739 q 264 665 264 695 m 644 665 q 623 612 644 633 q 570 590 601 590 q 517 612 539 590 q 495 665 495 633 q 517 717 495 695 q 570 739 539 739 q 623 717 601 739 q 644 665 644 695 m 264 475 q 243 422 264 444 q 190 400 221 400 q 137 422 159 400 q 115 475 115 444 q 137 527 115 505 q 190 549 159 549 q 243 527 221 549 q 264 475 264 505 m 454 475 q 433 422 454 444 q 380 400 411 400 q 327 422 349 400 q 305 475 305 444 q 327 527 305 505 q 380 549 349 549 q 433 527 411 549 q 454 475 454 505 m 264 285 q 243 232 264 254 q 190 210 221 210 q 137 232 159 210 q 115 285 115 254 q 137 337 115 315 q 190 359 159 359 q 243 337 221 359 q 264 285 264 315 m 264 95 q 243 42 264 64 q 190 20 221 20 q 137 42 159 20 q 115 95 115 64 q 137 148 115 125 q 190 170 159 170 q 243 148 221 170 q 264 95 264 125 z "},"Q":{"ha":760,"x_min":115,"x_max":644,"o":"m 454 854 q 433 802 454 823 q 380 780 411 780 q 327 802 349 780 q 305 854 305 823 q 327 907 305 885 q 380 929 349 929 q 433 907 411 929 q 454 854 454 885 m 264 665 q 243 612 264 633 q 190 590 221 590 q 137 612 159 590 q 115 665 115 633 q 137 717 115 695 q 190 739 159 739 q 243 717 221 739 q 264 665 264 695 m 644 665 q 623 612 644 633 q 570 590 601 590 q 517 612 539 590 q 495 665 495 633 q 517 717 495 695 q 570 739 539 739 q 623 717 601 739 q 644 665 644 695 m 264 475 q 243 422 264 444 q 190 400 221 400 q 137 422 159 400 q 115 475 115 444 q 137 527 115 505 q 190 549 159 549 q 243 527 221 549 q 264 475 264 505 m 644 475 q 623 422 644 444 q 570 400 601 400 q 517 422 539 400 q 495 475 495 444 q 517 527 495 505 q 570 549 539 549 q 623 527 601 549 q 644 475 644 505 m 264 285 q 243 232 264 254 q 190 210 221 210 q 137 232 159 210 q 115 285 115 254 q 137 337 115 315 q 190 359 159 359 q 243 337 221 359 q 264 285 264 315 m 454 285 q 433 232 454 254 q 380 210 411 210 q 327 232 349 210 q 305 285 305 254 q 327 337 305 315 q 380 359 349 359 q 433 337 411 359 q 454 285 454 315 m 644 285 q 623 232 644 254 q 570 210 601 210 q 517 232 539 210 q 495 285 495 254 q 517 337 495 315 q 570 359 539 359 q 623 337 601 359 q 644 285 644 315 m 454 95 q 433 42 454 64 q 380 20 411 20 q 327 42 349 20 q 305 95 305 64 q 327 148 305 125 q 380 170 349 170 q 433 148 411 170 q 454 95 454 125 m 644 95 q 623 42 644 64 q 570 20 601 20 q 517 42 539 20 q 495 95 495 64 q 517 148 495 125 q 570 170 539 170 q 623 148 601 170 q 644 95 644 125 z "},"R":{"ha":760,"x_min":115,"x_max":644,"o":"m 264 854 q 243 802 264 823 q 190 780 221 780 q 137 802 159 780 q 115 854 115 823 q 137 907 115 885 q 190 929 159 929 q 243 907 221 929 q 264 854 264 885 m 454 854 q 433 802 454 823 q 380 780 411 780 q 327 802 349 780 q 305 854 305 823 q 327 907 305 885 q 380 929 349 929 q 433 907 411 929 q 454 854 454 885 m 264 665 q 243 612 264 633 q 190 590 221 590 q 137 612 159 590 q 115 665 115 633 q 137 717 115 695 q 190 739 159 739 q 243 717 221 739 q 264 665 264 695 m 644 665 q 623 612 644 633 q 570 590 601 590 q 517 612 539 590 q 495 665 495 633 q 517 717 495 695 q 570 739 539 739 q 623 717 601 739 q 644 665 644 695 m 264 475 q 243 422 264 444 q 190 400 221 400 q 137 422 159 400 q 115 475 115 444 q 137 527 115 505 q 190 549 159 549 q 243 527 221 549 q 264 475 264 505 m 454 475 q 433 422 454 444 q 380 400 411 400 q 327 422 349 400 q 305 475 305 444 q 327 527 305 505 q 380 549 349 549 q 433 527 411 549 q 454 475 454 505 m 264 285 q 243 232 264 254 q 190 210 221 210 q 137 232 159 210 q 115 285 115 254 q 137 337 115 315 q 190 359 159 359 q 243 337 221 359 q 264 285 264 315 m 644 285 q 623 232 644 254 q 570 210 601 210 q 517 232 539 210 q 495 285 495 254 q 517 337 495 315 q 570 359 539 359 q 623 337 601 359 q 644 285 644 315 m 264 95 q 243 42 264 64 q 190 20 221 20 q 137 42 159 20 q 115 95 115 64 q 137 148 115 125 q 190 170 159 170 q 243 148 221 170 q 264 95 264 125 m 644 95 q 623 42 644 64 q 570 20 601 20 q 517 42 539 20 q 495 95 495 64 q 517 148 495 125 q 570 170 539 170 q 623 148 601 170 q 644 95 644 125 z "},"S":{"ha":760,"x_min":115,"x_max":644,"o":"m 454 854 q 433 802 454 823 q 380 780 411 780 q 327 802 349 780 q 305 854 305 823 q 327 907 305 885 q 380 929 349 929 q 433 907 411 929 q 454 854 454 885 m 644 854 q 623 802 644 823 q 570 780 601 780 q 517 802 539 780 q 495 854 495 823 q 517 907 495 885 q 570 929 539 929 q 623 907 601 929 q 644 854 644 885 m 264 665 q 243 612 264 633 q 190 590 221 590 q 137 612 159 590 q 115 665 115 633 q 137 717 115 695 q 190 739 159 739 q 243 717 221 739 q 264 665 264 695 m 264 475 q 243 422 264 444 q 190 400 221 400 q 137 422 159 400 q 115 475 115 444 q 137 527 115 505 q 190 549 159 549 q 243 527 221 549 q 264 475 264 505 m 454 475 q 433 422 454 444 q 380 400 411 400 q 327 422 349 400 q 305 475 305 444 q 327 527 305 505 q 380 549 349 549 q 433 527 411 549 q 454 475 454 505 m 644 475 q 623 422 644 444 q 570 400 601 400 q 517 422 539 400 q 495 475 495 444 q 517 527 495 505 q 570 549 539 549 q 623 527 601 549 q 644 475 644 505 m 644 285 q 623 232 644 254 q 570 210 601 210 q 517 232 539 210 q 495 285 495 254 q 517 337 495 315 q 570 359 539 359 q 623 337 601 359 q 644 285 644 315 m 264 95 q 243 42 264 64 q 190 20 221 20 q 137 42 159 20 q 115 95 115 64 q 137 148 115 125 q 190 170 159 170 q 243 148 221 170 q 264 95 264 125 m 454 95 q 433 42 454 64 q 380 20 411 20 q 327 42 349 20 q 305 95 305 64 q 327 148 305 125 q 380 170 349 170 q 433 148 411 170 q 454 95 454 125 z "},"T":{"ha":760,"x_min":115,"x_max":644,"o":"m 264 854 q 243 802 264 823 q 190 780 221 780 q 137 802 159 780 q 115 854 115 823 q 137 907 115 885 q 190 929 159 929 q 243 907 221 929 q 264 854 264 885 m 454 854 q 433 802 454 823 q 380 780 411 780 q 327 802 349 780 q 305 854 305 823 q 327 907 305 885 q 380 929 349 929 q 433 907 411 929 q 454 854 454 885 m 644 854 q 623 802 644 823 q 570 780 601 780 q 517 802 539 780 q 495 854 495 823 q 517 907 495 885 q 570 929 539 929 q 623 907 601 929 q 644 854 644 885 m 454 665 q 433 612 454 633 q 380 590 411 590 q 327 612 349 590 q 305 665 305 633 q 327 717 305 695 q 380 739 349 739 q 433 717 411 739 q 454 665 454 695 m 454 475 q 433 422 454 444 q 380 400 411 400 q 327 422 349 400 q 305 475 305 444 q 327 527 305 505 q 380 549 349 549 q 433 527 411 549 q 454 475 454 505 m 454 285 q 433 232 454 254 q 380 210 411 210 q 327 232 349 210 q 305 285 305 254 q 327 337 305 315 q 380 359 349 359 q 433 337 411 359 q 454 285 454 315 m 454 95 q 433 42 454 64 q 380 20 411 20 q 327 42 349 20 q 305 95 305 64 q 327 148 305 125 q 380 170 349 170 q 433 148 411 170 q 454 95 454 125 z "},"U":{"ha":760,"x_min":115,"x_max":644,"o":"m 264 854 q 243 802 264 823 q 190 780 221 780 q 137 802 159 780 q 115 854 115 823 q 137 907 115 885 q 190 929 159 929 q 243 907 221 929 q 264 854 264 885 m 644 854 q 623 802 644 823 q 570 780 601 780 q 517 802 539 780 q 495 854 495 823 q 517 907 495 885 q 570 929 539 929 q 623 907 601 929 q 644 854 644 885 m 264 665 q 243 612 264 633 q 190 590 221 590 q 137 612 159 590 q 115 665 115 633 q 137 717 115 695 q 190 739 159 739 q 243 717 221 739 q 264 665 264 695 m 644 665 q 623 612 644 633 q 570 590 601 590 q 517 612 539 590 q 495 665 495 633 q 517 717 495 695 q 570 739 539 739 q 623 717 601 739 q 644 665 644 695 m 264 475 q 243 422 264 444 q 190 400 221 400 q 137 422 159 400 q 115 475 115 444 q 137 527 115 505 q 190 549 159 549 q 243 527 221 549 q 264 475 264 505 m 644 475 q 623 422 644 444 q 570 400 601 400 q 517 422 539 400 q 495 475 495 444 q 517 527 495 505 q 570 549 539 549 q 623 527 601 549 q 644 475 644 505 m 264 285 q 243 232 264 254 q 190 210 221 210 q 137 232 159 210 q 115 285 115 254 q 137 337 115 315 q 190 359 159 359 q 243 337 221 359 q 264 285 264 315 m 644 285 q 623 232 644 254 q 570 210 601 210 q 517 232 539 210 q 495 285 495 254 q 517 337 495 315 q 570 359 539 359 q 623 337 601 359 q 644 285 644 315 m 264 95 q 243 42 264 64 q 190 20 221 20 q 137 42 159 20 q 115 95 115 64 q 137 148 115 125 q 190 170 159 170 q 243 148 221 170 q 264 95 264 125 m 454 95 q 433 42 454 64 q 380 20 411 20 q 327 42 349 20 q 305 95 305 64 q 327 148 305 125 q 380 170 349 170 q 433 148 411 170 q 454 95 454 125 m 644 95 q 623 42 644 64 q 570 20 601 20 q 517 42 539 20 q 495 95 495 64 q 517 148 495 125 q 570 170 539 170 q 623 148 601 170 q 644 95 644 125 z "},"V":{"ha":760,"x_min":115,"x_max":644,"o":"m 264 854 q 243 802 264 823 q 190 780 221 780 q 137 802 159 780 q 115 854 115 823 q 137 907 115 885 q 190 929 159 929 q 243 907 221 929 q 264 854 264 885 m 644 854 q 623 802 644 823 q 570 780 601 780 q 517 802 539 780 q 495 854 495 823 q 517 907 495 885 q 570 929 539 929 q 623 907 601 929 q 644 854 644 885 m 264 665 q 243 612 264 633 q 190 590 221 590 q 137 612 159 590 q 115 665 115 633 q 137 717 115 695 q 190 739 159 739 q 243 717 221 739 q 264 665 264 695 m 644 665 q 623 612 644 633 q 570 590 601 590 q 517 612 539 590 q 495 665 495 633 q 517 717 495 695 q 570 739 539 739 q 623 717 601 739 q 644 665 644 695 m 264 475 q 243 422 264 444 q 190 400 221 400 q 137 422 159 400 q 115 475 115 444 q 137 527 115 505 q 190 549 159 549 q 243 527 221 549 q 264 475 264 505 m 644 475 q 623 422 644 444 q 570 400 601 400 q 517 422 539 400 q 495 475 495 444 q 517 527 495 505 q 570 549 539 549 q 623 527 601 549 q 644 475 644 505 m 454 285 q 433 232 454 254 q 380 210 411 210 q 327 232 349 210 q 305 285 305 254 q 327 337 305 315 q 380 359 349 359 q 433 337 411 359 q 454 285 454 315 m 454 95 q 433 42 454 64 q 380 20 411 20 q 327 42 349 20 q 305 95 305 64 q 327 148 305 125 q 380 170 349 170 q 433 148 411 170 q 454 95 454 125 z "},"W":{"ha":760,"x_min":115,"x_max":644,"o":"m 264 854 q 243 802 264 823 q 190 780 221 780 q 137 802 159 780 q 115 854 115 823 q 137 907 115 885 q 190 929 159 929 q 243 907 221 929 q 264 854 264 885 m 644 854 q 623 802 644 823 q 570 780 601 780 q 517 802 539 780 q 495 854 495 823 q 517 907 495 885 q 570 929 539 929 q 623 907 601 929 q 644 854 644 885 m 264 665 q 243 612 264 633 q 190 590 221 590 q 137 612 159 590 q 115 665 115 633 q 137 717 115 695 q 190 739 159 739 q 243 717 221 739 q 264 665 264 695 m 644 665 q 623 612 644 633 q 570 590 601 590 q 517 612 539 590 q 495 665 495 633 q 517 717 495 695 q 570 739 539 739 q 623 717 601 739 q 644 665 644 695 m 264 475 q 243 422 264 444 q 190 400 221 400 q 137 422 159 400 q 115 475 115 444 q 137 527 115 505 q 190 549 159 549 q 243 527 221 549 q 264 475 264 505 m 644 475 q 623 422 644 444 q 570 400 601 400 q 517 422 539 400 q 495 475 495 444 q 517 527 495 505 q 570 549 539 549 q 623 527 601 549 q 644 475 644 505 m 264 285 q 243 232 264 254 q 190 210 221 210 q 137 232 159 210 q 115 285 115 254 q 137 337 115 315 q 190 359 159 359 q 243 337 221 359 q 264 285 264 315 m 454 285 q 433 232 454 254 q 380 210 411 210 q 327 232 349 210 q 305 285 305 254 q 327 337 305 315 q 380 359 349 359 q 433 337 411 359 q 454 285 454 315 m 644 285 q 623 232 644 254 q 570 210 601 210 q 517 232 539 210 q 495 285 495 254 q 517 337 495 315 q 570 359 539 359 q 623 337 601 359 q 644 285 644 315 m 264 95 q 243 42 264 64 q 190 20 221 20 q 137 42 159 20 q 115 95 115 64 q 137 148 115 125 q 190 170 159 170 q 243 148 221 170 q 264 95 264 125 m 644 95 q 623 42 644 64 q 570 20 601 20 q 517 42 539 20 q 495 95 495 64 q 517 148 495 125 q 570 170 539 170 q 623 148 601 170 q 644 95 644 125 z "},"X":{"ha":760,"x_min":115,"x_max":644,"o":"m 264 854 q 243 802 264 823 q 190 780 221 780 q 137 802 159 780 q 115 854 115 823 q 137 907 115 885 q 190 929 159 929 q 243 907 221 929 q 264 854 264 885 m 644 854 q 623 802 644 823 q 570 780 601 780 q 517 802 539 780 q 495 854 495 823 q 517 907 495 885 q 570 929 539 929 q 623 907 601 929 q 644 854 644 885 m 264 665 q 243 612 264 633 q 190 590 221 590 q 137 612 159 590 q 115 665 115 633 q 137 717 115 695 q 190 739 159 739 q 243 717 221 739 q 264 665 264 695 m 644 665 q 623 612 644 633 q 570 590 601 590 q 517 612 539 590 q 495 665 495 633 q 517 717 495 695 q 570 739 539 739 q 623 717 601 739 q 644 665 644 695 m 454 475 q 433 422 454 444 q 380 400 411 400 q 327 422 349 400 q 305 475 305 444 q 327 527 305 505 q 380 549 349 549 q 433 527 411 549 q 454 475 454 505 m 264 285 q 243 232 264 254 q 190 210 221 210 q 137 232 159 210 q 115 285 115 254 q 137 337 115 315 q 190 359 159 359 q 243 337 221 359 q 264 285 264 315 m 644 285 q 623 232 644 254 q 570 210 601 210 q 517 232 539 210 q 495 285 495 254 q 517 337 495 315 q 570 359 539 359 q 623 337 601 359 q 644 285 644 315 m 264 95 q 243 42 264 64 q 190 20 221 20 q 137 42 159 20 q 115 95 115 64 q 137 148 115 125 q 190 170 159 170 q 243 148 221 170 q 264 95 264 125 m 644 95 q 623 42 644 64 q 570 20 601 20 q 517 42 539 20 q 495 95 495 64 q 517 148 495 125 q 570 170 539 170 q 623 148 601 170 q 644 95 644 125 z "},"Y":{"ha":760,"x_min":115,"x_max":644,"o":"m 264 854 q 243 802 264 823 q 190 780 221 780 q 137 802 159 780 q 115 854 115 823 q 137 907 115 885 q 190 929 159 929 q 243 907 221 929 q 264 854 264 885 m 644 854 q 623 802 644 823 q 570 780 601 780 q 517 802 539 780 q 495 854 495 823 q 517 907 495 885 q 570 929 539 929 q 623 907 601 929 q 644 854 644 885 m 264 665 q 243 612 264 633 q 190 590 221 590 q 137 612 159 590 q 115 665 115 633 q 137 717 115 695 q 190 739 159 739 q 243 717 221 739 q 264 665 264 695 m 644 665 q 623 612 644 633 q 570 590 601 590 q 517 612 539 590 q 495 665 495 633 q 517 717 495 695 q 570 739 539 739 q 623 717 601 739 q 644 665 644 695 m 454 475 q 433 422 454 444 q 380 400 411 400 q 327 422 349 400 q 305 475 305 444 q 327 527 305 505 q 380 549 349 549 q 433 527 411 549 q 454 475 454 505 m 454 285 q 433 232 454 254 q 380 210 411 210 q 327 232 349 210 q 305 285 305 254 q 327 337 305 315 q 380 359 349 359 q 433 337 411 359 q 454 285 454 315 m 454 95 q 433 42 454 64 q 380 20 411 20 q 327 42 349 20 q 305 95 305 64 q 327 148 305 125 q 380 170 349 170 q 433 148 411 170 q 454 95 454 125 z "},"Z":{"ha":760,"x_min":115,"x_max":644,"o":"m 264 854 q 243 802 264 823 q 190 780 221 780 q 137 802 159 780 q 115 854 115 823 q 137 907 115 885 q 190 929 159 929 q 243 907 221 929 q 264 854 264 885 m 454 854 q 433 802 454 823 q 380 780 411 780 q 327 802 349 780 q 305 854 305 823 q 327 907 305 885 q 380 929 349 929 q 433 907 411 929 q 454 854 454 885 m 644 854 q 623 802 644 823 q 570 780 601 780 q 517 802 539 780 q 495 854 495 823 q 517 907 495 885 q 570 929 539 929 q 623 907 601 929 q 644 854 644 885 m 644 665 q 623 612 644 633 q 570 590 601 590 q 517 612 539 590 q 495 665 495 633 q 517 717 495 695 q 570 739 539 739 q 623 717 601 739 q 644 665 644 695 m 454 475 q 433 422 454 444 q 380 400 411 400 q 327 422 349 400 q 305 475 305 444 q 327 527 305 505 q 380 549 349 549 q 433 527 411 549 q 454 475 454 505 m 264 285 q 243 232 264 254 q 190 210 221 210 q 137 232 159 210 q 115 285 115 254 q 137 337 115 315 q 190 359 159 359 q 243 337 221 359 q 264 285 264 315 m 264 95 q 243 42 264 64 q 190 20 221 20 q 137 42 159 20 q 115 95 115 64 q 137 148 115 125 q 190 170 159 170 q 243 148 221 170 q 264 95 264 125 m 454 95 q 433 42 454 64 q 380 20 411 20 q 327 42 349 20 q 305 95 305 64 q 327 148 305 125 q 380 170 349 170 q 433 148 411 170 q 454 95 454 125 m 644 95 q 623 42 644 64 q 570 20 601 20 q 517 42 539 20 q 495 95 495 64 q 517 148 495 125 q 570 170 539 170 q 623 148 601 170 q 644 95 644 125 z "},"[":{"ha":760,"x_min":115,"x_max":644,"o":"m 264 854 q 243 802 264 823 q 190 780 221 780 q 137 802 159 780 q 115 854 115 823 q 137 907 115 885 q 190 929 159 929 q 243 907 221 929 q 264 854 264 885 m 454 854 q 433 802 454 823 q 380 780 411 780 q 327 802 349 780 q 305 854 305 823 q 327 907 305 885 q 380 929 349 929 q 433 907 411 929 q 454 854 454 885 m 644 854 q 623 802 644 823 q 570 780 601 780 q 517 802 539 780 q 495 854 495 823 q 517 907 495 885 q 570 929 539 929 q 623 907 601 929 q 644 854 644 885 m 264 665 q 243 612 264 633 q 190 590 221 590 q 137 612 159 590 q 115 665 115 633 q 137 717 115 695 q 190 739 159 739 q 243 717 221 739 q 264 665 264 695 m 264 475 q 243 422 264 444 q 190 400 221 400 q 137 422 159 400 q 115 475 115 444 q 137 527 115 505 q 190 549 159 549 q 243 527 221 549 q 264 475 264 505 m 264 285 q 243 232 264 254 q 190 210 221 210 q 137 232 159 210 q 115 285 115 254 q 137 337 115 315 q 190 359 159 359 q 243 337 221 359 q 264 285 264 315 m 264 95 q 243 42 264 64 q 190 20 221 20 q 137 42 159 20 q 115 95 115 64 q 137 148 115 125 q 190 170 159 170 q 243 148 221 170 q 264 95 264 125 m 454 95 q 433 42 454 64 q 380 20 411 20 q 327 42 349 20 q 305 95 305 64 q 327 148 305 125 q 380 170 349 170 q 433 148 411 170 q 454 95 454 125 m 644 95 q 623 42 644 64 q 570 20 601 20 q 517 42 539 20 q 495 95 495 64 q 517 148 495 125 q 570 170 539 170 q 623 148 601 170 q 644 95 644 125 z "},"\\":{"ha":760,"x_min":115,"x_max":644,"o":"m 264 854 q 243 802 264 823 q 190 780 221 780 q 137 802 159 780 q 115 854 115 823 q 137 907 115 885 q 190 929 159 929 q 243 907 221 929 q 264 854 264 885 m 264 665 q 243 612 264 633 q 190 590 221 590 q 137 612 159 590 q 115 665 115 633 q 137 717 115 695 q 190 739 159 739 q 243 717 221 739 q 264 665 264 695 m 454 475 q 433 422 454 444 q 380 400 411 400 q 327 422 349 400 q 305 475 305 444 q 327 527 305 505 q 380 549 349 549 q 433 527 411 549 q 454 475 454 505 m 644 285 q 623 232 644 254 q 570 210 601 210 q 517 232 539 210 q 495 285 495 254 q 517 337 495 315 q 570 359 539 359 q 623 337 601 359 q 644 285 644 315 m 644 95 q 623 42 644 64 q 570 20 601 20 q 517 42 539 20 q 495 95 495 64 q 517 148 495 125 q 570 170 539 170 q 623 148 601 170 q 644 95 644 125 z "},"]":{"ha":760,"x_min":115,"x_max":644,"o":"m 264 854 q 243 802 264 823 q 190 780 221 780 q 137 802 159 780 q 115 854 115 823 q 137 907 115 885 q 190 929 159 929 q 243 907 221 929 q 264 854 264 885 m 454 854 q 433 802 454 823 q 380 780 411 780 q 327 802 349 780 q 305 854 305 823 q 327 907 305 885 q 380 929 349 929 q 433 907 411 929 q 454 854 454 885 m 644 854 q 623 802 644 823 q 570 780 601 780 q 517 802 539 780 q 495 854 495 823 q 517 907 495 885 q 570 929 539 929 q 623 907 601 929 q 644 854 644 885 m 644 665 q 623 612 644 633 q 570 590 601 590 q 517 612 539 590 q 495 665 495 633 q 517 717 495 695 q 570 739 539 739 q 623 717 601 739 q 644 665 644 695 m 644 475 q 623 422 644 444 q 570 400 601 400 q 517 422 539 400 q 495 475 495 444 q 517 527 495 505 q 570 549 539 549 q 623 527 601 549 q 644 475 644 505 m 644 285 q 623 232 644 254 q 570 210 601 210 q 517 232 539 210 q 495 285 495 254 q 517 337 495 315 q 570 359 539 359 q 623 337 601 359 q 644 285 644 315 m 264 95 q 243 42 264 64 q 190 20 221 20 q 137 42 159 20 q 115 95 115 64 q 137 148 115 125 q 190 170 159 170 q 243 148 221 170 q 264 95 264 125 m 454 95 q 433 42 454 64 q 380 20 411 20 q 327 42 349 20 q 305 95 305 64 q 327 148 305 125 q 380 170 349 170 q 433 148 411 170 q 454 95 454 125 m 644 95 q 623 42 644 64 q 570 20 601 20 q 517 42 539 20 q 495 95 495 64 q 517 148 495 125 q 570 170 539 170 q 623 148 601 170 q 644 95 644 125 z "},"^":{"ha":760,"x_min":115,"x_max":644,"o":"m 454 854 q 433 802 454 823 q 380 780 411 780 q 327 802 349 780 q 305 854 305 823 q 327 907 305 885 q 380 929 349 929 q 433 907 411 929 q 454 854 454 885 m 264 665 q 243 612 264 633 q 190 590 221 590 q 137 612 159 590 q 115 665 115 633 q 137 717 115 695 q 190 739 159 739 q 243 717 221 739 q 264 665 264 695 m 644 665 q 623 612 644 633 q 570 590 601 590 q 517 612 539 590 q 495 665 495 633 q 517 717 495 695 q 570 739 539 739 q 623 717 601 739 q 644 665 644 695 z "},"_":{"ha":760,"x_min":115,"x_max":644,"o":"m 264 95 q 243 42 264 64 q 190 20 221 20 q 137 42 159 20 q 115 95 115 64 q 137 148 115 125 q 190 170 159 170 q 243 148 221 170 q 264 95 264 125 m 454 95 q 433 42 454 64 q 380 20 411 20 q 327 42 349 20 q 305 95 305 64 q 327 148 305 125 q 380 170 349 170 q 433 148 411 170 q 454 95 454 125 m 644 95 q 623 42 644 64 q 570 20 601 20 q 517 42 539 20 q 495 95 495 64 q 517 148 495 125 q 570 170 539 170 q 623 148 601 170 q 644 95 644 125 z "},"a":{"ha":760,"x_min":115,"x_max":644,"o":"m 454 854 q 433 802 454 823 q 380 780 411 780 q 327 802 349 780 q 305 854 305 823 q 327 907 305 885 q 380 929 349 929 q 433 907 411 929 q 454 854 454 885 m 264 665 q 243 612 264 633 q 190 590 221 590 q 137 612 159 590 q 115 665 115 633 q 137 717 115 695 q 190 739 159 739 q 243 717 221 739 q 264 665 264 695 m 644 665 q 623 612 644 633 q 570 590 601 590 q 517 612 539 590 q 495 665 495 633 q 517 717 495 695 q 570 739 539 739 q 623 717 601 739 q 644 665 644 695 m 264 475 q 243 422 264 444 q 190 400 221 400 q 137 422 159 400 q 115 475 115 444 q 137 527 115 505 q 190 549 159 549 q 243 527 221 549 q 264 475 264 505 m 454 475 q 433 422 454 444 q 380 400 411 400 q 327 422 349 400 q 305 475 305 444 q 327 527 305 505 q 380 549 349 549 q 433 527 411 549 q 454 475 454 505 m 644 475 q 623 422 644 444 q 570 400 601 400 q 517 422 539 400 q 495 475 495 444 q 517 527 495 505 q 570 549 539 549 q 623 527 601 549 q 644 475 644 505 m 264 285 q 243 232 264 254 q 190 210 221 210 q 137 232 159 210 q 115 285 115 254 q 137 337 115 315 q 190 359 159 359 q 243 337 221 359 q 264 285 264 315 m 644 285 q 623 232 644 254 q 570 210 601 210 q 517 232 539 210 q 495 285 495 254 q 517 337 495 315 q 570 359 539 359 q 623 337 601 359 q 644 285 644 315 m 264 95 q 243 42 264 64 q 190 20 221 20 q 137 42 159 20 q 115 95 115 64 q 137 148 115 125 q 190 170 159 170 q 243 148 221 170 q 264 95 264 125 m 644 95 q 623 42 644 64 q 570 20 601 20 q 517 42 539 20 q 495 95 495 64 q 517 148 495 125 q 570 170 539 170 q 623 148 601 170 q 644 95 644 125 z "},"b":{"ha":760,"x_min":115,"x_max":644,"o":"m 264 854 q 243 802 264 823 q 190 780 221 780 q 137 802 159 780 q 115 854 115 823 q 137 907 115 885 q 190 929 159 929 q 243 907 221 929 q 264 854 264 885 m 454 854 q 433 802 454 823 q 380 780 411 780 q 327 802 349 780 q 305 854 305 823 q 327 907 305 885 q 380 929 349 929 q 433 907 411 929 q 454 854 454 885 m 264 665 q 243 612 264 633 q 190 590 221 590 q 137 612 159 590 q 115 665 115 633 q 137 717 115 695 q 190 739 159 739 q 243 717 221 739 q 264 665 264 695 m 644 665 q 623 612 644 633 q 570 590 601 590 q 517 612 539 590 q 495 665 495 633 q 517 717 495 695 q 570 739 539 739 q 623 717 601 739 q 644 665 644 695 m 264 475 q 243 422 264 444 q 190 400 221 400 q 137 422 159 400 q 115 475 115 444 q 137 527 115 505 q 190 549 159 549 q 243 527 221 549 q 264 475 264 505 m 454 475 q 433 422 454 444 q 380 400 411 400 q 327 422 349 400 q 305 475 305 444 q 327 527 305 505 q 380 549 349 549 q 433 527 411 549 q 454 475 454 505 m 264 285 q 243 232 264 254 q 190 210 221 210 q 137 232 159 210 q 115 285 115 254 q 137 337 115 315 q 190 359 159 359 q 243 337 221 359 q 264 285 264 315 m 644 285 q 623 232 644 254 q 570 210 601 210 q 517 232 539 210 q 495 285 495 254 q 517 337 495 315 q 570 359 539 359 q 623 337 601 359 q 644 285 644 315 m 264 95 q 243 42 264 64 q 190 20 221 20 q 137 42 159 20 q 115 95 115 64 q 137 148 115 125 q 190 170 159 170 q 243 148 221 170 q 264 95 264 125 m 454 95 q 433 42 454 64 q 380 20 411 20 q 327 42 349 20 q 305 95 305 64 q 327 148 305 125 q 380 170 349 170 q 433 148 411 170 q 454 95 454 125 z "},"c":{"ha":760,"x_min":115,"x_max":644,"o":"m 454 854 q 433 802 454 823 q 380 780 411 780 q 327 802 349 780 q 305 854 305 823 q 327 907 305 885 q 380 929 349 929 q 433 907 411 929 q 454 854 454 885 m 644 854 q 623 802 644 823 q 570 780 601 780 q 517 802 539 780 q 495 854 495 823 q 517 907 495 885 q 570 929 539 929 q 623 907 601 929 q 644 854 644 885 m 264 665 q 243 612 264 633 q 190 590 221 590 q 137 612 159 590 q 115 665 115 633 q 137 717 115 695 q 190 739 159 739 q 243 717 221 739 q 264 665 264 695 m 264 475 q 243 422 264 444 q 190 400 221 400 q 137 422 159 400 q 115 475 115 444 q 137 527 115 505 q 190 549 159 549 q 243 527 221 549 q 264 475 264 505 m 264 285 q 243 232 264 254 q 190 210 221 210 q 137 232 159 210 q 115 285 115 254 q 137 337 115 315 q 190 359 159 359 q 243 337 221 359 q 264 285 264 315 m 454 95 q 433 42 454 64 q 380 20 411 20 q 327 42 349 20 q 305 95 305 64 q 327 148 305 125 q 380 170 349 170 q 433 148 411 170 q 454 95 454 125 m 644 95 q 623 42 644 64 q 570 20 601 20 q 517 42 539 20 q 495 95 495 64 q 517 148 495 125 q 570 170 539 170 q 623 148 601 170 q 644 95 644 125 z "},"d":{"ha":760,"x_min":115,"x_max":644,"o":"m 264 854 q 243 802 264 823 q 190 780 221 780 q 137 802 159 780 q 115 854 115 823 q 137 907 115 885 q 190 929 159 929 q 243 907 221 929 q 264 854 264 885 m 454 854 q 433 802 454 823 q 380 780 411 780 q 327 802 349 780 q 305 854 305 823 q 327 907 305 885 q 380 929 349 929 q 433 907 411 929 q 454 854 454 885 m 264 665 q 243 612 264 633 q 190 590 221 590 q 137 612 159 590 q 115 665 115 633 q 137 717 115 695 q 190 739 159 739 q 243 717 221 739 q 264 665 264 695 m 644 665 q 623 612 644 633 q 570 590 601 590 q 517 612 539 590 q 495 665 495 633 q 517 717 495 695 q 570 739 539 739 q 623 717 601 739 q 644 665 644 695 m 264 475 q 243 422 264 444 q 190 400 221 400 q 137 422 159 400 q 115 475 115 444 q 137 527 115 505 q 190 549 159 549 q 243 527 221 549 q 264 475 264 505 m 644 475 q 623 422 644 444 q 570 400 601 400 q 517 422 539 400 q 495 475 495 444 q 517 527 495 505 q 570 549 539 549 q 623 527 601 549 q 644 475 644 505 m 264 285 q 243 232 264 254 q 190 210 221 210 q 137 232 159 210 q 115 285 115 254 q 137 337 115 315 q 190 359 159 359 q 243 337 221 359 q 264 285 264 315 m 644 285 q 623 232 644 254 q 570 210 601 210 q 517 232 539 210 q 495 285 495 254 q 517 337 495 315 q 570 359 539 359 q 623 337 601 359 q 644 285 644 315 m 264 95 q 243 42 264 64 q 190 20 221 20 q 137 42 159 20 q 115 95 115 64 q 137 148 115 125 q 190 170 159 170 q 243 148 221 170 q 264 95 264 125 m 454 95 q 433 42 454 64 q 380 20 411 20 q 327 42 349 20 q 305 95 305 64 q 327 148 305 125 q 380 170 349 170 q 433 148 411 170 q 454 95 454 125 z "},"e":{"ha":760,"x_min":115,"x_max":644,"o":"m 264 854 q 243 802 264 823 q 190 780 221 780 q 137 802 159 780 q 115 854 115 823 q 137 907 115 885 q 190 929 159 929 q 243 907 221 929 q 264 854 264 885 m 454 854 q 433 802 454 823 q 380 780 411 780 q 327 802 349 780 q 305 854 305 823 q 327 907 305 885 q 380 929 349 929 q 433 907 411 929 q 454 854 454 885 m 644 854 q 623 802 644 823 q 570 780 601 780 q 517 802 539 780 q 495 854 495 823 q 517 907 495 885 q 570 929 539 929 q 623 907 601 929 q 644 854 644 885 m 264 665 q 243 612 264 633 q 190 590 221 590 q 137 612 159 590 q 115 665 115 633 q 137 717 115 695 q 190 739 159 739 q 243 717 221 739 q 264 665 264 695 m 264 475 q 243 422 264 444 q 190 400 221 400 q 137 422 159 400 q 115 475 115 444 q 137 527 115 505 q 190 549 159 549 q 243 527 221 549 q 264 475 264 505 m 454 475 q 433 422 454 444 q 380 400 411 400 q 327 422 349 400 q 305 475 305 444 q 327 527 305 505 q 380 549 349 549 q 433 527 411 549 q 454 475 454 505 m 644 475 q 623 422 644 444 q 570 400 601 400 q 517 422 539 400 q 495 475 495 444 q 517 527 495 505 q 570 549 539 549 q 623 527 601 549 q 644 475 644 505 m 264 285 q 243 232 264 254 q 190 210 221 210 q 137 232 159 210 q 115 285 115 254 q 137 337 115 315 q 190 359 159 359 q 243 337 221 359 q 264 285 264 315 m 264 95 q 243 42 264 64 q 190 20 221 20 q 137 42 159 20 q 115 95 115 64 q 137 148 115 125 q 190 170 159 170 q 243 148 221 170 q 264 95 264 125 m 454 95 q 433 42 454 64 q 380 20 411 20 q 327 42 349 20 q 305 95 305 64 q 327 148 305 125 q 380 170 349 170 q 433 148 411 170 q 454 95 454 125 m 644 95 q 623 42 644 64 q 570 20 601 20 q 517 42 539 20 q 495 95 495 64 q 517 148 495 125 q 570 170 539 170 q 623 148 601 170 q 644 95 644 125 z "},"f":{"ha":760,"x_min":115,"x_max":644,"o":"m 264 854 q 243 802 264 823 q 190 780 221 780 q 137 802 159 780 q 115 854 115 823 q 137 907 115 885 q 190 929 159 929 q 243 907 221 929 q 264 854 264 885 m 454 854 q 433 802 454 823 q 380 780 411 780 q 327 802 349 780 q 305 854 305 823 q 327 907 305 885 q 380 929 349 929 q 433 907 411 929 q 454 854 454 885 m 644 854 q 623 802 644 823 q 570 780 601 780 q 517 802 539 780 q 495 854 495 823 q 517 907 495 885 q 570 929 539 929 q 623 907 601 929 q 644 854 644 885 m 264 665 q 243 612 264 633 q 190 590 221 590 q 137 612 159 590 q 115 665 115 633 q 137 717 115 695 q 190 739 159 739 q 243 717 221 739 q 264 665 264 695 m 264 475 q 243 422 264 444 q 190 400 221 400 q 137 422 159 400 q 115 475 115 444 q 137 527 115 505 q 190 549 159 549 q 243 527 221 549 q 264 475 264 505 m 454 475 q 433 422 454 444 q 380 400 411 400 q 327 422 349 400 q 305 475 305 444 q 327 527 305 505 q 380 549 349 549 q 433 527 411 549 q 454 475 454 505 m 644 475 q 623 422 644 444 q 570 400 601 400 q 517 422 539 400 q 495 475 495 444 q 517 527 495 505 q 570 549 539 549 q 623 527 601 549 q 644 475 644 505 m 264 285 q 243 232 264 254 q 190 210 221 210 q 137 232 159 210 q 115 285 115 254 q 137 337 115 315 q 190 359 159 359 q 243 337 221 359 q 264 285 264 315 m 264 95 q 243 42 264 64 q 190 20 221 20 q 137 42 159 20 q 115 95 115 64 q 137 148 115 125 q 190 170 159 170 q 243 148 221 170 q 264 95 264 125 z "},"g":{"ha":760,"x_min":115,"x_max":644,"o":"m 454 854 q 433 802 454 823 q 380 780 411 780 q 327 802 349 780 q 305 854 305 823 q 327 907 305 885 q 380 929 349 929 q 433 907 411 929 q 454 854 454 885 m 644 854 q 623 802 644 823 q 570 780 601 780 q 517 802 539 780 q 495 854 495 823 q 517 907 495 885 q 570 929 539 929 q 623 907 601 929 q 644 854 644 885 m 264 665 q 243 612 264 633 q 190 590 221 590 q 137 612 159 590 q 115 665 115 633 q 137 717 115 695 q 190 739 159 739 q 243 717 221 739 q 264 665 264 695 m 264 475 q 243 422 264 444 q 190 400 221 400 q 137 422 159 400 q 115 475 115 444 q 137 527 115 505 q 190 549 159 549 q 243 527 221 549 q 264 475 264 505 m 644 475 q 623 422 644 444 q 570 400 601 400 q 517 422 539 400 q 495 475 495 444 q 517 527 495 505 q 570 549 539 549 q 623 527 601 549 q 644 475 644 505 m 264 285 q 243 232 264 254 q 190 210 221 210 q 137 232 159 210 q 115 285 115 254 q 137 337 115 315 q 190 359 159 359 q 243 337 221 359 q 264 285 264 315 m 644 285 q 623 232 644 254 q 570 210 601 210 q 517 232 539 210 q 495 285 495 254 q 517 337 495 315 q 570 359 539 359 q 623 337 601 359 q 644 285 644 315 m 454 95 q 433 42 454 64 q 380 20 411 20 q 327 42 349 20 q 305 95 305 64 q 327 148 305 125 q 380 170 349 170 q 433 148 411 170 q 454 95 454 125 m 644 95 q 623 42 644 64 q 570 20 601 20 q 517 42 539 20 q 495 95 495 64 q 517 148 495 125 q 570 170 539 170 q 623 148 601 170 q 644 95 644 125 z "},"h":{"ha":760,"x_min":115,"x_max":644,"o":"m 264 854 q 243 802 264 823 q 190 780 221 780 q 137 802 159 780 q 115 854 115 823 q 137 907 115 885 q 190 929 159 929 q 243 907 221 929 q 264 854 264 885 m 644 854 q 623 802 644 823 q 570 780 601 780 q 517 802 539 780 q 495 854 495 823 q 517 907 495 885 q 570 929 539 929 q 623 907 601 929 q 644 854 644 885 m 264 665 q 243 612 264 633 q 190 590 221 590 q 137 612 159 590 q 115 665 115 633 q 137 717 115 695 q 190 739 159 739 q 243 717 221 739 q 264 665 264 695 m 644 665 q 623 612 644 633 q 570 590 601 590 q 517 612 539 590 q 495 665 495 633 q 517 717 495 695 q 570 739 539 739 q 623 717 601 739 q 644 665 644 695 m 264 475 q 243 422 264 444 q 190 400 221 400 q 137 422 159 400 q 115 475 115 444 q 137 527 115 505 q 190 549 159 549 q 243 527 221 549 q 264 475 264 505 m 454 475 q 433 422 454 444 q 380 400 411 400 q 327 422 349 400 q 305 475 305 444 q 327 527 305 505 q 380 549 349 549 q 433 527 411 549 q 454 475 454 505 m 644 475 q 623 422 644 444 q 570 400 601 400 q 517 422 539 400 q 495 475 495 444 q 517 527 495 505 q 570 549 539 549 q 623 527 601 549 q 644 475 644 505 m 264 285 q 243 232 264 254 q 190 210 221 210 q 137 232 159 210 q 115 285 115 254 q 137 337 115 315 q 190 359 159 359 q 243 337 221 359 q 264 285 264 315 m 644 285 q 623 232 644 254 q 570 210 601 210 q 517 232 539 210 q 495 285 495 254 q 517 337 495 315 q 570 359 539 359 q 623 337 601 359 q 644 285 644 315 m 264 95 q 243 42 264 64 q 190 20 221 20 q 137 42 159 20 q 115 95 115 64 q 137 148 115 125 q 190 170 159 170 q 243 148 221 170 q 264 95 264 125 m 644 95 q 623 42 644 64 q 570 20 601 20 q 517 42 539 20 q 495 95 495 64 q 517 148 495 125 q 570 170 539 170 q 623 148 601 170 q 644 95 644 125 z "},"i":{"ha":760,"x_min":115,"x_max":644,"o":"m 264 854 q 243 802 264 823 q 190 780 221 780 q 137 802 159 780 q 115 854 115 823 q 137 907 115 885 q 190 929 159 929 q 243 907 221 929 q 264 854 264 885 m 454 854 q 433 802 454 823 q 380 780 411 780 q 327 802 349 780 q 305 854 305 823 q 327 907 305 885 q 380 929 349 929 q 433 907 411 929 q 454 854 454 885 m 644 854 q 623 802 644 823 q 570 780 601 780 q 517 802 539 780 q 495 854 495 823 q 517 907 495 885 q 570 929 539 929 q 623 907 601 929 q 644 854 644 885 m 454 665 q 433 612 454 633 q 380 590 411 590 q 327 612 349 590 q 305 665 305 633 q 327 717 305 695 q 380 739 349 739 q 433 717 411 739 q 454 665 454 695 m 454 475 q 433 422 454 444 q 380 400 411 400 q 327 422 349 400 q 305 475 305 444 q 327 527 305 505 q 380 549 349 549 q 433 527 411 549 q 454 475 454 505 m 454 285 q 433 232 454 254 q 380 210 411 210 q 327 232 349 210 q 305 285 305 254 q 327 337 305 315 q 380 359 349 359 q 433 337 411 359 q 454 285 454 315 m 264 95 q 243 42 264 64 q 190 20 221 20 q 137 42 159 20 q 115 95 115 64 q 137 148 115 125 q 190 170 159 170 q 243 148 221 170 q 264 95 264 125 m 454 95 q 433 42 454 64 q 380 20 411 20 q 327 42 349 20 q 305 95 305 64 q 327 148 305 125 q 380 170 349 170 q 433 148 411 170 q 454 95 454 125 m 644 95 q 623 42 644 64 q 570 20 601 20 q 517 42 539 20 q 495 95 495 64 q 517 148 495 125 q 570 170 539 170 q 623 148 601 170 q 644 95 644 125 z "},"j":{"ha":760,"x_min":115,"x_max":644,"o":"m 454 854 q 433 802 454 823 q 380 780 411 780 q 327 802 349 780 q 305 854 305 823 q 327 907 305 885 q 380 929 349 929 q 433 907 411 929 q 454 854 454 885 m 644 854 q 623 802 644 823 q 570 780 601 780 q 517 802 539 780 q 495 854 495 823 q 517 907 495 885 q 570 929 539 929 q 623 907 601 929 q 644 854 644 885 m 644 665 q 623 612 644 633 q 570 590 601 590 q 517 612 539 590 q 495 665 495 633 q 517 717 495 695 q 570 739 539 739 q 623 717 601 739 q 644 665 644 695 m 644 475 q 623 422 644 444 q 570 400 601 400 q 517 422 539 400 q 495 475 495 444 q 517 527 495 505 q 570 549 539 549 q 623 527 601 549 q 644 475 644 505 m 264 285 q 243 232 264 254 q 190 210 221 210 q 137 232 159 210 q 115 285 115 254 q 137 337 115 315 q 190 359 159 359 q 243 337 221 359 q 264 285 264 315 m 644 285 q 623 232 644 254 q 570 210 601 210 q 517 232 539 210 q 495 285 495 254 q 517 337 495 315 q 570 359 539 359 q 623 337 601 359 q 644 285 644 315 m 454 95 q 433 42 454 64 q 380 20 411 20 q 327 42 349 20 q 305 95 305 64 q 327 148 305 125 q 380 170 349 170 q 433 148 411 170 q 454 95 454 125 z "},"k":{"ha":760,"x_min":115,"x_max":644,"o":"m 264 854 q 243 802 264 823 q 190 780 221 780 q 137 802 159 780 q 115 854 115 823 q 137 907 115 885 q 190 929 159 929 q 243 907 221 929 q 264 854 264 885 m 644 854 q 623 802 644 823 q 570 780 601 780 q 517 802 539 780 q 495 854 495 823 q 517 907 495 885 q 570 929 539 929 q 623 907 601 929 q 644 854 644 885 m 264 665 q 243 612 264 633 q 190 590 221 590 q 137 612 159 590 q 115 665 115 633 q 137 717 115 695 q 190 739 159 739 q 243 717 221 739 q 264 665 264 695 m 644 665 q 623 612 644 633 q 570 590 601 590 q 517 612 539 590 q 495 665 495 633 q 517 717 495 695 q 570 739 539 739 q 623 717 601 739 q 644 665 644 695 m 264 475 q 243 422 264 444 q 190 400 221 400 q 137 422 159 400 q 115 475 115 444 q 137 527 115 505 q 190 549 159 549 q 243 527 221 549 q 264 475 264 505 m 454 475 q 433 422 454 444 q 380 400 411 400 q 327 422 349 400 q 305 475 305 444 q 327 527 305 505 q 380 549 349 549 q 433 527 411 549 q 454 475 454 505 m 264 285 q 243 232 264 254 q 190 210 221 210 q 137 232 159 210 q 115 285 115 254 q 137 337 115 315 q 190 359 159 359 q 243 337 221 359 q 264 285 264 315 m 644 285 q 623 232 644 254 q 570 210 601 210 q 517 232 539 210 q 495 285 495 254 q 517 337 495 315 q 570 359 539 359 q 623 337 601 359 q 644 285 644 315 m 264 95 q 243 42 264 64 q 190 20 221 20 q 137 42 159 20 q 115 95 115 64 q 137 148 115 125 q 190 170 159 170 q 243 148 221 170 q 264 95 264 125 m 644 95 q 623 42 644 64 q 570 20 601 20 q 517 42 539 20 q 495 95 495 64 q 517 148 495 125 q 570 170 539 170 q 623 148 601 170 q 644 95 644 125 z "},"l":{"ha":760,"x_min":115,"x_max":644,"o":"m 264 854 q 243 802 264 823 q 190 780 221 780 q 137 802 159 780 q 115 854 115 823 q 137 907 115 885 q 190 929 159 929 q 243 907 221 929 q 264 854 264 885 m 264 665 q 243 612 264 633 q 190 590 221 590 q 137 612 159 590 q 115 665 115 633 q 137 717 115 695 q 190 739 159 739 q 243 717 221 739 q 264 665 264 695 m 264 475 q 243 422 264 444 q 190 400 221 400 q 137 422 159 400 q 115 475 115 444 q 137 527 115 505 q 190 549 159 549 q 243 527 221 549 q 264 475 264 505 m 264 285 q 243 232 264 254 q 190 210 221 210 q 137 232 159 210 q 115 285 115 254 q 137 337 115 315 q 190 359 159 359 q 243 337 221 359 q 264 285 264 315 m 264 95 q 243 42 264 64 q 190 20 221 20 q 137 42 159 20 q 115 95 115 64 q 137 148 115 125 q 190 170 159 170 q 243 148 221 170 q 264 95 264 125 m 454 95 q 433 42 454 64 q 380 20 411 20 q 327 42 349 20 q 305 95 305 64 q 327 148 305 125 q 380 170 349 170 q 433 148 411 170 q 454 95 454 125 m 644 95 q 623 42 644 64 q 570 20 601 20 q 517 42 539 20 q 495 95 495 64 q 517 148 495 125 q 570 170 539 170 q 623 148 601 170 q 644 95 644 125 z "},"m":{"ha":760,"x_min":115,"x_max":644,"o":"m 264 854 q 243 802 264 823 q 190 780 221 780 q 137 802 159 780 q 115 854 115 823 q 137 907 115 885 q 190 929 159 929 q 243 907 221 929 q 264 854 264 885 m 644 854 q 623 802 644 823 q 570 780 601 780 q 517 802 539 780 q 495 854 495 823 q 517 907 495 885 q 570 929 539 929 q 623 907 601 929 q 644 854 644 885 m 264 665 q 243 612 264 633 q 190 590 221 590 q 137 612 159 590 q 115 665 115 633 q 137 717 115 695 q 190 739 159 739 q 243 717 221 739 q 264 665 264 695 m 454 665 q 433 612 454 633 q 380 590 411 590 q 327 612 349 590 q 305 665 305 633 q 327 717 305 695 q 380 739 349 739 q 433 717 411 739 q 454 665 454 695 m 644 665 q 623 612 644 633 q 570 590 601 590 q 517 612 539 590 q 495 665 495 633 q 517 717 495 695 q 570 739 539 739 q 623 717 601 739 q 644 665 644 695 m 264 475 q 243 422 264 444 q 190 400 221 400 q 137 422 159 400 q 115 475 115 444 q 137 527 115 505 q 190 549 159 549 q 243 527 221 549 q 264 475 264 505 m 644 475 q 623 422 644 444 q 570 400 601 400 q 517 422 539 400 q 495 475 495 444 q 517 527 495 505 q 570 549 539 549 q 623 527 601 549 q 644 475 644 505 m 264 285 q 243 232 264 254 q 190 210 221 210 q 137 232 159 210 q 115 285 115 254 q 137 337 115 315 q 190 359 159 359 q 243 337 221 359 q 264 285 264 315 m 644 285 q 623 232 644 254 q 570 210 601 210 q 517 232 539 210 q 495 285 495 254 q 517 337 495 315 q 570 359 539 359 q 623 337 601 359 q 644 285 644 315 m 264 95 q 243 42 264 64 q 190 20 221 20 q 137 42 159 20 q 115 95 115 64 q 137 148 115 125 q 190 170 159 170 q 243 148 221 170 q 264 95 264 125 m 644 95 q 623 42 644 64 q 570 20 601 20 q 517 42 539 20 q 495 95 495 64 q 517 148 495 125 q 570 170 539 170 q 623 148 601 170 q 644 95 644 125 z "},"n":{"ha":760,"x_min":115,"x_max":644,"o":"m 264 854 q 243 802 264 823 q 190 780 221 780 q 137 802 159 780 q 115 854 115 823 q 137 907 115 885 q 190 929 159 929 q 243 907 221 929 q 264 854 264 885 m 454 854 q 433 802 454 823 q 380 780 411 780 q 327 802 349 780 q 305 854 305 823 q 327 907 305 885 q 380 929 349 929 q 433 907 411 929 q 454 854 454 885 m 264 665 q 243 612 264 633 q 190 590 221 590 q 137 612 159 590 q 115 665 115 633 q 137 717 115 695 q 190 739 159 739 q 243 717 221 739 q 264 665 264 695 m 644 665 q 623 612 644 633 q 570 590 601 590 q 517 612 539 590 q 495 665 495 633 q 517 717 495 695 q 570 739 539 739 q 623 717 601 739 q 644 665 644 695 m 264 475 q 243 422 264 444 q 190 400 221 400 q 137 422 159 400 q 115 475 115 444 q 137 527 115 505 q 190 549 159 549 q 243 527 221 549 q 264 475 264 505 m 644 475 q 623 422 644 444 q 570 400 601 400 q 517 422 539 400 q 495 475 495 444 q 517 527 495 505 q 570 549 539 549 q 623 527 601 549 q 644 475 644 505 m 264 285 q 243 232 264 254 q 190 210 221 210 q 137 232 159 210 q 115 285 115 254 q 137 337 115 315 q 190 359 159 359 q 243 337 221 359 q 264 285 264 315 m 644 285 q 623 232 644 254 q 570 210 601 210 q 517 232 539 210 q 495 285 495 254 q 517 337 495 315 q 570 359 539 359 q 623 337 601 359 q 644 285 644 315 m 264 95 q 243 42 264 64 q 190 20 221 20 q 137 42 159 20 q 115 95 115 64 q 137 148 115 125 q 190 170 159 170 q 243 148 221 170 q 264 95 264 125 m 644 95 q 623 42 644 64 q 570 20 601 20 q 517 42 539 20 q 495 95 495 64 q 517 148 495 125 q 570 170 539 170 q 623 148 601 170 q 644 95 644 125 z "},"o":{"ha":760,"x_min":115,"x_max":644,"o":"m 454 854 q 433 802 454 823 q 380 780 411 780 q 327 802 349 780 q 305 854 305 823 q 327 907 305 885 q 380 929 349 929 q 433 907 411 929 q 454 854 454 885 m 264 665 q 243 612 264 633 q 190 590 221 590 q 137 612 159 590 q 115 665 115 633 q 137 717 115 695 q 190 739 159 739 q 243 717 221 739 q 264 665 264 695 m 644 665 q 623 612 644 633 q 570 590 601 590 q 517 612 539 590 q 495 665 495 633 q 517 717 495 695 q 570 739 539 739 q 623 717 601 739 q 644 665 644 695 m 264 475 q 243 422 264 444 q 190 400 221 400 q 137 422 159 400 q 115 475 115 444 q 137 527 115 505 q 190 549 159 549 q 243 527 221 549 q 264 475 264 505 m 644 475 q 623 422 644 444 q 570 400 601 400 q 517 422 539 400 q 495 475 495 444 q 517 527 495 505 q 570 549 539 549 q 623 527 601 549 q 644 475 644 505 m 264 285 q 243 232 264 254 q 190 210 221 210 q 137 232 159 210 q 115 285 115 254 q 137 337 115 315 q 190 359 159 359 q 243 337 221 359 q 264 285 264 315 m 644 285 q 623 232 644 254 q 570 210 601 210 q 517 232 539 210 q 495 285 495 254 q 517 337 495 315 q 570 359 539 359 q 623 337 601 359 q 644 285 644 315 m 454 95 q 433 42 454 64 q 380 20 411 20 q 327 42 349 20 q 305 95 305 64 q 327 148 305 125 q 380 170 349 170 q 433 148 411 170 q 454 95 454 125 z "},"p":{"ha":760,"x_min":115,"x_max":644,"o":"m 264 854 q 243 802 264 823 q 190 780 221 780 q 137 802 159 780 q 115 854 115 823 q 137 907 115 885 q 190 929 159 929 q 243 907 221 929 q 264 854 264 885 m 454 854 q 433 802 454 823 q 380 780 411 780 q 327 802 349 780 q 305 854 305 823 q 327 907 305 885 q 380 929 349 929 q 433 907 411 929 q 454 854 454 885 m 264 665 q 243 612 264 633 q 190 590 221 590 q 137 612 159 590 q 115 665 115 633 q 137 717 115 695 q 190 739 159 739 q 243 717 221 739 q 264 665 264 695 m 644 665 q 623 612 644 633 q 570 590 601 590 q 517 612 539 590 q 495 665 495 633 q 517 717 495 695 q 570 739 539 739 q 623 717 601 739 q 644 665 644 695 m 264 475 q 243 422 264 444 q 190 400 221 400 q 137 422 159 400 q 115 475 115 444 q 137 527 115 505 q 190 549 159 549 q 243 527 221 549 q 264 475 264 505 m 454 475 q 433 422 454 444 q 380 400 411 400 q 327 422 349 400 q 305 475 305 444 q 327 527 305 505 q 380 549 349 549 q 433 527 411 549 q 454 475 454 505 m 264 285 q 243 232 264 254 q 190 210 221 210 q 137 232 159 210 q 115 285 115 254 q 137 337 115 315 q 190 359 159 359 q 243 337 221 359 q 264 285 264 315 m 264 95 q 243 42 264 64 q 190 20 221 20 q 137 42 159 20 q 115 95 115 64 q 137 148 115 125 q 190 170 159 170 q 243 148 221 170 q 264 95 264 125 z "},"q":{"ha":760,"x_min":115,"x_max":644,"o":"m 454 854 q 433 802 454 823 q 380 780 411 780 q 327 802 349 780 q 305 854 305 823 q 327 907 305 885 q 380 929 349 929 q 433 907 411 929 q 454 854 454 885 m 264 665 q 243 612 264 633 q 190 590 221 590 q 137 612 159 590 q 115 665 115 633 q 137 717 115 695 q 190 739 159 739 q 243 717 221 739 q 264 665 264 695 m 644 665 q 623 612 644 633 q 570 590 601 590 q 517 612 539 590 q 495 665 495 633 q 517 717 495 695 q 570 739 539 739 q 623 717 601 739 q 644 665 644 695 m 264 475 q 243 422 264 444 q 190 400 221 400 q 137 422 159 400 q 115 475 115 444 q 137 527 115 505 q 190 549 159 549 q 243 527 221 549 q 264 475 264 505 m 644 475 q 623 422 644 444 q 570 400 601 400 q 517 422 539 400 q 495 475 495 444 q 517 527 495 505 q 570 549 539 549 q 623 527 601 549 q 644 475 644 505 m 264 285 q 243 232 264 254 q 190 210 221 210 q 137 232 159 210 q 115 285 115 254 q 137 337 115 315 q 190 359 159 359 q 243 337 221 359 q 264 285 264 315 m 454 285 q 433 232 454 254 q 380 210 411 210 q 327 232 349 210 q 305 285 305 254 q 327 337 305 315 q 380 359 349 359 q 433 337 411 359 q 454 285 454 315 m 644 285 q 623 232 644 254 q 570 210 601 210 q 517 232 539 210 q 495 285 495 254 q 517 337 495 315 q 570 359 539 359 q 623 337 601 359 q 644 285 644 315 m 454 95 q 433 42 454 64 q 380 20 411 20 q 327 42 349 20 q 305 95 305 64 q 327 148 305 125 q 380 170 349 170 q 433 148 411 170 q 454 95 454 125 m 644 95 q 623 42 644 64 q 570 20 601 20 q 517 42 539 20 q 495 95 495 64 q 517 148 495 125 q 570 170 539 170 q 623 148 601 170 q 644 95 644 125 z "},"r":{"ha":760,"x_min":115,"x_max":644,"o":"m 264 854 q 243 802 264 823 q 190 780 221 780 q 137 802 159 780 q 115 854 115 823 q 137 907 115 885 q 190 929 159 929 q 243 907 221 929 q 264 854 264 885 m 454 854 q 433 802 454 823 q 380 780 411 780 q 327 802 349 780 q 305 854 305 823 q 327 907 305 885 q 380 929 349 929 q 433 907 411 929 q 454 854 454 885 m 264 665 q 243 612 264 633 q 190 590 221 590 q 137 612 159 590 q 115 665 115 633 q 137 717 115 695 q 190 739 159 739 q 243 717 221 739 q 264 665 264 695 m 644 665 q 623 612 644 633 q 570 590 601 590 q 517 612 539 590 q 495 665 495 633 q 517 717 495 695 q 570 739 539 739 q 623 717 601 739 q 644 665 644 695 m 264 475 q 243 422 264 444 q 190 400 221 400 q 137 422 159 400 q 115 475 115 444 q 137 527 115 505 q 190 549 159 549 q 243 527 221 549 q 264 475 264 505 m 454 475 q 433 422 454 444 q 380 400 411 400 q 327 422 349 400 q 305 475 305 444 q 327 527 305 505 q 380 549 349 549 q 433 527 411 549 q 454 475 454 505 m 264 285 q 243 232 264 254 q 190 210 221 210 q 137 232 159 210 q 115 285 115 254 q 137 337 115 315 q 190 359 159 359 q 243 337 221 359 q 264 285 264 315 m 644 285 q 623 232 644 254 q 570 210 601 210 q 517 232 539 210 q 495 285 495 254 q 517 337 495 315 q 570 359 539 359 q 623 337 601 359 q 644 285 644 315 m 264 95 q 243 42 264 64 q 190 20 221 20 q 137 42 159 20 q 115 95 115 64 q 137 148 115 125 q 190 170 159 170 q 243 148 221 170 q 264 95 264 125 m 644 95 q 623 42 644 64 q 570 20 601 20 q 517 42 539 20 q 495 95 495 64 q 517 148 495 125 q 570 170 539 170 q 623 148 601 170 q 644 95 644 125 z "},"s":{"ha":760,"x_min":115,"x_max":644,"o":"m 454 854 q 433 802 454 823 q 380 780 411 780 q 327 802 349 780 q 305 854 305 823 q 327 907 305 885 q 380 929 349 929 q 433 907 411 929 q 454 854 454 885 m 644 854 q 623 802 644 823 q 570 780 601 780 q 517 802 539 780 q 495 854 495 823 q 517 907 495 885 q 570 929 539 929 q 623 907 601 929 q 644 854 644 885 m 264 665 q 243 612 264 633 q 190 590 221 590 q 137 612 159 590 q 115 665 115 633 q 137 717 115 695 q 190 739 159 739 q 243 717 221 739 q 264 665 264 695 m 264 475 q 243 422 264 444 q 190 400 221 400 q 137 422 159 400 q 115 475 115 444 q 137 527 115 505 q 190 549 159 549 q 243 527 221 549 q 264 475 264 505 m 454 475 q 433 422 454 444 q 380 400 411 400 q 327 422 349 400 q 305 475 305 444 q 327 527 305 505 q 380 549 349 549 q 433 527 411 549 q 454 475 454 505 m 644 475 q 623 422 644 444 q 570 400 601 400 q 517 422 539 400 q 495 475 495 444 q 517 527 495 505 q 570 549 539 549 q 623 527 601 549 q 644 475 644 505 m 644 285 q 623 232 644 254 q 570 210 601 210 q 517 232 539 210 q 495 285 495 254 q 517 337 495 315 q 570 359 539 359 q 623 337 601 359 q 644 285 644 315 m 264 95 q 243 42 264 64 q 190 20 221 20 q 137 42 159 20 q 115 95 115 64 q 137 148 115 125 q 190 170 159 170 q 243 148 221 170 q 264 95 264 125 m 454 95 q 433 42 454 64 q 380 20 411 20 q 327 42 349 20 q 305 95 305 64 q 327 148 305 125 q 380 170 349 170 q 433 148 411 170 q 454 95 454 125 z "},"t":{"ha":760,"x_min":115,"x_max":644,"o":"m 264 854 q 243 802 264 823 q 190 780 221 780 q 137 802 159 780 q 115 854 115 823 q 137 907 115 885 q 190 929 159 929 q 243 907 221 929 q 264 854 264 885 m 454 854 q 433 802 454 823 q 380 780 411 780 q 327 802 349 780 q 305 854 305 823 q 327 907 305 885 q 380 929 349 929 q 433 907 411 929 q 454 854 454 885 m 644 854 q 623 802 644 823 q 570 780 601 780 q 517 802 539 780 q 495 854 495 823 q 517 907 495 885 q 570 929 539 929 q 623 907 601 929 q 644 854 644 885 m 454 665 q 433 612 454 633 q 380 590 411 590 q 327 612 349 590 q 305 665 305 633 q 327 717 305 695 q 380 739 349 739 q 433 717 411 739 q 454 665 454 695 m 454 475 q 433 422 454 444 q 380 400 411 400 q 327 422 349 400 q 305 475 305 444 q 327 527 305 505 q 380 549 349 549 q 433 527 411 549 q 454 475 454 505 m 454 285 q 433 232 454 254 q 380 210 411 210 q 327 232 349 210 q 305 285 305 254 q 327 337 305 315 q 380 359 349 359 q 433 337 411 359 q 454 285 454 315 m 454 95 q 433 42 454 64 q 380 20 411 20 q 327 42 349 20 q 305 95 305 64 q 327 148 305 125 q 380 170 349 170 q 433 148 411 170 q 454 95 454 125 z "},"u":{"ha":760,"x_min":115,"x_max":644,"o":"m 264 854 q 243 802 264 823 q 190 780 221 780 q 137 802 159 780 q 115 854 115 823 q 137 907 115 885 q 190 929 159 929 q 243 907 221 929 q 264 854 264 885 m 644 854 q 623 802 644 823 q 570 780 601 780 q 517 802 539 780 q 495 854 495 823 q 517 907 495 885 q 570 929 539 929 q 623 907 601 929 q 644 854 644 885 m 264 665 q 243 612 264 633 q 190 590 221 590 q 137 612 159 590 q 115 665 115 633 q 137 717 115 695 q 190 739 159 739 q 243 717 221 739 q 264 665 264 695 m 644 665 q 623 612 644 633 q 570 590 601 590 q 517 612 539 590 q 495 665 495 633 q 517 717 495 695 q 570 739 539 739 q 623 717 601 739 q 644 665 644 695 m 264 475 q 243 422 264 444 q 190 400 221 400 q 137 422 159 400 q 115 475 115 444 q 137 527 115 505 q 190 549 159 549 q 243 527 221 549 q 264 475 264 505 m 644 475 q 623 422 644 444 q 570 400 601 400 q 517 422 539 400 q 495 475 495 444 q 517 527 495 505 q 570 549 539 549 q 623 527 601 549 q 644 475 644 505 m 264 285 q 243 232 264 254 q 190 210 221 210 q 137 232 159 210 q 115 285 115 254 q 137 337 115 315 q 190 359 159 359 q 243 337 221 359 q 264 285 264 315 m 644 285 q 623 232 644 254 q 570 210 601 210 q 517 232 539 210 q 495 285 495 254 q 517 337 495 315 q 570 359 539 359 q 623 337 601 359 q 644 285 644 315 m 264 95 q 243 42 264 64 q 190 20 221 20 q 137 42 159 20 q 115 95 115 64 q 137 148 115 125 q 190 170 159 170 q 243 148 221 170 q 264 95 264 125 m 454 95 q 433 42 454 64 q 380 20 411 20 q 327 42 349 20 q 305 95 305 64 q 327 148 305 125 q 380 170 349 170 q 433 148 411 170 q 454 95 454 125 m 644 95 q 623 42 644 64 q 570 20 601 20 q 517 42 539 20 q 495 95 495 64 q 517 148 495 125 q 570 170 539 170 q 623 148 601 170 q 644 95 644 125 z "},"v":{"ha":760,"x_min":115,"x_max":644,"o":"m 264 854 q 243 802 264 823 q 190 780 221 780 q 137 802 159 780 q 115 854 115 823 q 137 907 115 885 q 190 929 159 929 q 243 907 221 929 q 264 854 264 885 m 644 854 q 623 802 644 823 q 570 780 601 780 q 517 802 539 780 q 495 854 495 823 q 517 907 495 885 q 570 929 539 929 q 623 907 601 929 q 644 854 644 885 m 264 665 q 243 612 264 633 q 190 590 221 590 q 137 612 159 590 q 115 665 115 633 q 137 717 115 695 q 190 739 159 739 q 243 717 221 739 q 264 665 264 695 m 644 665 q 623 612 644 633 q 570 590 601 590 q 517 612 539 590 q 495 665 495 633 q 517 717 495 695 q 570 739 539 739 q 623 717 601 739 q 644 665 644 695 m 264 475 q 243 422 264 444 q 190 400 221 400 q 137 422 159 400 q 115 475 115 444 q 137 527 115 505 q 190 549 159 549 q 243 527 221 549 q 264 475 264 505 m 644 475 q 623 422 644 444 q 570 400 601 400 q 517 422 539 400 q 495 475 495 444 q 517 527 495 505 q 570 549 539 549 q 623 527 601 549 q 644 475 644 505 m 454 285 q 433 232 454 254 q 380 210 411 210 q 327 232 349 210 q 305 285 305 254 q 327 337 305 315 q 380 359 349 359 q 433 337 411 359 q 454 285 454 315 m 454 95 q 433 42 454 64 q 380 20 411 20 q 327 42 349 20 q 305 95 305 64 q 327 148 305 125 q 380 170 349 170 q 433 148 411 170 q 454 95 454 125 z "},"w":{"ha":760,"x_min":115,"x_max":644,"o":"m 264 854 q 243 802 264 823 q 190 780 221 780 q 137 802 159 780 q 115 854 115 823 q 137 907 115 885 q 190 929 159 929 q 243 907 221 929 q 264 854 264 885 m 644 854 q 623 802 644 823 q 570 780 601 780 q 517 802 539 780 q 495 854 495 823 q 517 907 495 885 q 570 929 539 929 q 623 907 601 929 q 644 854 644 885 m 264 665 q 243 612 264 633 q 190 590 221 590 q 137 612 159 590 q 115 665 115 633 q 137 717 115 695 q 190 739 159 739 q 243 717 221 739 q 264 665 264 695 m 644 665 q 623 612 644 633 q 570 590 601 590 q 517 612 539 590 q 495 665 495 633 q 517 717 495 695 q 570 739 539 739 q 623 717 601 739 q 644 665 644 695 m 264 475 q 243 422 264 444 q 190 400 221 400 q 137 422 159 400 q 115 475 115 444 q 137 527 115 505 q 190 549 159 549 q 243 527 221 549 q 264 475 264 505 m 644 475 q 623 422 644 444 q 570 400 601 400 q 517 422 539 400 q 495 475 495 444 q 517 527 495 505 q 570 549 539 549 q 623 527 601 549 q 644 475 644 505 m 264 285 q 243 232 264 254 q 190 210 221 210 q 137 232 159 210 q 115 285 115 254 q 137 337 115 315 q 190 359 159 359 q 243 337 221 359 q 264 285 264 315 m 454 285 q 433 232 454 254 q 380 210 411 210 q 327 232 349 210 q 305 285 305 254 q 327 337 305 315 q 380 359 349 359 q 433 337 411 359 q 454 285 454 315 m 644 285 q 623 232 644 254 q 570 210 601 210 q 517 232 539 210 q 495 285 495 254 q 517 337 495 315 q 570 359 539 359 q 623 337 601 359 q 644 285 644 315 m 264 95 q 243 42 264 64 q 190 20 221 20 q 137 42 159 20 q 115 95 115 64 q 137 148 115 125 q 190 170 159 170 q 243 148 221 170 q 264 95 264 125 m 644 95 q 623 42 644 64 q 570 20 601 20 q 517 42 539 20 q 495 95 495 64 q 517 148 495 125 q 570 170 539 170 q 623 148 601 170 q 644 95 644 125 z "},"x":{"ha":760,"x_min":115,"x_max":644,"o":"m 264 854 q 243 802 264 823 q 190 780 221 780 q 137 802 159 780 q 115 854 115 823 q 137 907 115 885 q 190 929 159 929 q 243 907 221 929 q 264 854 264 885 m 644 854 q 623 802 644 823 q 570 780 601 780 q 517 802 539 780 q 495 854 495 823 q 517 907 495 885 q 570 929 539 929 q 623 907 601 929 q 644 854 644 885 m 264 665 q 243 612 264 633 q 190 590 221 590 q 137 612 159 590 q 115 665 115 633 q 137 717 115 695 q 190 739 159 739 q 243 717 221 739 q 264 665 264 695 m 644 665 q 623 612 644 633 q 570 590 601 590 q 517 612 539 590 q 495 665 495 633 q 517 717 495 695 q 570 739 539 739 q 623 717 601 739 q 644 665 644 695 m 454 475 q 433 422 454 444 q 380 400 411 400 q 327 422 349 400 q 305 475 305 444 q 327 527 305 505 q 380 549 349 549 q 433 527 411 549 q 454 475 454 505 m 264 285 q 243 232 264 254 q 190 210 221 210 q 137 232 159 210 q 115 285 115 254 q 137 337 115 315 q 190 359 159 359 q 243 337 221 359 q 264 285 264 315 m 644 285 q 623 232 644 254 q 570 210 601 210 q 517 232 539 210 q 495 285 495 254 q 517 337 495 315 q 570 359 539 359 q 623 337 601 359 q 644 285 644 315 m 264 95 q 243 42 264 64 q 190 20 221 20 q 137 42 159 20 q 115 95 115 64 q 137 148 115 125 q 190 170 159 170 q 243 148 221 170 q 264 95 264 125 m 644 95 q 623 42 644 64 q 570 20 601 20 q 517 42 539 20 q 495 95 495 64 q 517 148 495 125 q 570 170 539 170 q 623 148 601 170 q 644 95 644 125 z "},"y":{"ha":760,"x_min":115,"x_max":644,"o":"m 264 854 q 243 802 264 823 q 190 780 221 780 q 137 802 159 780 q 115 854 115 823 q 137 907 115 885 q 190 929 159 929 q 243 907 221 929 q 264 854 264 885 m 644 854 q 623 802 644 823 q 570 780 601 780 q 517 802 539 780 q 495 854 495 823 q 517 907 495 885 q 570 929 539 929 q 623 907 601 929 q 644 854 644 885 m 264 665 q 243 612 264 633 q 190 590 221 590 q 137 612 159 590 q 115 665 115 633 q 137 717 115 695 q 190 739 159 739 q 243 717 221 739 q 264 665 264 695 m 644 665 q 623 612 644 633 q 570 590 601 590 q 517 612 539 590 q 495 665 495 633 q 517 717 495 695 q 570 739 539 739 q 623 717 601 739 q 644 665 644 695 m 454 475 q 433 422 454 444 q 380 400 411 400 q 327 422 349 400 q 305 475 305 444 q 327 527 305 505 q 380 549 349 549 q 433 527 411 549 q 454 475 454 505 m 454 285 q 433 232 454 254 q 380 210 411 210 q 327 232 349 210 q 305 285 305 254 q 327 337 305 315 q 380 359 349 359 q 433 337 411 359 q 454 285 454 315 m 454 95 q 433 42 454 64 q 380 20 411 20 q 327 42 349 20 q 305 95 305 64 q 327 148 305 125 q 380 170 349 170 q 433 148 411 170 q 454 95 454 125 z "},"z":{"ha":760,"x_min":115,"x_max":644,"o":"m 264 854 q 243 802 264 823 q 190 780 221 780 q 137 802 159 780 q 115 854 115 823 q 137 907 115 885 q 190 929 159 929 q 243 907 221 929 q 264 854 264 885 m 454 854 q 433 802 454 823 q 380 780 411 780 q 327 802 349 780 q 305 854 305 823 q 327 907 305 885 q 380 929 349 929 q 433 907 411 929 q 454 854 454 885 m 644 854 q 623 802 644 823 q 570 780 601 780 q 517 802 539 780 q 495 854 495 823 q 517 907 495 885 q 570 929 539 929 q 623 907 601 929 q 644 854 644 885 m 644 665 q 623 612 644 633 q 570 590 601 590 q 517 612 539 590 q 495 665 495 633 q 517 717 495 695 q 570 739 539 739 q 623 717 601 739 q 644 665 644 695 m 454 475 q 433 422 454 444 q 380 400 411 400 q 327 422 349 400 q 305 475 305 444 q 327 527 305 505 q 380 549 349 549 q 433 527 411 549 q 454 475 454 505 m 264 285 q 243 232 264 254 q 190 210 221 210 q 137 232 159 210 q 115 285 115 254 q 137 337 115 315 q 190 359 159 359 q 243 337 221 359 q 264 285 264 315 m 264 95 q 243 42 264 64 q 190 20 221 20 q 137 42 159 20 q 115 95 115 64 q 137 148 115 125 q 190 170 159 170 q 243 148 221 170 q 264 95 264 125 m 454 95 q 433 42 454 64 q 380 20 411 20 q 327 42 349 20 q 305 95 305 64 q 327 148 305 125 q 380 170 349 170 q 433 148 411 170 q 454 95 454 125 m 644 95 q 623 42 644 64 q 570 20 601 20 q 517 42 539 20 q 495 95 495 64 q 517 148 495 125 q 570 170 539 170 q 623 148 601 170 q 644 95 644 125 z "},"{":{"ha":760,"x_min":115,"x_max":644,"o":"m 454 854 q 433 802 454 823 q 380 780 411 780 q 327 802 349 780 q 305 854 305 823 q 327 907 305 885 q 380 929 349 929 q 433 907 411 929 q 454 854 454 885 m 644 854 q 623 802 644 823 q 570 780 601 780 q 517 802 539 780 q 495 854 495 823 q 517 907 495 885 q 570 929 539 929 q 623 907 601 929 q 644 854 644 885 m 454 665 q 433 612 454 633 q 380 590 411 590 q 327 612 349 590 q 305 665 305 633 q 327 717 305 695 q 380 739 349 739 q 433 717 411 739 q 454 665 454 695 m 264 475 q 243 422 264 444 q 190 400 221 400 q 137 422 159 400 q 115 475 115 444 q 137 527 115 505 q 190 549 159 549 q 243 527 221 549 q 264 475 264 505 m 454 475 q 433 422 454 444 q 380 400 411 400 q 327 422 349 400 q 305 475 305 444 q 327 527 305 505 q 380 549 349 549 q 433 527 411 549 q 454 475 454 505 m 454 285 q 433 232 454 254 q 380 210 411 210 q 327 232 349 210 q 305 285 305 254 q 327 337 305 315 q 380 359 349 359 q 433 337 411 359 q 454 285 454 315 m 454 95 q 433 42 454 64 q 380 20 411 20 q 327 42 349 20 q 305 95 305 64 q 327 148 305 125 q 380 170 349 170 q 433 148 411 170 q 454 95 454 125 m 644 95 q 623 42 644 64 q 570 20 601 20 q 517 42 539 20 q 495 95 495 64 q 517 148 495 125 q 570 170 539 170 q 623 148 601 170 q 644 95 644 125 z "},"|":{"ha":760,"x_min":305,"x_max":454,"o":"m 454 854 q 433 802 454 823 q 380 780 411 780 q 327 802 349 780 q 305 854 305 823 q 327 907 305 885 q 380 929 349 929 q 433 907 411 929 q 454 854 454 885 m 454 665 q 433 612 454 633 q 380 590 411 590 q 327 612 349 590 q 305 665 305 633 q 327 717 305 695 q 380 739 349 739 q 433 717 411 739 q 454 665 454 695 m 454 475 q 433 422 454 444 q 380 400 411 400 q 327 422 349 400 q 305 475 305 444 q 327 527 305 505 q 380 549 349 549 q 433 527 411 549 q 454 475 454 505 m 454 285 q 433 232 454 254 q 380 210 411 210 q 327 232 349 210 q 305 285 305 254 q 327 337 305 315 q 380 359 349 359 q 433 337 411 359 q 454 285 454 315 m 454 95 q 433 42 454 64 q 380 20 411 20 q 327 42 349 20 q 305 95 305 64 q 327 148 305 125 q 380 170 349 170 q 433 148 411 170 q 454 95 454 125 z "},"}":{"ha":760,"x_min":115,"x_max":644,"o":"m 264 854 q 243 802 264 823 q 190 780 221 780 q 137 802 159 780 q 115 854 115 823 q 137 907 115 885 q 190 929 159 929 q 243 907 221 929 q 264 854 264 885 m 454 854 q 433 802 454 823 q 380 780 411 780 q 327 802 349 780 q 305 854 305 823 q 327 907 305 885 q 380 929 349 929 q 433 907 411 929 q 454 854 454 885 m 454 665 q 433 612 454 633 q 380 590 411 590 q 327 612 349 590 q 305 665 305 633 q 327 717 305 695 q 380 739 349 739 q 433 717 411 739 q 454 665 454 695 m 454 475 q 433 422 454 444 q 380 400 411 400 q 327 422 349 400 q 305 475 305 444 q 327 527 305 505 q 380 549 349 549 q 433 527 411 549 q 454 475 454 505 m 644 475 q 623 422 644 444 q 570 400 601 400 q 517 422 539 400 q 495 475 495 444 q 517 527 495 505 q 570 549 539 549 q 623 527 601 549 q 644 475 644 505 m 454 285 q 433 232 454 254 q 380 210 411 210 q 327 232 349 210 q 305 285 305 254 q 327 337 305 315 q 380 359 349 359 q 433 337 411 359 q 454 285 454 315 m 264 95 q 243 42 264 64 q 190 20 221 20 q 137 42 159 20 q 115 95 115 64 q 137 148 115 125 q 190 170 159 170 q 243 148 221 170 q 264 95 264 125 m 454 95 q 433 42 454 64 q 380 20 411 20 q 327 42 349 20 q 305 95 305 64 q 327 148 305 125 q 380 170 349 170 q 433 148 411 170 q 454 95 454 125 z "},"¢":{"ha":760,"x_min":115,"x_max":644,"o":"m 454 854 q 433 802 454 823 q 380 780 411 780 q 327 802 349 780 q 305 854 305 823 q 327 907 305 885 q 380 929 349 929 q 433 907 411 929 q 454 854 454 885 m 264 665 q 243 612 264 633 q 190 590 221 590 q 137 612 159 590 q 115 665 115 633 q 137 717 115 695 q 190 739 159 739 q 243 717 221 739 q 264 665 264 695 m 454 665 q 433 612 454 633 q 380 590 411 590 q 327 612 349 590 q 305 665 305 633 q 327 717 305 695 q 380 739 349 739 q 433 717 411 739 q 454 665 454 695 m 644 665 q 623 612 644 633 q 570 590 601 590 q 517 612 539 590 q 495 665 495 633 q 517 717 495 695 q 570 739 539 739 q 623 717 601 739 q 644 665 644 695 m 264 475 q 243 422 264 444 q 190 400 221 400 q 137 422 159 400 q 115 475 115 444 q 137 527 115 505 q 190 549 159 549 q 243 527 221 549 q 264 475 264 505 m 454 475 q 433 422 454 444 q 380 400 411 400 q 327 422 349 400 q 305 475 305 444 q 327 527 305 505 q 380 549 349 549 q 433 527 411 549 q 454 475 454 505 m 264 285 q 243 232 264 254 q 190 210 221 210 q 137 232 159 210 q 115 285 115 254 q 137 337 115 315 q 190 359 159 359 q 243 337 221 359 q 264 285 264 315 m 454 285 q 433 232 454 254 q 380 210 411 210 q 327 232 349 210 q 305 285 305 254 q 327 337 305 315 q 380 359 349 359 q 433 337 411 359 q 454 285 454 315 m 644 285 q 623 232 644 254 q 570 210 601 210 q 517 232 539 210 q 495 285 495 254 q 517 337 495 315 q 570 359 539 359 q 623 337 601 359 q 644 285 644 315 m 454 95 q 433 42 454 64 q 380 20 411 20 q 327 42 349 20 q 305 95 305 64 q 327 148 305 125 q 380 170 349 170 q 433 148 411 170 q 454 95 454 125 z "},"¦":{"ha":760,"x_min":305,"x_max":454,"o":"m 454 854 q 433 802 454 823 q 380 780 411 780 q 327 802 349 780 q 305 854 305 823 q 327 907 305 885 q 380 929 349 929 q 433 907 411 929 q 454 854 454 885 m 454 665 q 433 612 454 633 q 380 590 411 590 q 327 612 349 590 q 305 665 305 633 q 327 717 305 695 q 380 739 349 739 q 433 717 411 739 q 454 665 454 695 m 454 285 q 433 232 454 254 q 380 210 411 210 q 327 232 349 210 q 305 285 305 254 q 327 337 305 315 q 380 359 349 359 q 433 337 411 359 q 454 285 454 315 m 454 95 q 433 42 454 64 q 380 20 411 20 q 327 42 349 20 q 305 95 305 64 q 327 148 305 125 q 380 170 349 170 q 433 148 411 170 q 454 95 454 125 z "},"¬":{"ha":760,"x_min":115,"x_max":644,"o":"m 264 475 q 243 422 264 444 q 190 400 221 400 q 137 422 159 400 q 115 475 115 444 q 137 527 115 505 q 190 549 159 549 q 243 527 221 549 q 264 475 264 505 m 454 475 q 433 422 454 444 q 380 400 411 400 q 327 422 349 400 q 305 475 305 444 q 327 527 305 505 q 380 549 349 549 q 433 527 411 549 q 454 475 454 505 m 644 475 q 623 422 644 444 q 570 400 601 400 q 517 422 539 400 q 495 475 495 444 q 517 527 495 505 q 570 549 539 549 q 623 527 601 549 q 644 475 644 505 m 644 285 q 623 232 644 254 q 570 210 601 210 q 517 232 539 210 q 495 285 495 254 q 517 337 495 315 q 570 359 539 359 q 623 337 601 359 q 644 285 644 315 z "},"±":{"ha":760,"x_min":115,"x_max":644,"o":"m 454 854 q 433 802 454 823 q 380 780 411 780 q 327 802 349 780 q 305 854 305 823 q 327 907 305 885 q 380 929 349 929 q 433 907 411 929 q 454 854 454 885 m 264 665 q 243 612 264 633 q 190 590 221 590 q 137 612 159 590 q 115 665 115 633 q 137 717 115 695 q 190 739 159 739 q 243 717 221 739 q 264 665 264 695 m 454 665 q 433 612 454 633 q 380 590 411 590 q 327 612 349 590 q 305 665 305 633 q 327 717 305 695 q 380 739 349 739 q 433 717 411 739 q 454 665 454 695 m 644 665 q 623 612 644 633 q 570 590 601 590 q 517 612 539 590 q 495 665 495 633 q 517 717 495 695 q 570 739 539 739 q 623 717 601 739 q 644 665 644 695 m 454 475 q 433 422 454 444 q 380 400 411 400 q 327 422 349 400 q 305 475 305 444 q 327 527 305 505 q 380 549 349 549 q 433 527 411 549 q 454 475 454 505 m 264 95 q 243 42 264 64 q 190 20 221 20 q 137 42 159 20 q 115 95 115 64 q 137 148 115 125 q 190 170 159 170 q 243 148 221 170 q 264 95 264 125 m 454 95 q 433 42 454 64 q 380 20 411 20 q 327 42 349 20 q 305 95 305 64 q 327 148 305 125 q 380 170 349 170 q 433 148 411 170 q 454 95 454 125 m 644 95 q 623 42 644 64 q 570 20 601 20 q 517 42 539 20 q 495 95 495 64 q 517 148 495 125 q 570 170 539 170 q 623 148 601 170 q 644 95 644 125 z "},"µ":{"ha":760,"x_min":115,"x_max":644,"o":"m 264 854 q 243 802 264 823 q 190 780 221 780 q 137 802 159 780 q 115 854 115 823 q 137 907 115 885 q 190 929 159 929 q 243 907 221 929 q 264 854 264 885 m 644 854 q 623 802 644 823 q 570 780 601 780 q 517 802 539 780 q 495 854 495 823 q 517 907 495 885 q 570 929 539 929 q 623 907 601 929 q 644 854 644 885 m 264 665 q 243 612 264 633 q 190 590 221 590 q 137 612 159 590 q 115 665 115 633 q 137 717 115 695 q 190 739 159 739 q 243 717 221 739 q 264 665 264 695 m 644 665 q 623 612 644 633 q 570 590 601 590 q 517 612 539 590 q 495 665 495 633 q 517 717 495 695 q 570 739 539 739 q 623 717 601 739 q 644 665 644 695 m 264 475 q 243 422 264 444 q 190 400 221 400 q 137 422 159 400 q 115 475 115 444 q 137 527 115 505 q 190 549 159 549 q 243 527 221 549 q 264 475 264 505 m 644 475 q 623 422 644 444 q 570 400 601 400 q 517 422 539 400 q 495 475 495 444 q 517 527 495 505 q 570 549 539 549 q 623 527 601 549 q 644 475 644 505 m 264 285 q 243 232 264 254 q 190 210 221 210 q 137 232 159 210 q 115 285 115 254 q 137 337 115 315 q 190 359 159 359 q 243 337 221 359 q 264 285 264 315 m 454 285 q 433 232 454 254 q 380 210 411 210 q 327 232 349 210 q 305 285 305 254 q 327 337 305 315 q 380 359 349 359 q 433 337 411 359 q 454 285 454 315 m 264 95 q 243 42 264 64 q 190 20 221 20 q 137 42 159 20 q 115 95 115 64 q 137 148 115 125 q 190 170 159 170 q 243 148 221 170 q 264 95 264 125 z "},"·":{"ha":760,"x_min":305,"x_max":454,"o":"m 454 475 q 433 422 454 444 q 380 400 411 400 q 327 422 349 400 q 305 475 305 444 q 327 527 305 505 q 380 549 349 549 q 433 527 411 549 q 454 475 454 505 z "},"∙":{"ha":760,"x_min":305,"x_max":454,"o":"m 454 475 q 433 422 454 444 q 380 400 411 400 q 327 422 349 400 q 305 475 305 444 q 327 527 305 505 q 380 549 349 549 q 433 527 411 549 q 454 475 454 505 z "},"×":{"ha":760,"x_min":115,"x_max":644,"o":"m 264 665 q 243 612 264 633 q 190 590 221 590 q 137 612 159 590 q 115 665 115 633 q 137 717 115 695 q 190 739 159 739 q 243 717 221 739 q 264 665 264 695 m 644 665 q 623 612 644 633 q 570 590 601 590 q 517 612 539 590 q 495 665 495 633 q 517 717 495 695 q 570 739 539 739 q 623 717 601 739 q 644 665 644 695 m 454 475 q 433 422 454 444 q 380 400 411 400 q 327 422 349 400 q 305 475 305 444 q 327 527 305 505 q 380 549 349 549 q 433 527 411 549 q 454 475 454 505 m 264 285 q 243 232 264 254 q 190 210 221 210 q 137 232 159 210 q 115 285 115 254 q 137 337 115 315 q 190 359 159 359 q 243 337 221 359 q 264 285 264 315 m 644 285 q 623 232 644 254 q 570 210 601 210 q 517 232 539 210 q 495 285 495 254 q 517 337 495 315 q 570 359 539 359 q 623 337 601 359 q 644 285 644 315 z "},"÷":{"ha":760,"x_min":115,"x_max":644,"o":"m 454 854 q 433 802 454 823 q 380 780 411 780 q 327 802 349 780 q 305 854 305 823 q 327 907 305 885 q 380 929 349 929 q 433 907 411 929 q 454 854 454 885 m 264 475 q 243 422 264 444 q 190 400 221 400 q 137 422 159 400 q 115 475 115 444 q 137 527 115 505 q 190 549 159 549 q 243 527 221 549 q 264 475 264 505 m 454 475 q 433 422 454 444 q 380 400 411 400 q 327 422 349 400 q 305 475 305 444 q 327 527 305 505 q 380 549 349 549 q 433 527 411 549 q 454 475 454 505 m 644 475 q 623 422 644 444 q 570 400 601 400 q 517 422 539 400 q 495 475 495 444 q 517 527 495 505 q 570 549 539 549 q 623 527 601 549 q 644 475 644 505 m 454 95 q 433 42 454 64 q 380 20 411 20 q 327 42 349 20 q 305 95 305 64 q 327 148 305 125 q 380 170 349 170 q 433 148 411 170 q 454 95 454 125 z "},"–":{"ha":760,"x_min":115,"x_max":644,"o":"m 264 475 q 243 422 264 444 q 190 400 221 400 q 137 422 159 400 q 115 475 115 444 q 137 527 115 505 q 190 549 159 549 q 243 527 221 549 q 264 475 264 505 m 454 475 q 433 422 454 444 q 380 400 411 400 q 327 422 349 400 q 305 475 305 444 q 327 527 305 505 q 380 549 349 549 q 433 527 411 549 q 454 475 454 505 m 644 475 q 623 422 644 444 q 570 400 601 400 q 517 422 539 400 q 495 475 495 444 q 517 527 495 505 q 570 549 539 549 q 623 527 601 549 q 644 475 644 505 z "},"—":{"ha":760,"x_min":115,"x_max":644,"o":"m 264 475 q 243 422 264 444 q 190 400 221 400 q 137 422 159 400 q 115 475 115 444 q 137 527 115 505 q 190 549 159 549 q 243 527 221 549 q 264 475 264 505 m 454 475 q 433 422 454 444 q 380 400 411 400 q 327 422 349 400 q 305 475 305 444 q 327 527 305 505 q 380 549 349 549 q 433 527 411 549 q 454 475 454 505 m 644 475 q 623 422 644 444 q 570 400 601 400 q 517 422 539 400 q 495 475 495 444 q 517 527 495 505 q 570 549 539 549 q 623 527 601 549 q 644 475 644 505 z "},"‘":{"ha":760,"x_min":305,"x_max":454,"o":"m 454 854 q 433 802 454 823 q 380 780 411 780 q 327 802 349 780 q 305 854 305 823 q 327 907 305 885 q 380 929 349 929 q 433 907 411 929 q 454 854 454 885 m 454 665 q 433 612 454 633 q 380 590 411 590 q 327 612 349 590 q 305 665 305 633 q 327 717 305 695 q 380 739 349 739 q 433 717 411 739 q 454 665 454 695 z "},"’":{"ha":760,"x_min":305,"x_max":454,"o":"m 454 854 q 433 802 454 823 q 380 780 411 780 q 327 802 349 780 q 305 854 305 823 q 327 907 305 885 q 380 929 349 929 q 433 907 411 929 q 454 854 454 885 m 454 665 q 433 612 454 633 q 380 590 411 590 q 327 612 349 590 q 305 665 305 633 q 327 717 305 695 q 380 739 349 739 q 433 717 411 739 q 454 665 454 695 z "},"‚":{"ha":760,"x_min":305,"x_max":454,"o":"m 454 285 q 433 232 454 254 q 380 210 411 210 q 327 232 349 210 q 305 285 305 254 q 327 337 305 315 q 380 359 349 359 q 433 337 411 359 q 454 285 454 315 m 454 95 q 433 42 454 64 q 380 20 411 20 q 327 42 349 20 q 305 95 305 64 q 327 148 305 125 q 380 170 349 170 q 433 148 411 170 q 454 95 454 125 z "},"“":{"ha":760,"x_min":115,"x_max":644,"o":"m 264 854 q 243 802 264 823 q 190 780 221 780 q 137 802 159 780 q 115 854 115 823 q 137 907 115 885 q 190 929 159 929 q 243 907 221 929 q 264 854 264 885 m 644 854 q 623 802 644 823 q 570 780 601 780 q 517 802 539 780 q 495 854 495 823 q 517 907 495 885 q 570 929 539 929 q 623 907 601 929 q 644 854 644 885 m 264 665 q 243 612 264 633 q 190 590 221 590 q 137 612 159 590 q 115 665 115 633 q 137 717 115 695 q 190 739 159 739 q 243 717 221 739 q 264 665 264 695 m 644 665 q 623 612 644 633 q 570 590 601 590 q 517 612 539 590 q 495 665 495 633 q 517 717 495 695 q 570 739 539 739 q 623 717 601 739 q 644 665 644 695 z "},"”":{"ha":760,"x_min":115,"x_max":644,"o":"m 264 854 q 243 802 264 823 q 190 780 221 780 q 137 802 159 780 q 115 854 115 823 q 137 907 115 885 q 190 929 159 929 q 243 907 221 929 q 264 854 264 885 m 644 854 q 623 802 644 823 q 570 780 601 780 q 517 802 539 780 q 495 854 495 823 q 517 907 495 885 q 570 929 539 929 q 623 907 601 929 q 644 854 644 885 m 264 665 q 243 612 264 633 q 190 590 221 590 q 137 612 159 590 q 115 665 115 633 q 137 717 115 695 q 190 739 159 739 q 243 717 221 739 q 264 665 264 695 m 644 665 q 623 612 644 633 q 570 590 601 590 q 517 612 539 590 q 495 665 495 633 q 517 717 495 695 q 570 739 539 739 q 623 717 601 739 q 644 665 644 695 z "},"„":{"ha":760,"x_min":115,"x_max":644,"o":"m 264 285 q 243 232 264 254 q 190 210 221 210 q 137 232 159 210 q 115 285 115 254 q 137 337 115 315 q 190 359 159 359 q 243 337 221 359 q 264 285 264 315 m 644 285 q 623 232 644 254 q 570 210 601 210 q 517 232 539 210 q 495 285 495 254 q 517 337 495 315 q 570 359 539 359 q 623 337 601 359 q 644 285 644 315 m 264 95 q 243 42 264 64 q 190 20 221 20 q 137 42 159 20 q 115 95 115 64 q 137 148 115 125 q 190 170 159 170 q 243 148 221 170 q 264 95 264 125 m 644 95 q 623 42 644 64 q 570 20 601 20 q 517 42 539 20 q 495 95 495 64 q 517 148 495 125 q 570 170 539 170 q 623 148 601 170 q 644 95 644 125 z "},"†":{"ha":760,"x_min":115,"x_max":644,"o":"m 454 854 q 433 802 454 823 q 380 780 411 780 q 327 802 349 780 q 305 854 305 823 q 327 907 305 885 q 380 929 349 929 q 433 907 411 929 q 454 854 454 885 m 264 665 q 243 612 264 633 q 190 590 221 590 q 137 612 159 590 q 115 665 115 633 q 137 717 115 695 q 190 739 159 739 q 243 717 221 739 q 264 665 264 695 m 454 665 q 433 612 454 633 q 380 590 411 590 q 327 612 349 590 q 305 665 305 633 q 327 717 305 695 q 380 739 349 739 q 433 717 411 739 q 454 665 454 695 m 644 665 q 623 612 644 633 q 570 590 601 590 q 517 612 539 590 q 495 665 495 633 q 517 717 495 695 q 570 739 539 739 q 623 717 601 739 q 644 665 644 695 m 454 475 q 433 422 454 444 q 380 400 411 400 q 327 422 349 400 q 305 475 305 444 q 327 527 305 505 q 380 549 349 549 q 433 527 411 549 q 454 475 454 505 m 454 285 q 433 232 454 254 q 380 210 411 210 q 327 232 349 210 q 305 285 305 254 q 327 337 305 315 q 380 359 349 359 q 433 337 411 359 q 454 285 454 315 m 454 95 q 433 42 454 64 q 380 20 411 20 q 327 42 349 20 q 305 95 305 64 q 327 148 305 125 q 380 170 349 170 q 433 148 411 170 q 454 95 454 125 z "},"‡":{"ha":760,"x_min":115,"x_max":644,"o":"m 454 854 q 433 802 454 823 q 380 780 411 780 q 327 802 349 780 q 305 854 305 823 q 327 907 305 885 q 380 929 349 929 q 433 907 411 929 q 454 854 454 885 m 264 665 q 243 612 264 633 q 190 590 221 590 q 137 612 159 590 q 115 665 115 633 q 137 717 115 695 q 190 739 159 739 q 243 717 221 739 q 264 665 264 695 m 454 665 q 433 612 454 633 q 380 590 411 590 q 327 612 349 590 q 305 665 305 633 q 327 717 305 695 q 380 739 349 739 q 433 717 411 739 q 454 665 454 695 m 644 665 q 623 612 644 633 q 570 590 601 590 q 517 612 539 590 q 495 665 495 633 q 517 717 495 695 q 570 739 539 739 q 623 717 601 739 q 644 665 644 695 m 454 475 q 433 422 454 444 q 380 400 411 400 q 327 422 349 400 q 305 475 305 444 q 327 527 305 505 q 380 549 349 549 q 433 527 411 549 q 454 475 454 505 m 264 285 q 243 232 264 254 q 190 210 221 210 q 137 232 159 210 q 115 285 115 254 q 137 337 115 315 q 190 359 159 359 q 243 337 221 359 q 264 285 264 315 m 454 285 q 433 232 454 254 q 380 210 411 210 q 327 232 349 210 q 305 285 305 254 q 327 337 305 315 q 380 359 349 359 q 433 337 411 359 q 454 285 454 315 m 644 285 q 623 232 644 254 q 570 210 601 210 q 517 232 539 210 q 495 285 495 254 q 517 337 495 315 q 570 359 539 359 q 623 337 601 359 q 644 285 644 315 m 454 95 q 433 42 454 64 q 380 20 411 20 q 327 42 349 20 q 305 95 305 64 q 327 148 305 125 q 380 170 349 170 q 433 148 411 170 q 454 95 454 125 z "},"⁄":{"ha":760,"x_min":115,"x_max":644,"o":"m 644 854 q 623 802 644 823 q 570 780 601 780 q 517 802 539 780 q 495 854 495 823 q 517 907 495 885 q 570 929 539 929 q 623 907 601 929 q 644 854 644 885 m 644 665 q 623 612 644 633 q 570 590 601 590 q 517 612 539 590 q 495 665 495 633 q 517 717 495 695 q 570 739 539 739 q 623 717 601 739 q 644 665 644 695 m 454 475 q 433 422 454 444 q 380 400 411 400 q 327 422 349 400 q 305 475 305 444 q 327 527 305 505 q 380 549 349 549 q 433 527 411 549 q 454 475 454 505 m 264 285 q 243 232 264 254 q 190 210 221 210 q 137 232 159 210 q 115 285 115 254 q 137 337 115 315 q 190 359 159 359 q 243 337 221 359 q 264 285 264 315 m 264 95 q 243 42 264 64 q 190 20 221 20 q 137 42 159 20 q 115 95 115 64 q 137 148 115 125 q 190 170 159 170 q 243 148 221 170 q 264 95 264 125 z "},"∕":{"ha":760,"x_min":115,"x_max":644,"o":"m 644 854 q 623 802 644 823 q 570 780 601 780 q 517 802 539 780 q 495 854 495 823 q 517 907 495 885 q 570 929 539 929 q 623 907 601 929 q 644 854 644 885 m 644 665 q 623 612 644 633 q 570 590 601 590 q 517 612 539 590 q 495 665 495 633 q 517 717 495 695 q 570 739 539 739 q 623 717 601 739 q 644 665 644 695 m 454 475 q 433 422 454 444 q 380 400 411 400 q 327 422 349 400 q 305 475 305 444 q 327 527 305 505 q 380 549 349 549 q 433 527 411 549 q 454 475 454 505 m 264 285 q 243 232 264 254 q 190 210 221 210 q 137 232 159 210 q 115 285 115 254 q 137 337 115 315 q 190 359 159 359 q 243 337 221 359 q 264 285 264 315 m 264 95 q 243 42 264 64 q 190 20 221 20 q 137 42 159 20 q 115 95 115 64 q 137 148 115 125 q 190 170 159 170 q 243 148 221 170 q 264 95 264 125 z "},"−":{"ha":760,"x_min":115,"x_max":644,"o":"m 264 475 q 243 422 264 444 q 190 400 221 400 q 137 422 159 400 q 115 475 115 444 q 137 527 115 505 q 190 549 159 549 q 243 527 221 549 q 264 475 264 505 m 454 475 q 433 422 454 444 q 380 400 411 400 q 327 422 349 400 q 305 475 305 444 q 327 527 305 505 q 380 549 349 549 q 433 527 411 549 q 454 475 454 505 m 644 475 q 623 422 644 444 q 570 400 601 400 q 517 422 539 400 q 495 475 495 444 q 517 527 495 505 q 570 549 539 549 q 623 527 601 549 q 644 475 644 505 z "},"≤":{"ha":760,"x_min":115,"x_max":644,"o":"m 454 854 q 433 802 454 823 q 380 780 411 780 q 327 802 349 780 q 305 854 305 823 q 327 907 305 885 q 380 929 349 929 q 433 907 411 929 q 454 854 454 885 m 644 854 q 623 802 644 823 q 570 780 601 780 q 517 802 539 780 q 495 854 495 823 q 517 907 495 885 q 570 929 539 929 q 623 907 601 929 q 644 854 644 885 m 264 665 q 243 612 264 633 q 190 590 221 590 q 137 612 159 590 q 115 665 115 633 q 137 717 115 695 q 190 739 159 739 q 243 717 221 739 q 264 665 264 695 m 454 475 q 433 422 454 444 q 380 400 411 400 q 327 422 349 400 q 305 475 305 444 q 327 527 305 505 q 380 549 349 549 q 433 527 411 549 q 454 475 454 505 m 644 475 q 623 422 644 444 q 570 400 601 400 q 517 422 539 400 q 495 475 495 444 q 517 527 495 505 q 570 549 539 549 q 623 527 601 549 q 644 475 644 505 m 264 95 q 243 42 264 64 q 190 20 221 20 q 137 42 159 20 q 115 95 115 64 q 137 148 115 125 q 190 170 159 170 q 243 148 221 170 q 264 95 264 125 m 454 95 q 433 42 454 64 q 380 20 411 20 q 327 42 349 20 q 305 95 305 64 q 327 148 305 125 q 380 170 349 170 q 433 148 411 170 q 454 95 454 125 m 644 95 q 623 42 644 64 q 570 20 601 20 q 517 42 539 20 q 495 95 495 64 q 517 148 495 125 q 570 170 539 170 q 623 148 601 170 q 644 95 644 125 z "},"≥":{"ha":760,"x_min":115,"x_max":644,"o":"m 264 854 q 243 802 264 823 q 190 780 221 780 q 137 802 159 780 q 115 854 115 823 q 137 907 115 885 q 190 929 159 929 q 243 907 221 929 q 264 854 264 885 m 454 854 q 433 802 454 823 q 380 780 411 780 q 327 802 349 780 q 305 854 305 823 q 327 907 305 885 q 380 929 349 929 q 433 907 411 929 q 454 854 454 885 m 644 665 q 623 612 644 633 q 570 590 601 590 q 517 612 539 590 q 495 665 495 633 q 517 717 495 695 q 570 739 539 739 q 623 717 601 739 q 644 665 644 695 m 264 475 q 243 422 264 444 q 190 400 221 400 q 137 422 159 400 q 115 475 115 444 q 137 527 115 505 q 190 549 159 549 q 243 527 221 549 q 264 475 264 505 m 454 475 q 433 422 454 444 q 380 400 411 400 q 327 422 349 400 q 305 475 305 444 q 327 527 305 505 q 380 549 349 549 q 433 527 411 549 q 454 475 454 505 m 264 95 q 243 42 264 64 q 190 20 221 20 q 137 42 159 20 q 115 95 115 64 q 137 148 115 125 q 190 170 159 170 q 243 148 221 170 q 264 95 264 125 m 454 95 q 433 42 454 64 q 380 20 411 20 q 327 42 349 20 q 305 95 305 64 q 327 148 305 125 q 380 170 349 170 q 433 148 411 170 q 454 95 454 125 m 644 95 q 623 42 644 64 q 570 20 601 20 q 517 42 539 20 q 495 95 495 64 q 517 148 495 125 q 570 170 539 170 q 623 148 601 170 q 644 95 644 125 z "},"¯":{"ha":760,"x_min":115,"x_max":644,"o":"m 264 854 q 243 802 264 823 q 190 780 221 780 q 137 802 159 780 q 115 854 115 823 q 137 907 115 885 q 190 929 159 929 q 243 907 221 929 q 264 854 264 885 m 454 854 q 433 802 454 823 q 380 780 411 780 q 327 802 349 780 q 305 854 305 823 q 327 907 305 885 q 380 929 349 929 q 433 907 411 929 q 454 854 454 885 m 644 854 q 623 802 644 823 q 570 780 601 780 q 517 802 539 780 q 495 854 495 823 q 517 907 495 885 q 570 929 539 929 q 623 907 601 929 q 644 854 644 885 z "},"Ā":{"ha":760,"x_min":115,"x_max":644,"o":"m 264 854 q 243 802 264 823 q 190 780 221 780 q 137 802 159 780 q 115 854 115 823 q 137 907 115 885 q 190 929 159 929 q 243 907 221 929 q 264 854 264 885 m 454 854 q 433 802 454 823 q 380 780 411 780 q 327 802 349 780 q 305 854 305 823 q 327 907 305 885 q 380 929 349 929 q 433 907 411 929 q 454 854 454 885 m 644 854 q 623 802 644 823 q 570 780 601 780 q 517 802 539 780 q 495 854 495 823 q 517 907 495 885 q 570 929 539 929 q 623 907 601 929 q 644 854 644 885 m 454 665 q 433 612 454 633 q 380 590 411 590 q 327 612 349 590 q 305 665 305 633 q 327 717 305 695 q 380 739 349 739 q 433 717 411 739 q 454 665 454 695 m 264 475 q 243 422 264 444 q 190 400 221 400 q 137 422 159 400 q 115 475 115 444 q 137 527 115 505 q 190 549 159 549 q 243 527 221 549 q 264 475 264 505 m 644 475 q 623 422 644 444 q 570 400 601 400 q 517 422 539 400 q 495 475 495 444 q 517 527 495 505 q 570 549 539 549 q 623 527 601 549 q 644 475 644 505 m 264 285 q 243 232 264 254 q 190 210 221 210 q 137 232 159 210 q 115 285 115 254 q 137 337 115 315 q 190 359 159 359 q 243 337 221 359 q 264 285 264 315 m 454 285 q 433 232 454 254 q 380 210 411 210 q 327 232 349 210 q 305 285 305 254 q 327 337 305 315 q 380 359 349 359 q 433 337 411 359 q 454 285 454 315 m 644 285 q 623 232 644 254 q 570 210 601 210 q 517 232 539 210 q 495 285 495 254 q 517 337 495 315 q 570 359 539 359 q 623 337 601 359 q 644 285 644 315 m 264 95 q 243 42 264 64 q 190 20 221 20 q 137 42 159 20 q 115 95 115 64 q 137 148 115 125 q 190 170 159 170 q 243 148 221 170 q 264 95 264 125 m 644 95 q 623 42 644 64 q 570 20 601 20 q 517 42 539 20 q 495 95 495 64 q 517 148 495 125 q 570 170 539 170 q 623 148 601 170 q 644 95 644 125 z "},"ā":{"ha":760,"x_min":115,"x_max":644,"o":"m 264 854 q 243 802 264 823 q 190 780 221 780 q 137 802 159 780 q 115 854 115 823 q 137 907 115 885 q 190 929 159 929 q 243 907 221 929 q 264 854 264 885 m 454 854 q 433 802 454 823 q 380 780 411 780 q 327 802 349 780 q 305 854 305 823 q 327 907 305 885 q 380 929 349 929 q 433 907 411 929 q 454 854 454 885 m 644 854 q 623 802 644 823 q 570 780 601 780 q 517 802 539 780 q 495 854 495 823 q 517 907 495 885 q 570 929 539 929 q 623 907 601 929 q 644 854 644 885 m 454 665 q 433 612 454 633 q 380 590 411 590 q 327 612 349 590 q 305 665 305 633 q 327 717 305 695 q 380 739 349 739 q 433 717 411 739 q 454 665 454 695 m 264 475 q 243 422 264 444 q 190 400 221 400 q 137 422 159 400 q 115 475 115 444 q 137 527 115 505 q 190 549 159 549 q 243 527 221 549 q 264 475 264 505 m 644 475 q 623 422 644 444 q 570 400 601 400 q 517 422 539 400 q 495 475 495 444 q 517 527 495 505 q 570 549 539 549 q 623 527 601 549 q 644 475 644 505 m 264 285 q 243 232 264 254 q 190 210 221 210 q 137 232 159 210 q 115 285 115 254 q 137 337 115 315 q 190 359 159 359 q 243 337 221 359 q 264 285 264 315 m 454 285 q 433 232 454 254 q 380 210 411 210 q 327 232 349 210 q 305 285 305 254 q 327 337 305 315 q 380 359 349 359 q 433 337 411 359 q 454 285 454 315 m 644 285 q 623 232 644 254 q 570 210 601 210 q 517 232 539 210 q 495 285 495 254 q 517 337 495 315 q 570 359 539 359 q 623 337 601 359 q 644 285 644 315 m 264 95 q 243 42 264 64 q 190 20 221 20 q 137 42 159 20 q 115 95 115 64 q 137 148 115 125 q 190 170 159 170 q 243 148 221 170 q 264 95 264 125 m 644 95 q 623 42 644 64 q 570 20 601 20 q 517 42 539 20 q 495 95 495 64 q 517 148 495 125 q 570 170 539 170 q 623 148 601 170 q 644 95 644 125 z "},"Ī":{"ha":760,"x_min":115,"x_max":644,"o":"m 264 854 q 243 802 264 823 q 190 780 221 780 q 137 802 159 780 q 115 854 115 823 q 137 907 115 885 q 190 929 159 929 q 243 907 221 929 q 264 854 264 885 m 454 854 q 433 802 454 823 q 380 780 411 780 q 327 802 349 780 q 305 854 305 823 q 327 907 305 885 q 380 929 349 929 q 433 907 411 929 q 454 854 454 885 m 644 854 q 623 802 644 823 q 570 780 601 780 q 517 802 539 780 q 495 854 495 823 q 517 907 495 885 q 570 929 539 929 q 623 907 601 929 q 644 854 644 885 m 264 475 q 243 422 264 444 q 190 400 221 400 q 137 422 159 400 q 115 475 115 444 q 137 527 115 505 q 190 549 159 549 q 243 527 221 549 q 264 475 264 505 m 454 475 q 433 422 454 444 q 380 400 411 400 q 327 422 349 400 q 305 475 305 444 q 327 527 305 505 q 380 549 349 549 q 433 527 411 549 q 454 475 454 505 m 644 475 q 623 422 644 444 q 570 400 601 400 q 517 422 539 400 q 495 475 495 444 q 517 527 495 505 q 570 549 539 549 q 623 527 601 549 q 644 475 644 505 m 454 285 q 433 232 454 254 q 380 210 411 210 q 327 232 349 210 q 305 285 305 254 q 327 337 305 315 q 380 359 349 359 q 433 337 411 359 q 454 285 454 315 m 264 95 q 243 42 264 64 q 190 20 221 20 q 137 42 159 20 q 115 95 115 64 q 137 148 115 125 q 190 170 159 170 q 243 148 221 170 q 264 95 264 125 m 454 95 q 433 42 454 64 q 380 20 411 20 q 327 42 349 20 q 305 95 305 64 q 327 148 305 125 q 380 170 349 170 q 433 148 411 170 q 454 95 454 125 m 644 95 q 623 42 644 64 q 570 20 601 20 q 517 42 539 20 q 495 95 495 64 q 517 148 495 125 q 570 170 539 170 q 623 148 601 170 q 644 95 644 125 z "},"ī":{"ha":760,"x_min":115,"x_max":644,"o":"m 264 854 q 243 802 264 823 q 190 780 221 780 q 137 802 159 780 q 115 854 115 823 q 137 907 115 885 q 190 929 159 929 q 243 907 221 929 q 264 854 264 885 m 454 854 q 433 802 454 823 q 380 780 411 780 q 327 802 349 780 q 305 854 305 823 q 327 907 305 885 q 380 929 349 929 q 433 907 411 929 q 454 854 454 885 m 644 854 q 623 802 644 823 q 570 780 601 780 q 517 802 539 780 q 495 854 495 823 q 517 907 495 885 q 570 929 539 929 q 623 907 601 929 q 644 854 644 885 m 264 475 q 243 422 264 444 q 190 400 221 400 q 137 422 159 400 q 115 475 115 444 q 137 527 115 505 q 190 549 159 549 q 243 527 221 549 q 264 475 264 505 m 454 475 q 433 422 454 444 q 380 400 411 400 q 327 422 349 400 q 305 475 305 444 q 327 527 305 505 q 380 549 349 549 q 433 527 411 549 q 454 475 454 505 m 644 475 q 623 422 644 444 q 570 400 601 400 q 517 422 539 400 q 495 475 495 444 q 517 527 495 505 q 570 549 539 549 q 623 527 601 549 q 644 475 644 505 m 454 285 q 433 232 454 254 q 380 210 411 210 q 327 232 349 210 q 305 285 305 254 q 327 337 305 315 q 380 359 349 359 q 433 337 411 359 q 454 285 454 315 m 264 95 q 243 42 264 64 q 190 20 221 20 q 137 42 159 20 q 115 95 115 64 q 137 148 115 125 q 190 170 159 170 q 243 148 221 170 q 264 95 264 125 m 454 95 q 433 42 454 64 q 380 20 411 20 q 327 42 349 20 q 305 95 305 64 q 327 148 305 125 q 380 170 349 170 q 433 148 411 170 q 454 95 454 125 m 644 95 q 623 42 644 64 q 570 20 601 20 q 517 42 539 20 q 495 95 495 64 q 517 148 495 125 q 570 170 539 170 q 623 148 601 170 q 644 95 644 125 z "},"Ō":{"ha":760,"x_min":115,"x_max":644,"o":"m 264 854 q 243 802 264 823 q 190 780 221 780 q 137 802 159 780 q 115 854 115 823 q 137 907 115 885 q 190 929 159 929 q 243 907 221 929 q 264 854 264 885 m 454 854 q 433 802 454 823 q 380 780 411 780 q 327 802 349 780 q 305 854 305 823 q 327 907 305 885 q 380 929 349 929 q 433 907 411 929 q 454 854 454 885 m 644 854 q 623 802 644 823 q 570 780 601 780 q 517 802 539 780 q 495 854 495 823 q 517 907 495 885 q 570 929 539 929 q 623 907 601 929 q 644 854 644 885 m 454 475 q 433 422 454 444 q 380 400 411 400 q 327 422 349 400 q 305 475 305 444 q 327 527 305 505 q 380 549 349 549 q 433 527 411 549 q 454 475 454 505 m 264 285 q 243 232 264 254 q 190 210 221 210 q 137 232 159 210 q 115 285 115 254 q 137 337 115 315 q 190 359 159 359 q 243 337 221 359 q 264 285 264 315 m 644 285 q 623 232 644 254 q 570 210 601 210 q 517 232 539 210 q 495 285 495 254 q 517 337 495 315 q 570 359 539 359 q 623 337 601 359 q 644 285 644 315 m 454 95 q 433 42 454 64 q 380 20 411 20 q 327 42 349 20 q 305 95 305 64 q 327 148 305 125 q 380 170 349 170 q 433 148 411 170 q 454 95 454 125 m 264 475 q 243 422 264 444 q 190 400 221 400 q 137 422 159 400 q 115 475 115 444 q 137 527 115 505 q 190 549 159 549 q 243 527 221 549 q 264 475 264 505 m 644 475 q 623 422 644 444 q 570 400 601 400 q 517 422 539 400 q 495 475 495 444 q 517 527 495 505 q 570 549 539 549 q 623 527 601 549 q 644 475 644 505 m 264 95 q 243 42 264 64 q 190 20 221 20 q 137 42 159 20 q 115 95 115 64 q 137 148 115 125 q 190 170 159 170 q 243 148 221 170 q 264 95 264 125 m 644 95 q 623 42 644 64 q 570 20 601 20 q 517 42 539 20 q 495 95 495 64 q 517 148 495 125 q 570 170 539 170 q 623 148 601 170 q 644 95 644 125 z "},"ō":{"ha":760,"x_min":115,"x_max":644,"o":"m 264 854 q 243 802 264 823 q 190 780 221 780 q 137 802 159 780 q 115 854 115 823 q 137 907 115 885 q 190 929 159 929 q 243 907 221 929 q 264 854 264 885 m 454 854 q 433 802 454 823 q 380 780 411 780 q 327 802 349 780 q 305 854 305 823 q 327 907 305 885 q 380 929 349 929 q 433 907 411 929 q 454 854 454 885 m 644 854 q 623 802 644 823 q 570 780 601 780 q 517 802 539 780 q 495 854 495 823 q 517 907 495 885 q 570 929 539 929 q 623 907 601 929 q 644 854 644 885 m 454 475 q 433 422 454 444 q 380 400 411 400 q 327 422 349 400 q 305 475 305 444 q 327 527 305 505 q 380 549 349 549 q 433 527 411 549 q 454 475 454 505 m 264 285 q 243 232 264 254 q 190 210 221 210 q 137 232 159 210 q 115 285 115 254 q 137 337 115 315 q 190 359 159 359 q 243 337 221 359 q 264 285 264 315 m 644 285 q 623 232 644 254 q 570 210 601 210 q 517 232 539 210 q 495 285 495 254 q 517 337 495 315 q 570 359 539 359 q 623 337 601 359 q 644 285 644 315 m 454 95 q 433 42 454 64 q 380 20 411 20 q 327 42 349 20 q 305 95 305 64 q 327 148 305 125 q 380 170 349 170 q 433 148 411 170 q 454 95 454 125 m 264 475 q 243 422 264 444 q 190 400 221 400 q 137 422 159 400 q 115 475 115 444 q 137 527 115 505 q 190 549 159 549 q 243 527 221 549 q 264 475 264 505 m 644 475 q 623 422 644 444 q 570 400 601 400 q 517 422 539 400 q 495 475 495 444 q 517 527 495 505 q 570 549 539 549 q 623 527 601 549 q 644 475 644 505 m 264 95 q 243 42 264 64 q 190 20 221 20 q 137 42 159 20 q 115 95 115 64 q 137 148 115 125 q 190 170 159 170 q 243 148 221 170 q 264 95 264 125 m 644 95 q 623 42 644 64 q 570 20 601 20 q 517 42 539 20 q 495 95 495 64 q 517 148 495 125 q 570 170 539 170 q 623 148 601 170 q 644 95 644 125 z "},"Ū":{"ha":760,"x_min":115,"x_max":644,"o":"m 264 854 q 243 802 264 823 q 190 780 221 780 q 137 802 159 780 q 115 854 115 823 q 137 907 115 885 q 190 929 159 929 q 243 907 221 929 q 264 854 264 885 m 454 854 q 433 802 454 823 q 380 780 411 780 q 327 802 349 780 q 305 854 305 823 q 327 907 305 885 q 380 929 349 929 q 433 907 411 929 q 454 854 454 885 m 644 854 q 623 802 644 823 q 570 780 601 780 q 517 802 539 780 q 495 854 495 823 q 517 907 495 885 q 570 929 539 929 q 623 907 601 929 q 644 854 644 885 m 264 475 q 243 422 264 444 q 190 400 221 400 q 137 422 159 400 q 115 475 115 444 q 137 527 115 505 q 190 549 159 549 q 243 527 221 549 q 264 475 264 505 m 644 475 q 623 422 644 444 q 570 400 601 400 q 517 422 539 400 q 495 475 495 444 q 517 527 495 505 q 570 549 539 549 q 623 527 601 549 q 644 475 644 505 m 264 285 q 243 232 264 254 q 190 210 221 210 q 137 232 159 210 q 115 285 115 254 q 137 337 115 315 q 190 359 159 359 q 243 337 221 359 q 264 285 264 315 m 644 285 q 623 232 644 254 q 570 210 601 210 q 517 232 539 210 q 495 285 495 254 q 517 337 495 315 q 570 359 539 359 q 623 337 601 359 q 644 285 644 315 m 264 95 q 243 42 264 64 q 190 20 221 20 q 137 42 159 20 q 115 95 115 64 q 137 148 115 125 q 190 170 159 170 q 243 148 221 170 q 264 95 264 125 m 454 95 q 433 42 454 64 q 380 20 411 20 q 327 42 349 20 q 305 95 305 64 q 327 148 305 125 q 380 170 349 170 q 433 148 411 170 q 454 95 454 125 m 644 95 q 623 42 644 64 q 570 20 601 20 q 517 42 539 20 q 495 95 495 64 q 517 148 495 125 q 570 170 539 170 q 623 148 601 170 q 644 95 644 125 z "},"ū":{"ha":760,"x_min":115,"x_max":644,"o":"m 264 854 q 243 802 264 823 q 190 780 221 780 q 137 802 159 780 q 115 854 115 823 q 137 907 115 885 q 190 929 159 929 q 243 907 221 929 q 264 854 264 885 m 454 854 q 433 802 454 823 q 380 780 411 780 q 327 802 349 780 q 305 854 305 823 q 327 907 305 885 q 380 929 349 929 q 433 907 411 929 q 454 854 454 885 m 644 854 q 623 802 644 823 q 570 780 601 780 q 517 802 539 780 q 495 854 495 823 q 517 907 495 885 q 570 929 539 929 q 623 907 601 929 q 644 854 644 885 m 264 475 q 243 422 264 444 q 190 400 221 400 q 137 422 159 400 q 115 475 115 444 q 137 527 115 505 q 190 549 159 549 q 243 527 221 549 q 264 475 264 505 m 644 475 q 623 422 644 444 q 570 400 601 400 q 517 422 539 400 q 495 475 495 444 q 517 527 495 505 q 570 549 539 549 q 623 527 601 549 q 644 475 644 505 m 264 285 q 243 232 264 254 q 190 210 221 210 q 137 232 159 210 q 115 285 115 254 q 137 337 115 315 q 190 359 159 359 q 243 337 221 359 q 264 285 264 315 m 644 285 q 623 232 644 254 q 570 210 601 210 q 517 232 539 210 q 495 285 495 254 q 517 337 495 315 q 570 359 539 359 q 623 337 601 359 q 644 285 644 315 m 264 95 q 243 42 264 64 q 190 20 221 20 q 137 42 159 20 q 115 95 115 64 q 137 148 115 125 q 190 170 159 170 q 243 148 221 170 q 264 95 264 125 m 454 95 q 433 42 454 64 q 380 20 411 20 q 327 42 349 20 q 305 95 305 64 q 327 148 305 125 q 380 170 349 170 q 433 148 411 170 q 454 95 454 125 m 644 95 q 623 42 644 64 q 570 20 601 20 q 517 42 539 20 q 495 95 495 64 q 517 148 495 125 q 570 170 539 170 q 623 148 601 170 q 644 95 644 125 z "},"Ȳ":{"ha":760,"x_min":115,"x_max":644,"o":"m 264 854 q 243 802 264 823 q 190 780 221 780 q 137 802 159 780 q 115 854 115 823 q 137 907 115 885 q 190 929 159 929 q 243 907 221 929 q 264 854 264 885 m 454 854 q 433 802 454 823 q 380 780 411 780 q 327 802 349 780 q 305 854 305 823 q 327 907 305 885 q 380 929 349 929 q 433 907 411 929 q 454 854 454 885 m 644 854 q 623 802 644 823 q 570 780 601 780 q 517 802 539 780 q 495 854 495 823 q 517 907 495 885 q 570 929 539 929 q 623 907 601 929 q 644 854 644 885 m 264 475 q 243 422 264 444 q 190 400 221 400 q 137 422 159 400 q 115 475 115 444 q 137 527 115 505 q 190 549 159 549 q 243 527 221 549 q 264 475 264 505 m 644 475 q 623 422 644 444 q 570 400 601 400 q 517 422 539 400 q 495 475 495 444 q 517 527 495 505 q 570 549 539 549 q 623 527 601 549 q 644 475 644 505 m 454 285 q 433 232 454 254 q 380 210 411 210 q 327 232 349 210 q 305 285 305 254 q 327 337 305 315 q 380 359 349 359 q 433 337 411 359 q 454 285 454 315 m 454 95 q 433 42 454 64 q 380 20 411 20 q 327 42 349 20 q 305 95 305 64 q 327 148 305 125 q 380 170 349 170 q 433 148 411 170 q 454 95 454 125 z "},"ȳ":{"ha":760,"x_min":115,"x_max":644,"o":"m 264 854 q 243 802 264 823 q 190 780 221 780 q 137 802 159 780 q 115 854 115 823 q 137 907 115 885 q 190 929 159 929 q 243 907 221 929 q 264 854 264 885 m 454 854 q 433 802 454 823 q 380 780 411 780 q 327 802 349 780 q 305 854 305 823 q 327 907 305 885 q 380 929 349 929 q 433 907 411 929 q 454 854 454 885 m 644 854 q 623 802 644 823 q 570 780 601 780 q 517 802 539 780 q 495 854 495 823 q 517 907 495 885 q 570 929 539 929 q 623 907 601 929 q 644 854 644 885 m 264 475 q 243 422 264 444 q 190 400 221 400 q 137 422 159 400 q 115 475 115 444 q 137 527 115 505 q 190 549 159 549 q 243 527 221 549 q 264 475 264 505 m 644 475 q 623 422 644 444 q 570 400 601 400 q 517 422 539 400 q 495 475 495 444 q 517 527 495 505 q 570 549 539 549 q 623 527 601 549 q 644 475 644 505 m 454 285 q 433 232 454 254 q 380 210 411 210 q 327 232 349 210 q 305 285 305 254 q 327 337 305 315 q 380 359 349 359 q 433 337 411 359 q 454 285 454 315 m 454 95 q 433 42 454 64 q 380 20 411 20 q 327 42 349 20 q 305 95 305 64 q 327 148 305 125 q 380 170 349 170 q 433 148 411 170 q 454 95 454 125 z "},"&":{"ha":760,"x_min":115,"x_max":644,"o":"m 454 854 q 433 802 454 823 q 380 780 411 780 q 327 802 349 780 q 305 854 305 823 q 327 907 305 885 q 380 929 349 929 q 433 907 411 929 q 454 854 454 885 m 264 665 q 243 612 264 633 q 190 590 221 590 q 137 612 159 590 q 115 665 115 633 q 137 717 115 695 q 190 739 159 739 q 243 717 221 739 q 264 665 264 695 m 644 665 q 623 612 644 633 q 570 590 601 590 q 517 612 539 590 q 495 665 495 633 q 517 717 495 695 q 570 739 539 739 q 623 717 601 739 q 644 665 644 695 m 454 475 q 433 422 454 444 q 380 400 411 400 q 327 422 349 400 q 305 475 305 444 q 327 527 305 505 q 380 549 349 549 q 433 527 411 549 q 454 475 454 505 m 264 285 q 243 232 264 254 q 190 210 221 210 q 137 232 159 210 q 115 285 115 254 q 137 337 115 315 q 190 359 159 359 q 243 337 221 359 q 264 285 264 315 m 644 285 q 623 232 644 254 q 570 210 601 210 q 517 232 539 210 q 495 285 495 254 q 517 337 495 315 q 570 359 539 359 q 623 337 601 359 q 644 285 644 315 m 454 95 q 433 42 454 64 q 380 20 411 20 q 327 42 349 20 q 305 95 305 64 q 327 148 305 125 q 380 170 349 170 q 433 148 411 170 q 454 95 454 125 m 644 95 q 623 42 644 64 q 570 20 601 20 q 517 42 539 20 q 495 95 495 64 q 517 148 495 125 q 570 170 539 170 q 623 148 601 170 q 644 95 644 125 m 264 854 q 243 802 264 823 q 190 780 221 780 q 137 802 159 780 q 115 854 115 823 q 137 907 115 885 q 190 929 159 929 q 243 907 221 929 q 264 854 264 885 z "},"Ø":{"ha":760,"x_min":115,"x_max":644,"o":"m 454 854 q 433 802 454 823 q 380 780 411 780 q 327 802 349 780 q 305 854 305 823 q 327 907 305 885 q 380 929 349 929 q 433 907 411 929 q 454 854 454 885 m 264 665 q 243 612 264 633 q 190 590 221 590 q 137 612 159 590 q 115 665 115 633 q 137 717 115 695 q 190 739 159 739 q 243 717 221 739 q 264 665 264 695 m 644 665 q 623 612 644 633 q 570 590 601 590 q 517 612 539 590 q 495 665 495 633 q 517 717 495 695 q 570 739 539 739 q 623 717 601 739 q 644 665 644 695 m 264 475 q 243 422 264 444 q 190 400 221 400 q 137 422 159 400 q 115 475 115 444 q 137 527 115 505 q 190 549 159 549 q 243 527 221 549 q 264 475 264 505 m 454 475 q 433 422 454 444 q 380 400 411 400 q 327 422 349 400 q 305 475 305 444 q 327 527 305 505 q 380 549 349 549 q 433 527 411 549 q 454 475 454 505 m 644 475 q 623 422 644 444 q 570 400 601 400 q 517 422 539 400 q 495 475 495 444 q 517 527 495 505 q 570 549 539 549 q 623 527 601 549 q 644 475 644 505 m 264 285 q 243 232 264 254 q 190 210 221 210 q 137 232 159 210 q 115 285 115 254 q 137 337 115 315 q 190 359 159 359 q 243 337 221 359 q 264 285 264 315 m 644 285 q 623 232 644 254 q 570 210 601 210 q 517 232 539 210 q 495 285 495 254 q 517 337 495 315 q 570 359 539 359 q 623 337 601 359 q 644 285 644 315 m 454 95 q 433 42 454 64 q 380 20 411 20 q 327 42 349 20 q 305 95 305 64 q 327 148 305 125 q 380 170 349 170 q 433 148 411 170 q 454 95 454 125 z "},"ø":{"ha":760,"x_min":115,"x_max":644,"o":"m 454 854 q 433 802 454 823 q 380 780 411 780 q 327 802 349 780 q 305 854 305 823 q 327 907 305 885 q 380 929 349 929 q 433 907 411 929 q 454 854 454 885 m 264 665 q 243 612 264 633 q 190 590 221 590 q 137 612 159 590 q 115 665 115 633 q 137 717 115 695 q 190 739 159 739 q 243 717 221 739 q 264 665 264 695 m 644 665 q 623 612 644 633 q 570 590 601 590 q 517 612 539 590 q 495 665 495 633 q 517 717 495 695 q 570 739 539 739 q 623 717 601 739 q 644 665 644 695 m 264 475 q 243 422 264 444 q 190 400 221 400 q 137 422 159 400 q 115 475 115 444 q 137 527 115 505 q 190 549 159 549 q 243 527 221 549 q 264 475 264 505 m 454 475 q 433 422 454 444 q 380 400 411 400 q 327 422 349 400 q 305 475 305 444 q 327 527 305 505 q 380 549 349 549 q 433 527 411 549 q 454 475 454 505 m 644 475 q 623 422 644 444 q 570 400 601 400 q 517 422 539 400 q 495 475 495 444 q 517 527 495 505 q 570 549 539 549 q 623 527 601 549 q 644 475 644 505 m 264 285 q 243 232 264 254 q 190 210 221 210 q 137 232 159 210 q 115 285 115 254 q 137 337 115 315 q 190 359 159 359 q 243 337 221 359 q 264 285 264 315 m 644 285 q 623 232 644 254 q 570 210 601 210 q 517 232 539 210 q 495 285 495 254 q 517 337 495 315 q 570 359 539 359 q 623 337 601 359 q 644 285 644 315 m 454 95 q 433 42 454 64 q 380 20 411 20 q 327 42 349 20 q 305 95 305 64 q 327 148 305 125 q 380 170 349 170 q 433 148 411 170 q 454 95 454 125 z "},"Þ":{"ha":760,"x_min":115,"x_max":644,"o":"m 264 854 q 243 802 264 823 q 190 780 221 780 q 137 802 159 780 q 115 854 115 823 q 137 907 115 885 q 190 929 159 929 q 243 907 221 929 q 264 854 264 885 m 264 665 q 243 612 264 633 q 190 590 221 590 q 137 612 159 590 q 115 665 115 633 q 137 717 115 695 q 190 739 159 739 q 243 717 221 739 q 264 665 264 695 m 454 665 q 433 612 454 633 q 380 590 411 590 q 327 612 349 590 q 305 665 305 633 q 327 717 305 695 q 380 739 349 739 q 433 717 411 739 q 454 665 454 695 m 644 665 q 623 612 644 633 q 570 590 601 590 q 517 612 539 590 q 495 665 495 633 q 517 717 495 695 q 570 739 539 739 q 623 717 601 739 q 644 665 644 695 m 264 475 q 243 422 264 444 q 190 400 221 400 q 137 422 159 400 q 115 475 115 444 q 137 527 115 505 q 190 549 159 549 q 243 527 221 549 q 264 475 264 505 m 644 475 q 623 422 644 444 q 570 400 601 400 q 517 422 539 400 q 495 475 495 444 q 517 527 495 505 q 570 549 539 549 q 623 527 601 549 q 644 475 644 505 m 264 285 q 243 232 264 254 q 190 210 221 210 q 137 232 159 210 q 115 285 115 254 q 137 337 115 315 q 190 359 159 359 q 243 337 221 359 q 264 285 264 315 m 454 285 q 433 232 454 254 q 380 210 411 210 q 327 232 349 210 q 305 285 305 254 q 327 337 305 315 q 380 359 349 359 q 433 337 411 359 q 454 285 454 315 m 644 285 q 623 232 644 254 q 570 210 601 210 q 517 232 539 210 q 495 285 495 254 q 517 337 495 315 q 570 359 539 359 q 623 337 601 359 q 644 285 644 315 m 264 95 q 243 42 264 64 q 190 20 221 20 q 137 42 159 20 q 115 95 115 64 q 137 148 115 125 q 190 170 159 170 q 243 148 221 170 q 264 95 264 125 z "},"þ":{"ha":760,"x_min":115,"x_max":644,"o":"m 264 854 q 243 802 264 823 q 190 780 221 780 q 137 802 159 780 q 115 854 115 823 q 137 907 115 885 q 190 929 159 929 q 243 907 221 929 q 264 854 264 885 m 264 665 q 243 612 264 633 q 190 590 221 590 q 137 612 159 590 q 115 665 115 633 q 137 717 115 695 q 190 739 159 739 q 243 717 221 739 q 264 665 264 695 m 454 665 q 433 612 454 633 q 380 590 411 590 q 327 612 349 590 q 305 665 305 633 q 327 717 305 695 q 380 739 349 739 q 433 717 411 739 q 454 665 454 695 m 644 665 q 623 612 644 633 q 570 590 601 590 q 517 612 539 590 q 495 665 495 633 q 517 717 495 695 q 570 739 539 739 q 623 717 601 739 q 644 665 644 695 m 264 475 q 243 422 264 444 q 190 400 221 400 q 137 422 159 400 q 115 475 115 444 q 137 527 115 505 q 190 549 159 549 q 243 527 221 549 q 264 475 264 505 m 644 475 q 623 422 644 444 q 570 400 601 400 q 517 422 539 400 q 495 475 495 444 q 517 527 495 505 q 570 549 539 549 q 623 527 601 549 q 644 475 644 505 m 264 285 q 243 232 264 254 q 190 210 221 210 q 137 232 159 210 q 115 285 115 254 q 137 337 115 315 q 190 359 159 359 q 243 337 221 359 q 264 285 264 315 m 454 285 q 433 232 454 254 q 380 210 411 210 q 327 232 349 210 q 305 285 305 254 q 327 337 305 315 q 380 359 349 359 q 433 337 411 359 q 454 285 454 315 m 644 285 q 623 232 644 254 q 570 210 601 210 q 517 232 539 210 q 495 285 495 254 q 517 337 495 315 q 570 359 539 359 q 623 337 601 359 q 644 285 644 315 m 264 95 q 243 42 264 64 q 190 20 221 20 q 137 42 159 20 q 115 95 115 64 q 137 148 115 125 q 190 170 159 170 q 243 148 221 170 q 264 95 264 125 z "},"¨":{"ha":760,"x_min":115,"x_max":644,"o":"m 264 854 q 243 802 264 823 q 190 780 221 780 q 137 802 159 780 q 115 854 115 823 q 137 907 115 885 q 190 929 159 929 q 243 907 221 929 q 264 854 264 885 m 644 854 q 623 802 644 823 q 570 780 601 780 q 517 802 539 780 q 495 854 495 823 q 517 907 495 885 q 570 929 539 929 q 623 907 601 929 q 644 854 644 885 z "},"Ä":{"ha":760,"x_min":115,"x_max":644,"o":"m 264 854 q 243 802 264 823 q 190 780 221 780 q 137 802 159 780 q 115 854 115 823 q 137 907 115 885 q 190 929 159 929 q 243 907 221 929 q 264 854 264 885 m 644 854 q 623 802 644 823 q 570 780 601 780 q 517 802 539 780 q 495 854 495 823 q 517 907 495 885 q 570 929 539 929 q 623 907 601 929 q 644 854 644 885 m 454 665 q 433 612 454 633 q 380 590 411 590 q 327 612 349 590 q 305 665 305 633 q 327 717 305 695 q 380 739 349 739 q 433 717 411 739 q 454 665 454 695 m 264 475 q 243 422 264 444 q 190 400 221 400 q 137 422 159 400 q 115 475 115 444 q 137 527 115 505 q 190 549 159 549 q 243 527 221 549 q 264 475 264 505 m 644 475 q 623 422 644 444 q 570 400 601 400 q 517 422 539 400 q 495 475 495 444 q 517 527 495 505 q 570 549 539 549 q 623 527 601 549 q 644 475 644 505 m 264 285 q 243 232 264 254 q 190 210 221 210 q 137 232 159 210 q 115 285 115 254 q 137 337 115 315 q 190 359 159 359 q 243 337 221 359 q 264 285 264 315 m 454 285 q 433 232 454 254 q 380 210 411 210 q 327 232 349 210 q 305 285 305 254 q 327 337 305 315 q 380 359 349 359 q 433 337 411 359 q 454 285 454 315 m 644 285 q 623 232 644 254 q 570 210 601 210 q 517 232 539 210 q 495 285 495 254 q 517 337 495 315 q 570 359 539 359 q 623 337 601 359 q 644 285 644 315 m 264 95 q 243 42 264 64 q 190 20 221 20 q 137 42 159 20 q 115 95 115 64 q 137 148 115 125 q 190 170 159 170 q 243 148 221 170 q 264 95 264 125 m 644 95 q 623 42 644 64 q 570 20 601 20 q 517 42 539 20 q 495 95 495 64 q 517 148 495 125 q 570 170 539 170 q 623 148 601 170 q 644 95 644 125 z "},"ä":{"ha":760,"x_min":115,"x_max":644,"o":"m 264 854 q 243 802 264 823 q 190 780 221 780 q 137 802 159 780 q 115 854 115 823 q 137 907 115 885 q 190 929 159 929 q 243 907 221 929 q 264 854 264 885 m 644 854 q 623 802 644 823 q 570 780 601 780 q 517 802 539 780 q 495 854 495 823 q 517 907 495 885 q 570 929 539 929 q 623 907 601 929 q 644 854 644 885 m 454 665 q 433 612 454 633 q 380 590 411 590 q 327 612 349 590 q 305 665 305 633 q 327 717 305 695 q 380 739 349 739 q 433 717 411 739 q 454 665 454 695 m 264 475 q 243 422 264 444 q 190 400 221 400 q 137 422 159 400 q 115 475 115 444 q 137 527 115 505 q 190 549 159 549 q 243 527 221 549 q 264 475 264 505 m 644 475 q 623 422 644 444 q 570 400 601 400 q 517 422 539 400 q 495 475 495 444 q 517 527 495 505 q 570 549 539 549 q 623 527 601 549 q 644 475 644 505 m 264 285 q 243 232 264 254 q 190 210 221 210 q 137 232 159 210 q 115 285 115 254 q 137 337 115 315 q 190 359 159 359 q 243 337 221 359 q 264 285 264 315 m 454 285 q 433 232 454 254 q 380 210 411 210 q 327 232 349 210 q 305 285 305 254 q 327 337 305 315 q 380 359 349 359 q 433 337 411 359 q 454 285 454 315 m 644 285 q 623 232 644 254 q 570 210 601 210 q 517 232 539 210 q 495 285 495 254 q 517 337 495 315 q 570 359 539 359 q 623 337 601 359 q 644 285 644 315 m 264 95 q 243 42 264 64 q 190 20 221 20 q 137 42 159 20 q 115 95 115 64 q 137 148 115 125 q 190 170 159 170 q 243 148 221 170 q 264 95 264 125 m 644 95 q 623 42 644 64 q 570 20 601 20 q 517 42 539 20 q 495 95 495 64 q 517 148 495 125 q 570 170 539 170 q 623 148 601 170 q 644 95 644 125 z "},"Ï":{"ha":760,"x_min":115,"x_max":644,"o":"m 264 854 q 243 802 264 823 q 190 780 221 780 q 137 802 159 780 q 115 854 115 823 q 137 907 115 885 q 190 929 159 929 q 243 907 221 929 q 264 854 264 885 m 644 854 q 623 802 644 823 q 570 780 601 780 q 517 802 539 780 q 495 854 495 823 q 517 907 495 885 q 570 929 539 929 q 623 907 601 929 q 644 854 644 885 m 264 475 q 243 422 264 444 q 190 400 221 400 q 137 422 159 400 q 115 475 115 444 q 137 527 115 505 q 190 549 159 549 q 243 527 221 549 q 264 475 264 505 m 454 475 q 433 422 454 444 q 380 400 411 400 q 327 422 349 400 q 305 475 305 444 q 327 527 305 505 q 380 549 349 549 q 433 527 411 549 q 454 475 454 505 m 644 475 q 623 422 644 444 q 570 400 601 400 q 517 422 539 400 q 495 475 495 444 q 517 527 495 505 q 570 549 539 549 q 623 527 601 549 q 644 475 644 505 m 454 285 q 433 232 454 254 q 380 210 411 210 q 327 232 349 210 q 305 285 305 254 q 327 337 305 315 q 380 359 349 359 q 433 337 411 359 q 454 285 454 315 m 264 95 q 243 42 264 64 q 190 20 221 20 q 137 42 159 20 q 115 95 115 64 q 137 148 115 125 q 190 170 159 170 q 243 148 221 170 q 264 95 264 125 m 454 95 q 433 42 454 64 q 380 20 411 20 q 327 42 349 20 q 305 95 305 64 q 327 148 305 125 q 380 170 349 170 q 433 148 411 170 q 454 95 454 125 m 644 95 q 623 42 644 64 q 570 20 601 20 q 517 42 539 20 q 495 95 495 64 q 517 148 495 125 q 570 170 539 170 q 623 148 601 170 q 644 95 644 125 z "},"ï":{"ha":760,"x_min":115,"x_max":644,"o":"m 264 854 q 243 802 264 823 q 190 780 221 780 q 137 802 159 780 q 115 854 115 823 q 137 907 115 885 q 190 929 159 929 q 243 907 221 929 q 264 854 264 885 m 644 854 q 623 802 644 823 q 570 780 601 780 q 517 802 539 780 q 495 854 495 823 q 517 907 495 885 q 570 929 539 929 q 623 907 601 929 q 644 854 644 885 m 264 475 q 243 422 264 444 q 190 400 221 400 q 137 422 159 400 q 115 475 115 444 q 137 527 115 505 q 190 549 159 549 q 243 527 221 549 q 264 475 264 505 m 454 475 q 433 422 454 444 q 380 400 411 400 q 327 422 349 400 q 305 475 305 444 q 327 527 305 505 q 380 549 349 549 q 433 527 411 549 q 454 475 454 505 m 644 475 q 623 422 644 444 q 570 400 601 400 q 517 422 539 400 q 495 475 495 444 q 517 527 495 505 q 570 549 539 549 q 623 527 601 549 q 644 475 644 505 m 454 285 q 433 232 454 254 q 380 210 411 210 q 327 232 349 210 q 305 285 305 254 q 327 337 305 315 q 380 359 349 359 q 433 337 411 359 q 454 285 454 315 m 264 95 q 243 42 264 64 q 190 20 221 20 q 137 42 159 20 q 115 95 115 64 q 137 148 115 125 q 190 170 159 170 q 243 148 221 170 q 264 95 264 125 m 454 95 q 433 42 454 64 q 380 20 411 20 q 327 42 349 20 q 305 95 305 64 q 327 148 305 125 q 380 170 349 170 q 433 148 411 170 q 454 95 454 125 m 644 95 q 623 42 644 64 q 570 20 601 20 q 517 42 539 20 q 495 95 495 64 q 517 148 495 125 q 570 170 539 170 q 623 148 601 170 q 644 95 644 125 z "},"Ö":{"ha":760,"x_min":115,"x_max":644,"o":"m 264 854 q 243 802 264 823 q 190 780 221 780 q 137 802 159 780 q 115 854 115 823 q 137 907 115 885 q 190 929 159 929 q 243 907 221 929 q 264 854 264 885 m 644 854 q 623 802 644 823 q 570 780 601 780 q 517 802 539 780 q 495 854 495 823 q 517 907 495 885 q 570 929 539 929 q 623 907 601 929 q 644 854 644 885 m 454 475 q 433 422 454 444 q 380 400 411 400 q 327 422 349 400 q 305 475 305 444 q 327 527 305 505 q 380 549 349 549 q 433 527 411 549 q 454 475 454 505 m 264 285 q 243 232 264 254 q 190 210 221 210 q 137 232 159 210 q 115 285 115 254 q 137 337 115 315 q 190 359 159 359 q 243 337 221 359 q 264 285 264 315 m 644 285 q 623 232 644 254 q 570 210 601 210 q 517 232 539 210 q 495 285 495 254 q 517 337 495 315 q 570 359 539 359 q 623 337 601 359 q 644 285 644 315 m 454 95 q 433 42 454 64 q 380 20 411 20 q 327 42 349 20 q 305 95 305 64 q 327 148 305 125 q 380 170 349 170 q 433 148 411 170 q 454 95 454 125 m 264 475 q 243 422 264 444 q 190 400 221 400 q 137 422 159 400 q 115 475 115 444 q 137 527 115 505 q 190 549 159 549 q 243 527 221 549 q 264 475 264 505 m 644 475 q 623 422 644 444 q 570 400 601 400 q 517 422 539 400 q 495 475 495 444 q 517 527 495 505 q 570 549 539 549 q 623 527 601 549 q 644 475 644 505 m 264 95 q 243 42 264 64 q 190 20 221 20 q 137 42 159 20 q 115 95 115 64 q 137 148 115 125 q 190 170 159 170 q 243 148 221 170 q 264 95 264 125 m 644 95 q 623 42 644 64 q 570 20 601 20 q 517 42 539 20 q 495 95 495 64 q 517 148 495 125 q 570 170 539 170 q 623 148 601 170 q 644 95 644 125 z "},"ö":{"ha":760,"x_min":115,"x_max":644,"o":"m 264 854 q 243 802 264 823 q 190 780 221 780 q 137 802 159 780 q 115 854 115 823 q 137 907 115 885 q 190 929 159 929 q 243 907 221 929 q 264 854 264 885 m 644 854 q 623 802 644 823 q 570 780 601 780 q 517 802 539 780 q 495 854 495 823 q 517 907 495 885 q 570 929 539 929 q 623 907 601 929 q 644 854 644 885 m 454 475 q 433 422 454 444 q 380 400 411 400 q 327 422 349 400 q 305 475 305 444 q 327 527 305 505 q 380 549 349 549 q 433 527 411 549 q 454 475 454 505 m 264 285 q 243 232 264 254 q 190 210 221 210 q 137 232 159 210 q 115 285 115 254 q 137 337 115 315 q 190 359 159 359 q 243 337 221 359 q 264 285 264 315 m 644 285 q 623 232 644 254 q 570 210 601 210 q 517 232 539 210 q 495 285 495 254 q 517 337 495 315 q 570 359 539 359 q 623 337 601 359 q 644 285 644 315 m 454 95 q 433 42 454 64 q 380 20 411 20 q 327 42 349 20 q 305 95 305 64 q 327 148 305 125 q 380 170 349 170 q 433 148 411 170 q 454 95 454 125 m 264 475 q 243 422 264 444 q 190 400 221 400 q 137 422 159 400 q 115 475 115 444 q 137 527 115 505 q 190 549 159 549 q 243 527 221 549 q 264 475 264 505 m 644 475 q 623 422 644 444 q 570 400 601 400 q 517 422 539 400 q 495 475 495 444 q 517 527 495 505 q 570 549 539 549 q 623 527 601 549 q 644 475 644 505 m 264 95 q 243 42 264 64 q 190 20 221 20 q 137 42 159 20 q 115 95 115 64 q 137 148 115 125 q 190 170 159 170 q 243 148 221 170 q 264 95 264 125 m 644 95 q 623 42 644 64 q 570 20 601 20 q 517 42 539 20 q 495 95 495 64 q 517 148 495 125 q 570 170 539 170 q 623 148 601 170 q 644 95 644 125 z "},"Ü":{"ha":760,"x_min":115,"x_max":644,"o":"m 264 854 q 243 802 264 823 q 190 780 221 780 q 137 802 159 780 q 115 854 115 823 q 137 907 115 885 q 190 929 159 929 q 243 907 221 929 q 264 854 264 885 m 644 854 q 623 802 644 823 q 570 780 601 780 q 517 802 539 780 q 495 854 495 823 q 517 907 495 885 q 570 929 539 929 q 623 907 601 929 q 644 854 644 885 m 264 475 q 243 422 264 444 q 190 400 221 400 q 137 422 159 400 q 115 475 115 444 q 137 527 115 505 q 190 549 159 549 q 243 527 221 549 q 264 475 264 505 m 644 475 q 623 422 644 444 q 570 400 601 400 q 517 422 539 400 q 495 475 495 444 q 517 527 495 505 q 570 549 539 549 q 623 527 601 549 q 644 475 644 505 m 264 285 q 243 232 264 254 q 190 210 221 210 q 137 232 159 210 q 115 285 115 254 q 137 337 115 315 q 190 359 159 359 q 243 337 221 359 q 264 285 264 315 m 644 285 q 623 232 644 254 q 570 210 601 210 q 517 232 539 210 q 495 285 495 254 q 517 337 495 315 q 570 359 539 359 q 623 337 601 359 q 644 285 644 315 m 264 95 q 243 42 264 64 q 190 20 221 20 q 137 42 159 20 q 115 95 115 64 q 137 148 115 125 q 190 170 159 170 q 243 148 221 170 q 264 95 264 125 m 454 95 q 433 42 454 64 q 380 20 411 20 q 327 42 349 20 q 305 95 305 64 q 327 148 305 125 q 380 170 349 170 q 433 148 411 170 q 454 95 454 125 m 644 95 q 623 42 644 64 q 570 20 601 20 q 517 42 539 20 q 495 95 495 64 q 517 148 495 125 q 570 170 539 170 q 623 148 601 170 q 644 95 644 125 z "},"ü":{"ha":760,"x_min":115,"x_max":644,"o":"m 264 854 q 243 802 264 823 q 190 780 221 780 q 137 802 159 780 q 115 854 115 823 q 137 907 115 885 q 190 929 159 929 q 243 907 221 929 q 264 854 264 885 m 644 854 q 623 802 644 823 q 570 780 601 780 q 517 802 539 780 q 495 854 495 823 q 517 907 495 885 q 570 929 539 929 q 623 907 601 929 q 644 854 644 885 m 264 475 q 243 422 264 444 q 190 400 221 400 q 137 422 159 400 q 115 475 115 444 q 137 527 115 505 q 190 549 159 549 q 243 527 221 549 q 264 475 264 505 m 644 475 q 623 422 644 444 q 570 400 601 400 q 517 422 539 400 q 495 475 495 444 q 517 527 495 505 q 570 549 539 549 q 623 527 601 549 q 644 475 644 505 m 264 285 q 243 232 264 254 q 190 210 221 210 q 137 232 159 210 q 115 285 115 254 q 137 337 115 315 q 190 359 159 359 q 243 337 221 359 q 264 285 264 315 m 644 285 q 623 232 644 254 q 570 210 601 210 q 517 232 539 210 q 495 285 495 254 q 517 337 495 315 q 570 359 539 359 q 623 337 601 359 q 644 285 644 315 m 264 95 q 243 42 264 64 q 190 20 221 20 q 137 42 159 20 q 115 95 115 64 q 137 148 115 125 q 190 170 159 170 q 243 148 221 170 q 264 95 264 125 m 454 95 q 433 42 454 64 q 380 20 411 20 q 327 42 349 20 q 305 95 305 64 q 327 148 305 125 q 380 170 349 170 q 433 148 411 170 q 454 95 454 125 m 644 95 q 623 42 644 64 q 570 20 601 20 q 517 42 539 20 q 495 95 495 64 q 517 148 495 125 q 570 170 539 170 q 623 148 601 170 q 644 95 644 125 z "},"Ÿ":{"ha":760,"x_min":115,"x_max":644,"o":"m 264 854 q 243 802 264 823 q 190 780 221 780 q 137 802 159 780 q 115 854 115 823 q 137 907 115 885 q 190 929 159 929 q 243 907 221 929 q 264 854 264 885 m 644 854 q 623 802 644 823 q 570 780 601 780 q 517 802 539 780 q 495 854 495 823 q 517 907 495 885 q 570 929 539 929 q 623 907 601 929 q 644 854 644 885 m 264 475 q 243 422 264 444 q 190 400 221 400 q 137 422 159 400 q 115 475 115 444 q 137 527 115 505 q 190 549 159 549 q 243 527 221 549 q 264 475 264 505 m 644 475 q 623 422 644 444 q 570 400 601 400 q 517 422 539 400 q 495 475 495 444 q 517 527 495 505 q 570 549 539 549 q 623 527 601 549 q 644 475 644 505 m 454 285 q 433 232 454 254 q 380 210 411 210 q 327 232 349 210 q 305 285 305 254 q 327 337 305 315 q 380 359 349 359 q 433 337 411 359 q 454 285 454 315 m 454 95 q 433 42 454 64 q 380 20 411 20 q 327 42 349 20 q 305 95 305 64 q 327 148 305 125 q 380 170 349 170 q 433 148 411 170 q 454 95 454 125 z "},"ÿ":{"ha":760,"x_min":115,"x_max":644,"o":"m 264 854 q 243 802 264 823 q 190 780 221 780 q 137 802 159 780 q 115 854 115 823 q 137 907 115 885 q 190 929 159 929 q 243 907 221 929 q 264 854 264 885 m 644 854 q 623 802 644 823 q 570 780 601 780 q 517 802 539 780 q 495 854 495 823 q 517 907 495 885 q 570 929 539 929 q 623 907 601 929 q 644 854 644 885 m 264 475 q 243 422 264 444 q 190 400 221 400 q 137 422 159 400 q 115 475 115 444 q 137 527 115 505 q 190 549 159 549 q 243 527 221 549 q 264 475 264 505 m 644 475 q 623 422 644 444 q 570 400 601 400 q 517 422 539 400 q 495 475 495 444 q 517 527 495 505 q 570 549 539 549 q 623 527 601 549 q 644 475 644 505 m 454 285 q 433 232 454 254 q 380 210 411 210 q 327 232 349 210 q 305 285 305 254 q 327 337 305 315 q 380 359 349 359 q 433 337 411 359 q 454 285 454 315 m 454 95 q 433 42 454 64 q 380 20 411 20 q 327 42 349 20 q 305 95 305 64 q 327 148 305 125 q 380 170 349 170 q 433 148 411 170 q 454 95 454 125 z "},"˙":{"ha":760,"x_min":305,"x_max":454,"o":"m 454 854 q 433 802 454 823 q 380 780 411 780 q 327 802 349 780 q 305 854 305 823 q 327 907 305 885 q 380 929 349 929 q 433 907 411 929 q 454 854 454 885 z "},"Ċ":{"ha":760,"x_min":115,"x_max":644,"o":"m 454 854 q 433 802 454 823 q 380 780 411 780 q 327 802 349 780 q 305 854 305 823 q 327 907 305 885 q 380 929 349 929 q 433 907 411 929 q 454 854 454 885 m 454 665 q 433 612 454 633 q 380 590 411 590 q 327 612 349 590 q 305 665 305 633 q 327 717 305 695 q 380 739 349 739 q 433 717 411 739 q 454 665 454 695 m 644 665 q 623 612 644 633 q 570 590 601 590 q 517 612 539 590 q 495 665 495 633 q 517 717 495 695 q 570 739 539 739 q 623 717 601 739 q 644 665 644 695 m 264 475 q 243 422 264 444 q 190 400 221 400 q 137 422 159 400 q 115 475 115 444 q 137 527 115 505 q 190 549 159 549 q 243 527 221 549 q 264 475 264 505 m 264 285 q 243 232 264 254 q 190 210 221 210 q 137 232 159 210 q 115 285 115 254 q 137 337 115 315 q 190 359 159 359 q 243 337 221 359 q 264 285 264 315 m 454 95 q 433 42 454 64 q 380 20 411 20 q 327 42 349 20 q 305 95 305 64 q 327 148 305 125 q 380 170 349 170 q 433 148 411 170 q 454 95 454 125 m 644 95 q 623 42 644 64 q 570 20 601 20 q 517 42 539 20 q 495 95 495 64 q 517 148 495 125 q 570 170 539 170 q 623 148 601 170 q 644 95 644 125 z "},"ċ":{"ha":760,"x_min":115,"x_max":644,"o":"m 454 854 q 433 802 454 823 q 380 780 411 780 q 327 802 349 780 q 305 854 305 823 q 327 907 305 885 q 380 929 349 929 q 433 907 411 929 q 454 854 454 885 m 454 665 q 433 612 454 633 q 380 590 411 590 q 327 612 349 590 q 305 665 305 633 q 327 717 305 695 q 380 739 349 739 q 433 717 411 739 q 454 665 454 695 m 644 665 q 623 612 644 633 q 570 590 601 590 q 517 612 539 590 q 495 665 495 633 q 517 717 495 695 q 570 739 539 739 q 623 717 601 739 q 644 665 644 695 m 264 475 q 243 422 264 444 q 190 400 221 400 q 137 422 159 400 q 115 475 115 444 q 137 527 115 505 q 190 549 159 549 q 243 527 221 549 q 264 475 264 505 m 264 285 q 243 232 264 254 q 190 210 221 210 q 137 232 159 210 q 115 285 115 254 q 137 337 115 315 q 190 359 159 359 q 243 337 221 359 q 264 285 264 315 m 454 95 q 433 42 454 64 q 380 20 411 20 q 327 42 349 20 q 305 95 305 64 q 327 148 305 125 q 380 170 349 170 q 433 148 411 170 q 454 95 454 125 m 644 95 q 623 42 644 64 q 570 20 601 20 q 517 42 539 20 q 495 95 495 64 q 517 148 495 125 q 570 170 539 170 q 623 148 601 170 q 644 95 644 125 z "},"Ġ":{"ha":760,"x_min":115,"x_max":644,"o":"m 454 854 q 433 802 454 823 q 380 780 411 780 q 327 802 349 780 q 305 854 305 823 q 327 907 305 885 q 380 929 349 929 q 433 907 411 929 q 454 854 454 885 m 454 665 q 433 612 454 633 q 380 590 411 590 q 327 612 349 590 q 305 665 305 633 q 327 717 305 695 q 380 739 349 739 q 433 717 411 739 q 454 665 454 695 m 644 665 q 623 612 644 633 q 570 590 601 590 q 517 612 539 590 q 495 665 495 633 q 517 717 495 695 q 570 739 539 739 q 623 717 601 739 q 644 665 644 695 m 264 475 q 243 422 264 444 q 190 400 221 400 q 137 422 159 400 q 115 475 115 444 q 137 527 115 505 q 190 549 159 549 q 243 527 221 549 q 264 475 264 505 m 264 285 q 243 232 264 254 q 190 210 221 210 q 137 232 159 210 q 115 285 115 254 q 137 337 115 315 q 190 359 159 359 q 243 337 221 359 q 264 285 264 315 m 454 95 q 433 42 454 64 q 380 20 411 20 q 327 42 349 20 q 305 95 305 64 q 327 148 305 125 q 380 170 349 170 q 433 148 411 170 q 454 95 454 125 m 644 95 q 623 42 644 64 q 570 20 601 20 q 517 42 539 20 q 495 95 495 64 q 517 148 495 125 q 570 170 539 170 q 623 148 601 170 q 644 95 644 125 m 644 285 q 623 232 644 254 q 570 210 601 210 q 517 232 539 210 q 495 285 495 254 q 517 337 495 315 q 570 359 539 359 q 623 337 601 359 q 644 285 644 315 z "},"ġ":{"ha":760,"x_min":115,"x_max":644,"o":"m 454 854 q 433 802 454 823 q 380 780 411 780 q 327 802 349 780 q 305 854 305 823 q 327 907 305 885 q 380 929 349 929 q 433 907 411 929 q 454 854 454 885 m 454 665 q 433 612 454 633 q 380 590 411 590 q 327 612 349 590 q 305 665 305 633 q 327 717 305 695 q 380 739 349 739 q 433 717 411 739 q 454 665 454 695 m 644 665 q 623 612 644 633 q 570 590 601 590 q 517 612 539 590 q 495 665 495 633 q 517 717 495 695 q 570 739 539 739 q 623 717 601 739 q 644 665 644 695 m 264 475 q 243 422 264 444 q 190 400 221 400 q 137 422 159 400 q 115 475 115 444 q 137 527 115 505 q 190 549 159 549 q 243 527 221 549 q 264 475 264 505 m 264 285 q 243 232 264 254 q 190 210 221 210 q 137 232 159 210 q 115 285 115 254 q 137 337 115 315 q 190 359 159 359 q 243 337 221 359 q 264 285 264 315 m 454 95 q 433 42 454 64 q 380 20 411 20 q 327 42 349 20 q 305 95 305 64 q 327 148 305 125 q 380 170 349 170 q 433 148 411 170 q 454 95 454 125 m 644 95 q 623 42 644 64 q 570 20 601 20 q 517 42 539 20 q 495 95 495 64 q 517 148 495 125 q 570 170 539 170 q 623 148 601 170 q 644 95 644 125 m 644 285 q 623 232 644 254 q 570 210 601 210 q 517 232 539 210 q 495 285 495 254 q 517 337 495 315 q 570 359 539 359 q 623 337 601 359 q 644 285 644 315 z "},"Ȧ":{"ha":760,"x_min":115,"x_max":644,"o":"m 454 854 q 433 802 454 823 q 380 780 411 780 q 327 802 349 780 q 305 854 305 823 q 327 907 305 885 q 380 929 349 929 q 433 907 411 929 q 454 854 454 885 m 454 665 q 433 612 454 633 q 380 590 411 590 q 327 612 349 590 q 305 665 305 633 q 327 717 305 695 q 380 739 349 739 q 433 717 411 739 q 454 665 454 695 m 264 475 q 243 422 264 444 q 190 400 221 400 q 137 422 159 400 q 115 475 115 444 q 137 527 115 505 q 190 549 159 549 q 243 527 221 549 q 264 475 264 505 m 644 475 q 623 422 644 444 q 570 400 601 400 q 517 422 539 400 q 495 475 495 444 q 517 527 495 505 q 570 549 539 549 q 623 527 601 549 q 644 475 644 505 m 264 285 q 243 232 264 254 q 190 210 221 210 q 137 232 159 210 q 115 285 115 254 q 137 337 115 315 q 190 359 159 359 q 243 337 221 359 q 264 285 264 315 m 454 285 q 433 232 454 254 q 380 210 411 210 q 327 232 349 210 q 305 285 305 254 q 327 337 305 315 q 380 359 349 359 q 433 337 411 359 q 454 285 454 315 m 644 285 q 623 232 644 254 q 570 210 601 210 q 517 232 539 210 q 495 285 495 254 q 517 337 495 315 q 570 359 539 359 q 623 337 601 359 q 644 285 644 315 m 264 95 q 243 42 264 64 q 190 20 221 20 q 137 42 159 20 q 115 95 115 64 q 137 148 115 125 q 190 170 159 170 q 243 148 221 170 q 264 95 264 125 m 644 95 q 623 42 644 64 q 570 20 601 20 q 517 42 539 20 q 495 95 495 64 q 517 148 495 125 q 570 170 539 170 q 623 148 601 170 q 644 95 644 125 z "},"ȧ":{"ha":760,"x_min":115,"x_max":644,"o":"m 454 854 q 433 802 454 823 q 380 780 411 780 q 327 802 349 780 q 305 854 305 823 q 327 907 305 885 q 380 929 349 929 q 433 907 411 929 q 454 854 454 885 m 454 665 q 433 612 454 633 q 380 590 411 590 q 327 612 349 590 q 305 665 305 633 q 327 717 305 695 q 380 739 349 739 q 433 717 411 739 q 454 665 454 695 m 264 475 q 243 422 264 444 q 190 400 221 400 q 137 422 159 400 q 115 475 115 444 q 137 527 115 505 q 190 549 159 549 q 243 527 221 549 q 264 475 264 505 m 644 475 q 623 422 644 444 q 570 400 601 400 q 517 422 539 400 q 495 475 495 444 q 517 527 495 505 q 570 549 539 549 q 623 527 601 549 q 644 475 644 505 m 264 285 q 243 232 264 254 q 190 210 221 210 q 137 232 159 210 q 115 285 115 254 q 137 337 115 315 q 190 359 159 359 q 243 337 221 359 q 264 285 264 315 m 454 285 q 433 232 454 254 q 380 210 411 210 q 327 232 349 210 q 305 285 305 254 q 327 337 305 315 q 380 359 349 359 q 433 337 411 359 q 454 285 454 315 m 644 285 q 623 232 644 254 q 570 210 601 210 q 517 232 539 210 q 495 285 495 254 q 517 337 495 315 q 570 359 539 359 q 623 337 601 359 q 644 285 644 315 m 264 95 q 243 42 264 64 q 190 20 221 20 q 137 42 159 20 q 115 95 115 64 q 137 148 115 125 q 190 170 159 170 q 243 148 221 170 q 264 95 264 125 m 644 95 q 623 42 644 64 q 570 20 601 20 q 517 42 539 20 q 495 95 495 64 q 517 148 495 125 q 570 170 539 170 q 623 148 601 170 q 644 95 644 125 z "},"Ȯ":{"ha":760,"x_min":115,"x_max":644,"o":"m 454 854 q 433 802 454 823 q 380 780 411 780 q 327 802 349 780 q 305 854 305 823 q 327 907 305 885 q 380 929 349 929 q 433 907 411 929 q 454 854 454 885 m 454 475 q 433 422 454 444 q 380 400 411 400 q 327 422 349 400 q 305 475 305 444 q 327 527 305 505 q 380 549 349 549 q 433 527 411 549 q 454 475 454 505 m 264 285 q 243 232 264 254 q 190 210 221 210 q 137 232 159 210 q 115 285 115 254 q 137 337 115 315 q 190 359 159 359 q 243 337 221 359 q 264 285 264 315 m 644 285 q 623 232 644 254 q 570 210 601 210 q 517 232 539 210 q 495 285 495 254 q 517 337 495 315 q 570 359 539 359 q 623 337 601 359 q 644 285 644 315 m 454 95 q 433 42 454 64 q 380 20 411 20 q 327 42 349 20 q 305 95 305 64 q 327 148 305 125 q 380 170 349 170 q 433 148 411 170 q 454 95 454 125 m 264 475 q 243 422 264 444 q 190 400 221 400 q 137 422 159 400 q 115 475 115 444 q 137 527 115 505 q 190 549 159 549 q 243 527 221 549 q 264 475 264 505 m 644 475 q 623 422 644 444 q 570 400 601 400 q 517 422 539 400 q 495 475 495 444 q 517 527 495 505 q 570 549 539 549 q 623 527 601 549 q 644 475 644 505 m 264 95 q 243 42 264 64 q 190 20 221 20 q 137 42 159 20 q 115 95 115 64 q 137 148 115 125 q 190 170 159 170 q 243 148 221 170 q 264 95 264 125 m 644 95 q 623 42 644 64 q 570 20 601 20 q 517 42 539 20 q 495 95 495 64 q 517 148 495 125 q 570 170 539 170 q 623 148 601 170 q 644 95 644 125 z "},"ȯ":{"ha":760,"x_min":115,"x_max":644,"o":"m 454 854 q 433 802 454 823 q 380 780 411 780 q 327 802 349 780 q 305 854 305 823 q 327 907 305 885 q 380 929 349 929 q 433 907 411 929 q 454 854 454 885 m 454 475 q 433 422 454 444 q 380 400 411 400 q 327 422 349 400 q 305 475 305 444 q 327 527 305 505 q 380 549 349 549 q 433 527 411 549 q 454 475 454 505 m 264 285 q 243 232 264 254 q 190 210 221 210 q 137 232 159 210 q 115 285 115 254 q 137 337 115 315 q 190 359 159 359 q 243 337 221 359 q 264 285 264 315 m 644 285 q 623 232 644 254 q 570 210 601 210 q 517 232 539 210 q 495 285 495 254 q 517 337 495 315 q 570 359 539 359 q 623 337 601 359 q 644 285 644 315 m 454 95 q 433 42 454 64 q 380 20 411 20 q 327 42 349 20 q 305 95 305 64 q 327 148 305 125 q 380 170 349 170 q 433 148 411 170 q 454 95 454 125 m 264 475 q 243 422 264 444 q 190 400 221 400 q 137 422 159 400 q 115 475 115 444 q 137 527 115 505 q 190 549 159 549 q 243 527 221 549 q 264 475 264 505 m 644 475 q 623 422 644 444 q 570 400 601 400 q 517 422 539 400 q 495 475 495 444 q 517 527 495 505 q 570 549 539 549 q 623 527 601 549 q 644 475 644 505 m 264 95 q 243 42 264 64 q 190 20 221 20 q 137 42 159 20 q 115 95 115 64 q 137 148 115 125 q 190 170 159 170 q 243 148 221 170 q 264 95 264 125 m 644 95 q 623 42 644 64 q 570 20 601 20 q 517 42 539 20 q 495 95 495 64 q 517 148 495 125 q 570 170 539 170 q 623 148 601 170 q 644 95 644 125 z "},"¸":{"ha":760,"x_min":305,"x_max":454,"o":"m 454 95 q 433 42 454 64 q 380 20 411 20 q 327 42 349 20 q 305 95 305 64 q 327 148 305 125 q 380 170 349 170 q 433 148 411 170 q 454 95 454 125 z "},"Ç":{"ha":760,"x_min":115,"x_max":644,"o":"m 454 854 q 433 802 454 823 q 380 780 411 780 q 327 802 349 780 q 305 854 305 823 q 327 907 305 885 q 380 929 349 929 q 433 907 411 929 q 454 854 454 885 m 644 854 q 623 802 644 823 q 570 780 601 780 q 517 802 539 780 q 495 854 495 823 q 517 907 495 885 q 570 929 539 929 q 623 907 601 929 q 644 854 644 885 m 264 665 q 243 612 264 633 q 190 590 221 590 q 137 612 159 590 q 115 665 115 633 q 137 717 115 695 q 190 739 159 739 q 243 717 221 739 q 264 665 264 695 m 264 475 q 243 422 264 444 q 190 400 221 400 q 137 422 159 400 q 115 475 115 444 q 137 527 115 505 q 190 549 159 549 q 243 527 221 549 q 264 475 264 505 m 454 285 q 433 232 454 254 q 380 210 411 210 q 327 232 349 210 q 305 285 305 254 q 327 337 305 315 q 380 359 349 359 q 433 337 411 359 q 454 285 454 315 m 644 285 q 623 232 644 254 q 570 210 601 210 q 517 232 539 210 q 495 285 495 254 q 517 337 495 315 q 570 359 539 359 q 623 337 601 359 q 644 285 644 315 m 454 95 q 433 42 454 64 q 380 20 411 20 q 327 42 349 20 q 305 95 305 64 q 327 148 305 125 q 380 170 349 170 q 433 148 411 170 q 454 95 454 125 z "},"ç":{"ha":760,"x_min":115,"x_max":644,"o":"m 454 854 q 433 802 454 823 q 380 780 411 780 q 327 802 349 780 q 305 854 305 823 q 327 907 305 885 q 380 929 349 929 q 433 907 411 929 q 454 854 454 885 m 644 854 q 623 802 644 823 q 570 780 601 780 q 517 802 539 780 q 495 854 495 823 q 517 907 495 885 q 570 929 539 929 q 623 907 601 929 q 644 854 644 885 m 264 665 q 243 612 264 633 q 190 590 221 590 q 137 612 159 590 q 115 665 115 633 q 137 717 115 695 q 190 739 159 739 q 243 717 221 739 q 264 665 264 695 m 264 475 q 243 422 264 444 q 190 400 221 400 q 137 422 159 400 q 115 475 115 444 q 137 527 115 505 q 190 549 159 549 q 243 527 221 549 q 264 475 264 505 m 454 285 q 433 232 454 254 q 380 210 411 210 q 327 232 349 210 q 305 285 305 254 q 327 337 305 315 q 380 359 349 359 q 433 337 411 359 q 454 285 454 315 m 644 285 q 623 232 644 254 q 570 210 601 210 q 517 232 539 210 q 495 285 495 254 q 517 337 495 315 q 570 359 539 359 q 623 337 601 359 q 644 285 644 315 m 454 95 q 433 42 454 64 q 380 20 411 20 q 327 42 349 20 q 305 95 305 64 q 327 148 305 125 q 380 170 349 170 q 433 148 411 170 q 454 95 454 125 z "},"Ģ":{"ha":760,"x_min":115,"x_max":644,"o":"m 454 854 q 433 802 454 823 q 380 780 411 780 q 327 802 349 780 q 305 854 305 823 q 327 907 305 885 q 380 929 349 929 q 433 907 411 929 q 454 854 454 885 m 644 854 q 623 802 644 823 q 570 780 601 780 q 517 802 539 780 q 495 854 495 823 q 517 907 495 885 q 570 929 539 929 q 623 907 601 929 q 644 854 644 885 m 264 665 q 243 612 264 633 q 190 590 221 590 q 137 612 159 590 q 115 665 115 633 q 137 717 115 695 q 190 739 159 739 q 243 717 221 739 q 264 665 264 695 m 264 475 q 243 422 264 444 q 190 400 221 400 q 137 422 159 400 q 115 475 115 444 q 137 527 115 505 q 190 549 159 549 q 243 527 221 549 q 264 475 264 505 m 454 285 q 433 232 454 254 q 380 210 411 210 q 327 232 349 210 q 305 285 305 254 q 327 337 305 315 q 380 359 349 359 q 433 337 411 359 q 454 285 454 315 m 644 285 q 623 232 644 254 q 570 210 601 210 q 517 232 539 210 q 495 285 495 254 q 517 337 495 315 q 570 359 539 359 q 623 337 601 359 q 644 285 644 315 m 454 95 q 433 42 454 64 q 380 20 411 20 q 327 42 349 20 q 305 95 305 64 q 327 148 305 125 q 380 170 349 170 q 433 148 411 170 q 454 95 454 125 m 644 475 q 623 422 644 444 q 570 400 601 400 q 517 422 539 400 q 495 475 495 444 q 517 527 495 505 q 570 549 539 549 q 623 527 601 549 q 644 475 644 505 z "},"ģ":{"ha":760,"x_min":115,"x_max":644,"o":"m 454 854 q 433 802 454 823 q 380 780 411 780 q 327 802 349 780 q 305 854 305 823 q 327 907 305 885 q 380 929 349 929 q 433 907 411 929 q 454 854 454 885 m 644 854 q 623 802 644 823 q 570 780 601 780 q 517 802 539 780 q 495 854 495 823 q 517 907 495 885 q 570 929 539 929 q 623 907 601 929 q 644 854 644 885 m 264 665 q 243 612 264 633 q 190 590 221 590 q 137 612 159 590 q 115 665 115 633 q 137 717 115 695 q 190 739 159 739 q 243 717 221 739 q 264 665 264 695 m 264 475 q 243 422 264 444 q 190 400 221 400 q 137 422 159 400 q 115 475 115 444 q 137 527 115 505 q 190 549 159 549 q 243 527 221 549 q 264 475 264 505 m 454 285 q 433 232 454 254 q 380 210 411 210 q 327 232 349 210 q 305 285 305 254 q 327 337 305 315 q 380 359 349 359 q 433 337 411 359 q 454 285 454 315 m 644 285 q 623 232 644 254 q 570 210 601 210 q 517 232 539 210 q 495 285 495 254 q 517 337 495 315 q 570 359 539 359 q 623 337 601 359 q 644 285 644 315 m 454 95 q 433 42 454 64 q 380 20 411 20 q 327 42 349 20 q 305 95 305 64 q 327 148 305 125 q 380 170 349 170 q 433 148 411 170 q 454 95 454 125 m 644 475 q 623 422 644 444 q 570 400 601 400 q 517 422 539 400 q 495 475 495 444 q 517 527 495 505 q 570 549 539 549 q 623 527 601 549 q 644 475 644 505 z "},"Ļ":{"ha":760,"x_min":115,"x_max":644,"o":"m 264 854 q 243 802 264 823 q 190 780 221 780 q 137 802 159 780 q 115 854 115 823 q 137 907 115 885 q 190 929 159 929 q 243 907 221 929 q 264 854 264 885 m 264 665 q 243 612 264 633 q 190 590 221 590 q 137 612 159 590 q 115 665 115 633 q 137 717 115 695 q 190 739 159 739 q 243 717 221 739 q 264 665 264 695 m 264 475 q 243 422 264 444 q 190 400 221 400 q 137 422 159 400 q 115 475 115 444 q 137 527 115 505 q 190 549 159 549 q 243 527 221 549 q 264 475 264 505 m 264 285 q 243 232 264 254 q 190 210 221 210 q 137 232 159 210 q 115 285 115 254 q 137 337 115 315 q 190 359 159 359 q 243 337 221 359 q 264 285 264 315 m 454 95 q 433 42 454 64 q 380 20 411 20 q 327 42 349 20 q 305 95 305 64 q 327 148 305 125 q 380 170 349 170 q 433 148 411 170 q 454 95 454 125 m 454 285 q 433 232 454 254 q 380 210 411 210 q 327 232 349 210 q 305 285 305 254 q 327 337 305 315 q 380 359 349 359 q 433 337 411 359 q 454 285 454 315 m 644 285 q 623 232 644 254 q 570 210 601 210 q 517 232 539 210 q 495 285 495 254 q 517 337 495 315 q 570 359 539 359 q 623 337 601 359 q 644 285 644 315 z "},"ļ":{"ha":760,"x_min":115,"x_max":644,"o":"m 264 854 q 243 802 264 823 q 190 780 221 780 q 137 802 159 780 q 115 854 115 823 q 137 907 115 885 q 190 929 159 929 q 243 907 221 929 q 264 854 264 885 m 264 665 q 243 612 264 633 q 190 590 221 590 q 137 612 159 590 q 115 665 115 633 q 137 717 115 695 q 190 739 159 739 q 243 717 221 739 q 264 665 264 695 m 264 475 q 243 422 264 444 q 190 400 221 400 q 137 422 159 400 q 115 475 115 444 q 137 527 115 505 q 190 549 159 549 q 243 527 221 549 q 264 475 264 505 m 264 285 q 243 232 264 254 q 190 210 221 210 q 137 232 159 210 q 115 285 115 254 q 137 337 115 315 q 190 359 159 359 q 243 337 221 359 q 264 285 264 315 m 454 95 q 433 42 454 64 q 380 20 411 20 q 327 42 349 20 q 305 95 305 64 q 327 148 305 125 q 380 170 349 170 q 433 148 411 170 q 454 95 454 125 m 454 285 q 433 232 454 254 q 380 210 411 210 q 327 232 349 210 q 305 285 305 254 q 327 337 305 315 q 380 359 349 359 q 433 337 411 359 q 454 285 454 315 m 644 285 q 623 232 644 254 q 570 210 601 210 q 517 232 539 210 q 495 285 495 254 q 517 337 495 315 q 570 359 539 359 q 623 337 601 359 q 644 285 644 315 z "},"Ţ":{"ha":760,"x_min":115,"x_max":644,"o":"m 264 854 q 243 802 264 823 q 190 780 221 780 q 137 802 159 780 q 115 854 115 823 q 137 907 115 885 q 190 929 159 929 q 243 907 221 929 q 264 854 264 885 m 454 854 q 433 802 454 823 q 380 780 411 780 q 327 802 349 780 q 305 854 305 823 q 327 907 305 885 q 380 929 349 929 q 433 907 411 929 q 454 854 454 885 m 644 854 q 623 802 644 823 q 570 780 601 780 q 517 802 539 780 q 495 854 495 823 q 517 907 495 885 q 570 929 539 929 q 623 907 601 929 q 644 854 644 885 m 454 665 q 433 612 454 633 q 380 590 411 590 q 327 612 349 590 q 305 665 305 633 q 327 717 305 695 q 380 739 349 739 q 433 717 411 739 q 454 665 454 695 m 454 475 q 433 422 454 444 q 380 400 411 400 q 327 422 349 400 q 305 475 305 444 q 327 527 305 505 q 380 549 349 549 q 433 527 411 549 q 454 475 454 505 m 454 95 q 433 42 454 64 q 380 20 411 20 q 327 42 349 20 q 305 95 305 64 q 327 148 305 125 q 380 170 349 170 q 433 148 411 170 q 454 95 454 125 z "},"ţ":{"ha":760,"x_min":115,"x_max":644,"o":"m 264 854 q 243 802 264 823 q 190 780 221 780 q 137 802 159 780 q 115 854 115 823 q 137 907 115 885 q 190 929 159 929 q 243 907 221 929 q 264 854 264 885 m 454 854 q 433 802 454 823 q 380 780 411 780 q 327 802 349 780 q 305 854 305 823 q 327 907 305 885 q 380 929 349 929 q 433 907 411 929 q 454 854 454 885 m 644 854 q 623 802 644 823 q 570 780 601 780 q 517 802 539 780 q 495 854 495 823 q 517 907 495 885 q 570 929 539 929 q 623 907 601 929 q 644 854 644 885 m 454 665 q 433 612 454 633 q 380 590 411 590 q 327 612 349 590 q 305 665 305 633 q 327 717 305 695 q 380 739 349 739 q 433 717 411 739 q 454 665 454 695 m 454 475 q 433 422 454 444 q 380 400 411 400 q 327 422 349 400 q 305 475 305 444 q 327 527 305 505 q 380 549 349 549 q 433 527 411 549 q 454 475 454 505 m 454 95 q 433 42 454 64 q 380 20 411 20 q 327 42 349 20 q 305 95 305 64 q 327 148 305 125 q 380 170 349 170 q 433 148 411 170 q 454 95 454 125 z "},"Ț":{"ha":760,"x_min":115,"x_max":644,"o":"m 264 854 q 243 802 264 823 q 190 780 221 780 q 137 802 159 780 q 115 854 115 823 q 137 907 115 885 q 190 929 159 929 q 243 907 221 929 q 264 854 264 885 m 454 854 q 433 802 454 823 q 380 780 411 780 q 327 802 349 780 q 305 854 305 823 q 327 907 305 885 q 380 929 349 929 q 433 907 411 929 q 454 854 454 885 m 644 854 q 623 802 644 823 q 570 780 601 780 q 517 802 539 780 q 495 854 495 823 q 517 907 495 885 q 570 929 539 929 q 623 907 601 929 q 644 854 644 885 m 454 665 q 433 612 454 633 q 380 590 411 590 q 327 612 349 590 q 305 665 305 633 q 327 717 305 695 q 380 739 349 739 q 433 717 411 739 q 454 665 454 695 m 454 475 q 433 422 454 444 q 380 400 411 400 q 327 422 349 400 q 305 475 305 444 q 327 527 305 505 q 380 549 349 549 q 433 527 411 549 q 454 475 454 505 m 454 95 q 433 42 454 64 q 380 20 411 20 q 327 42 349 20 q 305 95 305 64 q 327 148 305 125 q 380 170 349 170 q 433 148 411 170 q 454 95 454 125 z "},"ț":{"ha":760,"x_min":115,"x_max":644,"o":"m 264 854 q 243 802 264 823 q 190 780 221 780 q 137 802 159 780 q 115 854 115 823 q 137 907 115 885 q 190 929 159 929 q 243 907 221 929 q 264 854 264 885 m 454 854 q 433 802 454 823 q 380 780 411 780 q 327 802 349 780 q 305 854 305 823 q 327 907 305 885 q 380 929 349 929 q 433 907 411 929 q 454 854 454 885 m 644 854 q 623 802 644 823 q 570 780 601 780 q 517 802 539 780 q 495 854 495 823 q 517 907 495 885 q 570 929 539 929 q 623 907 601 929 q 644 854 644 885 m 454 665 q 433 612 454 633 q 380 590 411 590 q 327 612 349 590 q 305 665 305 633 q 327 717 305 695 q 380 739 349 739 q 433 717 411 739 q 454 665 454 695 m 454 475 q 433 422 454 444 q 380 400 411 400 q 327 422 349 400 q 305 475 305 444 q 327 527 305 505 q 380 549 349 549 q 433 527 411 549 q 454 475 454 505 m 454 95 q 433 42 454 64 q 380 20 411 20 q 327 42 349 20 q 305 95 305 64 q 327 148 305 125 q 380 170 349 170 q 433 148 411 170 q 454 95 454 125 z "},"ǀ":{"ha":760,"x_min":305,"x_max":454,"o":"m 454 854 q 433 802 454 823 q 380 780 411 780 q 327 802 349 780 q 305 854 305 823 q 327 907 305 885 q 380 929 349 929 q 433 907 411 929 q 454 854 454 885 m 454 665 q 433 612 454 633 q 380 590 411 590 q 327 612 349 590 q 305 665 305 633 q 327 717 305 695 q 380 739 349 739 q 433 717 411 739 q 454 665 454 695 m 454 475 q 433 422 454 444 q 380 400 411 400 q 327 422 349 400 q 305 475 305 444 q 327 527 305 505 q 380 549 349 549 q 433 527 411 549 q 454 475 454 505 m 454 285 q 433 232 454 254 q 380 210 411 210 q 327 232 349 210 q 305 285 305 254 q 327 337 305 315 q 380 359 349 359 q 433 337 411 359 q 454 285 454 315 m 454 95 q 433 42 454 64 q 380 20 411 20 q 327 42 349 20 q 305 95 305 64 q 327 148 305 125 q 380 170 349 170 q 433 148 411 170 q 454 95 454 125 z "},"ǁ":{"ha":760,"x_min":115,"x_max":644,"o":"m 264 854 q 243 802 264 823 q 190 780 221 780 q 137 802 159 780 q 115 854 115 823 q 137 907 115 885 q 190 929 159 929 q 243 907 221 929 q 264 854 264 885 m 644 854 q 623 802 644 823 q 570 780 601 780 q 517 802 539 780 q 495 854 495 823 q 517 907 495 885 q 570 929 539 929 q 623 907 601 929 q 644 854 644 885 m 264 665 q 243 612 264 633 q 190 590 221 590 q 137 612 159 590 q 115 665 115 633 q 137 717 115 695 q 190 739 159 739 q 243 717 221 739 q 264 665 264 695 m 644 665 q 623 612 644 633 q 570 590 601 590 q 517 612 539 590 q 495 665 495 633 q 517 717 495 695 q 570 739 539 739 q 623 717 601 739 q 644 665 644 695 m 264 475 q 243 422 264 444 q 190 400 221 400 q 137 422 159 400 q 115 475 115 444 q 137 527 115 505 q 190 549 159 549 q 243 527 221 549 q 264 475 264 505 m 644 475 q 623 422 644 444 q 570 400 601 400 q 517 422 539 400 q 495 475 495 444 q 517 527 495 505 q 570 549 539 549 q 623 527 601 549 q 644 475 644 505 m 264 285 q 243 232 264 254 q 190 210 221 210 q 137 232 159 210 q 115 285 115 254 q 137 337 115 315 q 190 359 159 359 q 243 337 221 359 q 264 285 264 315 m 644 285 q 623 232 644 254 q 570 210 601 210 q 517 232 539 210 q 495 285 495 254 q 517 337 495 315 q 570 359 539 359 q 623 337 601 359 q 644 285 644 315 m 264 95 q 243 42 264 64 q 190 20 221 20 q 137 42 159 20 q 115 95 115 64 q 137 148 115 125 q 190 170 159 170 q 243 148 221 170 q 264 95 264 125 m 644 95 q 623 42 644 64 q 570 20 601 20 q 517 42 539 20 q 495 95 495 64 q 517 148 495 125 q 570 170 539 170 q 623 148 601 170 q 644 95 644 125 z "}}}
